CISFCamouflageKitOuLn.ufo
<glyph name="space" format="1">
  <advance width="171"/>
  <unicode hex="0020"/>
  <outline>
    <contour>
      <point x="685.781" y="0" type="move" smooth="yes"/>
    </contour>
  </outline>
</glyph>
<glyph name="exclam" format="1">
  <advance width="1063"/>
  <unicode hex="0021"/>
  <outline>
    <contour>
      <point x="704" y="24" type="line"/>
      <point x="582.426" y="87.5195"/>
      <point x="383.618" y="152.806"/>
      <point x="260" y="201" type="curve" smooth="yes"/>
      <point x="232.781" y="211.612"/>
      <point x="184.968" y="150"/>
      <point x="182" y="150" type="curve" smooth="yes"/>
      <point x="162.282" y="150"/>
      <point x="62.6611" y="282.469"/>
      <point x="47" y="300" type="curve"/>
      <point x="227" y="312" type="line"/>
      <point x="243.006" y="497.495"/>
      <point x="318.278" y="636"/>
      <point x="563" y="636" type="curve" smooth="yes"/>
      <point x="752.998" y="636"/>
      <point x="729.146" y="285"/>
      <point x="815" y="285" type="curve" smooth="yes"/>
      <point x="862.695" y="285"/>
      <point x="884.353" y="390"/>
      <point x="917" y="390" type="curve" smooth="yes"/>
      <point x="964.39" y="390"/>
      <point x="1016" y="220.14"/>
      <point x="1016" y="174" type="curve" smooth="yes"/>
      <point x="1016" y="99.7236"/>
      <point x="820.943" y="69.1289"/>
      <point x="770" y="42" type="curve"/>
    </contour>
    <contour>
      <point x="706.257" y="45.3457" type="curve"/>
      <point x="762.688" y="60.7373" type="line"/>
      <point x="830.526" y="94.5459"/>
      <point x="995.998" y="124.666"/>
      <point x="995.998" y="174.001" type="curve" smooth="yes"/>
      <point x="995.998" y="214.966"/>
      <point x="944.435" y="360.083"/>
      <point x="917.679" y="369.834" type="curve"/>
      <point x="910.1" y="364.678"/>
      <point x="874.056" y="265"/>
      <point x="814.999" y="265" type="curve" smooth="yes"/>
      <point x="693.632" y="265"/>
      <point x="731.8" y="616"/>
      <point x="562.999" y="616" type="curve" smooth="yes"/>
      <point x="329.97" y="616"/>
      <point x="262.461" y="490.324"/>
      <point x="246.926" y="310.28" type="curve" smooth="yes"/>
      <point x="245.451" y="293.186" type="line"/>
      <point x="86.791" y="282.608" type="line"/>
      <point x="112.818" y="249.912"/>
      <point x="156.939" y="195.219"/>
      <point x="179.05" y="175.271" type="curve"/>
      <point x="191.121" y="187.883"/>
      <point x="228.527" y="234.737"/>
      <point x="267.266" y="219.634" type="curve" smooth="yes"/>
      <point x="387.878" y="172.611"/>
      <point x="581.586" y="109.049"/>
    </contour>
  </outline>
</glyph>
<glyph name="quotedbl" format="1">
  <advance width="917"/>
  <unicode hex="0022"/>
  <outline>
    <contour>
      <point x="150.156" y="423" type="curve" smooth="yes"/>
      <point x="189.156" y="572"/>
      <point x="279.345" y="643.921"/>
      <point x="429.156" y="669" type="curve" smooth="yes"/>
      <point x="511.638" y="682.808"/>
      <point x="585.053" y="643.962"/>
      <point x="663.156" y="624" type="curve" smooth="yes"/>
      <point x="697.594" y="615.198"/>
      <point x="870.156" y="567.189"/>
      <point x="870.156" y="519" type="curve" smooth="yes"/>
      <point x="870.156" y="481.291"/>
      <point x="542.765" y="447"/>
      <point x="501.156" y="447" type="curve" smooth="yes"/>
      <point x="452.281" y="447"/>
      <point x="439.417" y="522"/>
      <point x="408.156" y="522" type="curve"/>
      <point x="387.086" y="526.671"/>
      <point x="369.919" y="513.315"/>
      <point x="354.156" y="507" type="curve" smooth="yes"/>
      <point x="329.79" y="493.967"/>
      <point x="305.432" y="482.044"/>
      <point x="297.156" y="456" type="curve"/>
      <point x="280.934" y="434.575"/>
      <point x="269.81" y="406.993"/>
      <point x="270.156" y="378" type="curve" smooth="yes"/>
      <point x="270.875" y="317.933"/>
      <point x="289.179" y="180"/>
      <point x="372.156" y="180" type="curve" smooth="yes"/>
      <point x="410.525" y="180"/>
      <point x="442.568" y="225"/>
      <point x="486.156" y="225" type="curve" smooth="yes"/>
      <point x="550.33" y="225"/>
      <point x="615.156" y="192.669"/>
      <point x="615.156" y="123" type="curve" smooth="yes"/>
      <point x="615.156" y="67.5449"/>
      <point x="568.713" y="48"/>
      <point x="522.156" y="48" type="curve" smooth="yes"/>
      <point x="392.791" y="48"/>
      <point x="273.235" y="111"/>
      <point x="159.156" y="111" type="curve" smooth="yes"/>
      <point x="143.535" y="111"/>
      <point x="133.055" y="102"/>
      <point x="120.156" y="102" type="curve" smooth="yes"/>
      <point x="79.3418" y="111.204"/>
      <point x="38.9951" y="153.522"/>
      <point x="48.1562" y="198" type="curve" smooth="yes"/>
      <point x="54.3223" y="227.936"/>
      <point x="49.7832" y="222"/>
      <point x="90.1562" y="222" type="curve" smooth="yes"/>
      <point x="110.57" y="222"/>
      <point x="115.25" y="204"/>
      <point x="132.156" y="204" type="curve" smooth="yes"/>
      <point x="144.371" y="204"/>
      <point x="141.156" y="212.456"/>
      <point x="141.156" y="225" type="curve"/>
      <point x="124.768" y="262.704"/>
      <point x="103.329" y="298.269"/>
      <point x="111.156" y="345" type="curve" smooth="yes"/>
      <point x="116.453" y="376.629"/>
      <point x="99.1562" y="402.981"/>
      <point x="99.1562" y="435" type="curve" smooth="yes"/>
      <point x="99.1562" y="440.438"/>
      <point x="108.004" y="438"/>
      <point x="114.156" y="438" type="curve" smooth="yes"/>
      <point x="132.156" y="438" type="line" smooth="yes"/>
      <point x="146.553" y="438"/>
      <point x="147.821" y="414.081"/>
    </contour>
    <contour>
      <point x="169.504" y="417.935" type="curve"/>
      <point x="169.504" y="417.935"/>
      <point x="167.306" y="392.756"/>
      <point x="141.897" y="402.317" type="curve" smooth="yes"/>
      <point x="123.814" y="409.122"/>
      <point x="127.895" y="418.001"/>
      <point x="127.895" y="418.001" type="curve"/>
      <point x="120.949" y="418.001" type="line"/>
      <point x="124.592" y="399.215"/>
      <point x="136.145" y="373.126"/>
      <point x="130.882" y="341.698" type="curve" smooth="yes"/>
      <point x="124.245" y="302.076"/>
      <point x="143.573" y="269.612"/>
      <point x="161.156" y="229.16" type="curve"/>
      <point x="161.156" y="225.001" type="line" smooth="yes"/>
      <point x="161.156" y="224.283"/>
      <point x="166.526" y="184.001"/>
      <point x="132.156" y="184.001" type="curve" smooth="yes"/>
      <point x="97.5273" y="184.001"/>
      <point x="96.1094" y="202.001"/>
      <point x="90.1562" y="202.001" type="curve" smooth="yes"/>
      <point x="81.1328" y="202.001"/>
      <point x="76.2334" y="202.218"/>
      <point x="69.4277" y="202.412" type="curve" smooth="yes"/>
      <point x="69.0107" y="200.299"/>
      <point x="68.4189" y="197.245"/>
      <point x="67.7432" y="193.967" type="curve" smooth="yes"/>
      <point x="61.8057" y="165.141"/>
      <point x="88.5547" y="131.497"/>
      <point x="121.917" y="122.165" type="curve" smooth="yes"/>
      <point x="125.411" y="122.814"/>
      <point x="138.943" y="131.001"/>
      <point x="159.154" y="131.001" type="curve" smooth="yes"/>
      <point x="280.437" y="131.001"/>
      <point x="399.155" y="68.001"/>
      <point x="522.154" y="68.001" type="curve" smooth="yes"/>
      <point x="564.933" y="68.001"/>
      <point x="595.154" y="83.498"/>
      <point x="595.154" y="123.001" type="curve" smooth="yes"/>
      <point x="595.154" y="176.468"/>
      <point x="545.811" y="205.001"/>
      <point x="486.154" y="205.001" type="curve" smooth="yes"/>
      <point x="455.997" y="205.001"/>
      <point x="425.675" y="160.001"/>
      <point x="372.154" y="160.001" type="curve" smooth="yes"/>
      <point x="264.312" y="160.001"/>
      <point x="250.811" y="323.059"/>
      <point x="250.156" y="377.762" type="curve" smooth="yes"/>
      <point x="249.761" y="410.843"/>
      <point x="260.941" y="439.851"/>
      <point x="279.256" y="465.442" type="curve"/>
      <point x="291.865" y="498.844"/>
      <point x="322.603" y="512.805"/>
      <point x="345.694" y="525.156" type="curve" smooth="yes"/>
      <point x="357.044" y="529.703"/>
      <point x="377.489" y="547.461"/>
      <point x="410.604" y="541.927" type="curve" smooth="yes"/>
      <point x="468.051" y="537.74"/>
      <point x="470.305" y="467"/>
      <point x="501.155" y="467" type="curve" smooth="yes"/>
      <point x="533.954" y="467"/>
      <point x="794.544" y="495.692"/>
      <point x="847.901" y="523.399" type="curve"/>
      <point x="824.936" y="554.015"/>
      <point x="689.344" y="596.664"/>
      <point x="658.203" y="604.623" type="curve" smooth="yes"/>
      <point x="576.259" y="625.566"/>
      <point x="507.002" y="661.753"/>
      <point x="432.458" y="649.274" type="curve" smooth="yes"/>
      <point x="288.452" y="625.167"/>
      <point x="206.584" y="559.6"/>
    </contour>
  </outline>
</glyph>
<glyph name="numbersign" format="1">
  <advance width="725"/>
  <unicode hex="0023"/>
  <outline>
    <contour>
      <point x="488.785" y="639" type="line"/>
      <point x="596.785" y="633"/>
      <point x="660.404" y="479.803"/>
      <point x="656.785" y="396" type="curve" smooth="yes"/>
      <point x="655.046" y="355.738"/>
      <point x="655.155" y="316.423"/>
      <point x="668.785" y="279" type="curve" smooth="yes"/>
      <point x="686.635" y="229.991"/>
      <point x="601.346" y="222"/>
      <point x="569.785" y="222" type="curve" smooth="yes"/>
      <point x="464.143" y="222"/>
      <point x="394.401" y="375"/>
      <point x="326.785" y="375" type="curve" smooth="yes"/>
      <point x="219.657" y="375"/>
      <point x="218.203" y="216"/>
      <point x="131.785" y="216" type="curve" smooth="yes"/>
      <point x="60.9033" y="216"/>
      <point x="53.7852" y="293.282"/>
      <point x="53.7852" y="345" type="curve" smooth="yes"/>
      <point x="58.0684" y="451.045"/>
      <point x="192.85" y="493.18"/>
      <point x="284.785" y="474" type="curve" smooth="yes"/>
      <point x="329.506" y="464.67"/>
      <point x="377.7" y="438"/>
      <point x="422.785" y="438" type="curve" smooth="yes"/>
      <point x="453.162" y="438"/>
      <point x="479.785" y="463.855"/>
      <point x="479.785" y="498" type="curve" smooth="yes"/>
      <point x="480.555" y="512.198"/>
      <point x="477.156" y="527.324"/>
      <point x="467.785" y="537" type="curve" smooth="yes"/>
      <point x="456.262" y="548.897"/>
      <point x="452.785" y="588.766"/>
      <point x="452.785" y="606" type="curve" smooth="yes"/>
      <point x="452.785" y="622.709"/>
      <point x="457.458" y="618.942"/>
      <point x="461.785" y="630" type="curve"/>
    </contour>
    <contour>
      <point x="491.312" y="618.761" type="curve"/>
      <point x="475.687" y="613.554" type="line" smooth="yes"/>
      <point x="475.575" y="613.39"/>
      <point x="474.053" y="611.24"/>
      <point x="472.928" y="609.807" type="curve" smooth="yes"/>
      <point x="472.896" y="609.408"/>
      <point x="472.783" y="607.853"/>
      <point x="472.783" y="606.001" type="curve" smooth="yes"/>
      <point x="472.783" y="591.178"/>
      <point x="478.337" y="556.244"/>
      <point x="482.146" y="550.95" type="curve" smooth="yes"/>
      <point x="496.655" y="535.113"/>
      <point x="500.559" y="516.625"/>
      <point x="499.785" y="497.463" type="curve" smooth="yes"/>
      <point x="499.135" y="453.723"/>
      <point x="465.198" y="418.001"/>
      <point x="422.783" y="418.001" type="curve" smooth="yes"/>
      <point x="370.439" y="418.001"/>
      <point x="320.837" y="446.049"/>
      <point x="280.698" y="454.423" type="curve" smooth="yes"/>
      <point x="195.642" y="472.167"/>
      <point x="77.9932" y="433.021"/>
      <point x="73.7832" y="344.596" type="curve" smooth="yes"/>
      <point x="73.8604" y="289.635"/>
      <point x="82.4404" y="236.001"/>
      <point x="131.784" y="236.001" type="curve" smooth="yes"/>
      <point x="192.147" y="236.001"/>
      <point x="198.171" y="395.001"/>
      <point x="326.785" y="395.001" type="curve" smooth="yes"/>
      <point x="417.833" y="395.001"/>
      <point x="480.386" y="242.001"/>
      <point x="569.785" y="242.001" type="curve" smooth="yes"/>
      <point x="606.557" y="242.001"/>
      <point x="651.503" y="255.433"/>
      <point x="651.212" y="266.604" type="curve" smooth="yes"/>
      <point x="651.18" y="267.822"/>
      <point x="650.917" y="269.619"/>
      <point x="649.993" y="272.156" type="curve" smooth="yes"/>
      <point x="634.808" y="313.85"/>
      <point x="635.045" y="356.139"/>
      <point x="636.804" y="396.864" type="curve" smooth="yes"/>
      <point x="640.163" y="474.651"/>
      <point x="578.829" y="610.516"/>
    </contour>
  </outline>
</glyph>
<glyph name="dollar" format="1">
  <advance width="892"/>
  <unicode hex="0024"/>
  <outline>
    <contour>
      <point x="170" y="444" type="line"/>
      <point x="215.169" y="581.653"/>
      <point x="340.537" y="640.598"/>
      <point x="485" y="654" type="curve" smooth="yes"/>
      <point x="704.125" y="674.33"/>
      <point x="842.465" y="441.351"/>
      <point x="845" y="249" type="curve" smooth="yes"/>
      <point x="847.704" y="43.7725"/>
      <point x="660.357" y="45"/>
      <point x="497" y="45" type="curve" smooth="yes"/>
      <point x="440.396" y="44.2959"/>
      <point x="399.286" y="91.2949"/>
      <point x="368" y="129" type="curve"/>
      <point x="336.786" y="192.393"/>
      <point x="250.453" y="174.224"/>
      <point x="194" y="168" type="curve" smooth="yes"/>
      <point x="133.897" y="161.374"/>
      <point x="97.2539" y="99"/>
      <point x="68" y="99" type="curve" smooth="yes"/>
      <point x="45.2969" y="99"/>
      <point x="47" y="106.273"/>
      <point x="47" y="126" type="curve" smooth="yes"/>
      <point x="58.9609" y="205.653"/>
      <point x="162.629" y="243"/>
      <point x="239" y="243" type="curve" smooth="yes"/>
      <point x="315.857" y="243"/>
      <point x="394.265" y="232.426"/>
      <point x="458" y="195" type="curve" smooth="yes"/>
      <point x="471.445" y="187.104"/>
      <point x="476.155" y="183"/>
      <point x="494" y="183" type="curve" smooth="yes"/>
      <point x="509.953" y="183"/>
      <point x="521" y="191.663"/>
      <point x="521" y="210" type="curve" smooth="yes"/>
      <point x="521" y="232.341"/>
      <point x="485" y="223.698"/>
      <point x="485" y="255" type="curve" smooth="yes"/>
      <point x="481.641" y="272.727"/>
      <point x="501.342" y="283.617"/>
      <point x="515" y="291" type="curve" smooth="yes"/>
      <point x="530.999" y="299.648"/>
      <point x="532.891" y="306"/>
      <point x="554" y="306" type="curve" smooth="yes"/>
      <point x="609.32" y="305.812"/>
      <point x="641.258" y="252.904"/>
      <point x="674" y="219" type="curve" smooth="yes"/>
      <point x="684.115" y="208.525"/>
      <point x="689.647" y="189"/>
      <point x="707" y="189" type="curve" smooth="yes"/>
      <point x="733.282" y="189.381"/>
      <point x="720.806" y="231.34"/>
      <point x="725" y="252" type="curve" smooth="yes"/>
      <point x="730.642" y="296.99"/>
      <point x="707.48" y="343.449"/>
      <point x="689" y="375" type="curve" smooth="yes"/>
      <point x="631.292" y="473.518"/>
      <point x="654.067" y="507"/>
      <point x="500" y="507" type="curve" smooth="yes"/>
      <point x="440.048" y="507"/>
      <point x="439.668" y="468.229"/>
      <point x="398" y="441" type="curve"/>
      <point x="317" y="441" type="line"/>
    </contour>
    <contour>
      <point x="504.622" y="258.921" type="curve" smooth="yes"/>
      <point x="504.732" y="258.232"/>
      <point x="504.878" y="257.557"/>
      <point x="505.001" y="256.879" type="curve" smooth="yes"/>
      <point x="505.001" y="255.001" type="line" smooth="yes"/>
      <point x="505.001" y="244.151"/>
      <point x="541.001" y="260.704"/>
      <point x="541.001" y="210.001" type="curve" smooth="yes"/>
      <point x="541.001" y="180.817"/>
      <point x="518.792" y="163.001"/>
      <point x="494.001" y="163.001" type="curve" smooth="yes"/>
      <point x="472.287" y="163.001"/>
      <point x="459.717" y="170.801"/>
      <point x="447.874" y="177.755" type="curve" smooth="yes"/>
      <point x="388.916" y="212.375"/>
      <point x="314.207" y="223.001"/>
      <point x="239.001" y="223.001" type="curve" smooth="yes"/>
      <point x="165.725" y="223.001"/>
      <point x="77.3848" y="186.066"/>
      <point x="66.998" y="124.407" type="curve" smooth="yes"/>
      <point x="66.9912" y="123.065"/>
      <point x="66.9795" y="121.785"/>
      <point x="66.9707" y="119.007" type="curve" smooth="yes"/>
      <point x="68.001" y="119" type="line" smooth="yes"/>
      <point x="76.4111" y="119"/>
      <point x="119.765" y="179.938"/>
      <point x="191.809" y="187.88" type="curve" smooth="yes"/>
      <point x="241.443" y="193.352"/>
      <point x="342.73" y="218.547"/>
      <point x="384.841" y="140.028" type="curve"/>
      <point x="415.904" y="102.701"/>
      <point x="452.475" y="64.4473"/>
      <point x="496.877" y="65" type="curve" smooth="yes"/>
      <point x="665.98" y="65"/>
      <point x="827.426" y="64.8643"/>
      <point x="825.003" y="248.737" type="curve" smooth="yes"/>
      <point x="822.575" y="432.926"/>
      <point x="691.733" y="653.096"/>
      <point x="486.849" y="634.087" type="curve" smooth="yes"/>
      <point x="355.857" y="621.935"/>
      <point x="247.312" y="572.755"/>
      <point x="198.822" y="463.418" type="curve"/>
      <point x="317.206" y="461.002" type="line"/>
      <point x="391.737" y="461.002" type="line"/>
      <point x="417.052" y="480.058"/>
      <point x="432.729" y="527.002"/>
      <point x="500.001" y="527.002" type="curve" smooth="yes"/>
      <point x="661.28" y="527.002"/>
      <point x="651.673" y="478.299"/>
      <point x="706.259" y="385.11" type="curve" smooth="yes"/>
      <point x="725.332" y="352.547"/>
      <point x="751.475" y="302.375"/>
      <point x="744.752" y="248.763" type="curve"/>
      <point x="744.602" y="248.021" type="line"/>
      <point x="744.602" y="248.021"/>
      <point x="760.054" y="169.768"/>
      <point x="707.146" y="169.001" type="curve" smooth="yes"/>
      <point x="674.158" y="169.001"/>
      <point x="661.119" y="203.55"/>
      <point x="659.614" y="205.107" type="curve" smooth="yes"/>
      <point x="622.705" y="243.326"/>
      <point x="596.153" y="285.857"/>
      <point x="553.933" y="286.001" type="curve" smooth="yes"/>
      <point x="538.367" y="286.001"/>
      <point x="545.971" y="285.007"/>
      <point x="524.511" y="273.406" type="curve" smooth="yes"/>
      <point x="513.008" y="267.188"/>
      <point x="505.105" y="260.276"/>
    </contour>
  </outline>
</glyph>
<glyph name="percent" format="1">
  <advance width="859"/>
  <unicode hex="0025"/>
  <outline>
    <contour>
      <point x="205.235" y="591" type="line"/>
      <point x="232.235" y="549" type="line"/>
      <point x="274.235" y="495" type="line"/>
      <point x="275.254" y="479.174"/>
      <point x="339.863" y="463.648"/>
      <point x="355.235" y="459" type="curve" smooth="yes"/>
      <point x="435.484" y="434.732"/>
      <point x="522.96" y="433.327"/>
      <point x="610.235" y="435" type="curve" smooth="yes"/>
      <point x="690.325" y="436.289"/>
      <point x="834.08" y="449.085"/>
      <point x="802.235" y="330" type="curve"/>
      <point x="804.957" y="289.131"/>
      <point x="788.47" y="260.657"/>
      <point x="778.235" y="225" type="curve" smooth="yes"/>
      <point x="765.736" y="181.453"/>
      <point x="739.705" y="134.34"/>
      <point x="700.235" y="111" type="curve"/>
      <point x="660.824" y="111"/>
      <point x="631.575" y="153"/>
      <point x="589.235" y="153" type="curve" smooth="yes"/>
      <point x="534.276" y="153"/>
      <point x="499.235" y="128.98"/>
      <point x="499.235" y="75" type="curve" smooth="yes"/>
      <point x="499.235" y="20.0166"/>
      <point x="562.235" y="20.6338"/>
      <point x="562.235" y="-42" type="curve" smooth="yes"/>
      <point x="562.235" y="-101.754"/>
      <point x="504.295" y="-153"/>
      <point x="448.235" y="-153" type="curve" smooth="yes"/>
      <point x="354.139" y="-153"/>
      <point x="208.235" y="-68.5898"/>
      <point x="208.235" y="39" type="curve" smooth="yes"/>
      <point x="208.235" y="96.3145"/>
      <point x="298.235" y="92.7275"/>
      <point x="298.235" y="141" type="curve" smooth="yes"/>
      <point x="298.235" y="244.479"/>
      <point x="52.2354" y="264.868"/>
      <point x="52.2354" y="420" type="curve" smooth="yes"/>
      <point x="52.2354" y="478.321"/>
      <point x="151.235" y="547.254"/>
      <point x="151.235" y="561" type="curve"/>
    </contour>
    <contour>
      <point x="782.06" y="331.972" type="curve"/>
      <point x="795.541" y="382.387"/>
      <point x="779.632" y="398.664"/>
      <point x="741.606" y="408.708" type="curve" smooth="yes"/>
      <point x="704.573" y="418.49"/>
      <point x="650.82" y="415.652"/>
      <point x="610.557" y="415.004" type="curve" smooth="yes"/>
      <point x="523.012" y="413.326"/>
      <point x="433.307" y="414.498"/>
      <point x="349.445" y="439.857" type="curve" smooth="yes"/>
      <point x="339.896" y="442.745"/>
      <point x="269.604" y="451.41"/>
      <point x="256.017" y="485.85" type="curve"/>
      <point x="215.897" y="537.432" type="line"/>
      <point x="198.554" y="564.41" type="line"/>
      <point x="166.854" y="546.799" type="line"/>
      <point x="148.892" y="517.766"/>
      <point x="72.2363" y="459.906"/>
      <point x="72.2363" y="420" type="curve" smooth="yes"/>
      <point x="72.2363" y="285.184"/>
      <point x="318.236" y="272.862"/>
      <point x="318.236" y="141" type="curve" smooth="yes"/>
      <point x="318.236" y="66.3047"/>
      <point x="228.236" y="73.4395"/>
      <point x="228.236" y="39" type="curve" smooth="yes"/>
      <point x="228.236" y="-51.0371"/>
      <point x="360.492" y="-133"/>
      <point x="448.236" y="-133" type="curve" smooth="yes"/>
      <point x="493.712" y="-133"/>
      <point x="542.236" y="-89.2412"/>
      <point x="542.236" y="-42" type="curve" smooth="yes"/>
      <point x="542.236" y="2.62305"/>
      <point x="479.236" y="-0.695312"/>
      <point x="479.236" y="75" type="curve" smooth="yes"/>
      <point x="479.236" y="141.765"/>
      <point x="527.852" y="173"/>
      <point x="589.236" y="173" type="curve" smooth="yes"/>
      <point x="640.117" y="173"/>
      <point x="671.38" y="134.939"/>
      <point x="695.041" y="131.369" type="curve"/>
      <point x="724.767" y="151.603"/>
      <point x="747.905" y="191.821"/>
      <point x="759.012" y="230.518" type="curve" smooth="yes"/>
      <point x="770.749" y="271.411"/>
      <point x="784.544" y="294.673"/>
    </contour>
  </outline>
</glyph>
<glyph name="ampersand" format="1">
  <advance width="930"/>
  <unicode hex="0026"/>
  <outline>
    <contour>
      <point x="285.294" y="447" type="curve"/>
      <point x="294.294" y="456" type="line"/>
      <point x="327.16" y="477.128"/>
      <point x="324.359" y="519"/>
      <point x="393.294" y="519" type="curve" smooth="yes"/>
      <point x="512.868" y="519"/>
      <point x="575.75" y="396"/>
      <point x="678.294" y="396" type="curve" smooth="yes"/>
      <point x="694.556" y="396"/>
      <point x="706.176" y="408"/>
      <point x="720.294" y="408" type="curve" smooth="yes"/>
      <point x="747.294" y="408" type="line" smooth="yes"/>
      <point x="758.161" y="408"/>
      <point x="759.294" y="424.521"/>
      <point x="759.294" y="435" type="curve" smooth="yes"/>
      <point x="759.294" y="659.975"/>
      <point x="177.294" y="548.265"/>
      <point x="177.294" y="681" type="curve" smooth="yes"/>
      <point x="177.294" y="717.203"/>
      <point x="205.285" y="717"/>
      <point x="243.294" y="717" type="curve" smooth="yes"/>
      <point x="342.294" y="717" type="line" smooth="yes"/>
      <point x="474.241" y="717"/>
      <point x="668.518" y="808.146"/>
      <point x="798.294" y="753" type="curve" smooth="yes"/>
      <point x="866.139" y="724.171"/>
      <point x="874.738" y="628.476"/>
      <point x="867.294" y="558" type="curve" smooth="yes"/>
      <point x="848.209" y="423.138"/>
      <point x="912.754" y="225.94"/>
      <point x="807.294" y="132" type="curve"/>
      <point x="734.316" y="132"/>
      <point x="729.613" y="246"/>
      <point x="639.294" y="246" type="curve" smooth="yes"/>
      <point x="531.294" y="246" type="line" smooth="yes"/>
      <point x="443.792" y="246"/>
      <point x="60.2939" y="278.511"/>
      <point x="60.2939" y="399" type="curve" smooth="yes"/>
      <point x="60.2939" y="431.508"/>
      <point x="73.4639" y="525"/>
      <point x="123.294" y="525" type="curve" smooth="yes"/>
      <point x="181.802" y="525"/>
      <point x="226.435" y="465.752"/>
    </contour>
    <contour>
      <point x="290.825" y="424.247" type="line"/>
      <point x="279.219" y="427.945" type="line" smooth="yes"/>
      <point x="210.205" y="449.933"/>
      <point x="169.617" y="505.002"/>
      <point x="123.29" y="505.002" type="curve" smooth="yes"/>
      <point x="99.2051" y="505.002"/>
      <point x="80.29" y="436.773"/>
      <point x="80.29" y="399.002" type="curve" smooth="yes"/>
      <point x="80.29" y="308.888"/>
      <point x="433.324" y="266.002"/>
      <point x="531.29" y="266.002" type="curve" smooth="yes"/>
      <point x="639.29" y="266.002" type="line" smooth="yes"/>
      <point x="739.756" y="266.002"/>
      <point x="761.713" y="159.239"/>
      <point x="799.956" y="152.582" type="curve"/>
      <point x="884.651" y="238.391"/>
      <point x="827.431" y="416.053"/>
      <point x="847.44" y="560.467" type="curve" smooth="yes"/>
      <point x="854.669" y="630.36"/>
      <point x="842.974" y="712.282"/>
      <point x="790.47" y="734.593" type="curve" smooth="yes"/>
      <point x="671.987" y="784.939"/>
      <point x="483.455" y="697"/>
      <point x="342.292" y="697" type="curve" smooth="yes"/>
      <point x="243.292" y="697" type="line" smooth="yes"/>
      <point x="199.992" y="697"/>
      <point x="197.292" y="697.019"/>
      <point x="197.292" y="681" type="curve" smooth="yes"/>
      <point x="197.292" y="582.962"/>
      <point x="779.292" y="686.763"/>
      <point x="779.292" y="435" type="curve" smooth="yes"/>
      <point x="779.292" y="431.946"/>
      <point x="783.485" y="388"/>
      <point x="747.292" y="388" type="curve" smooth="yes"/>
      <point x="720.292" y="388" type="line" smooth="yes"/>
      <point x="717.887" y="388"/>
      <point x="704.724" y="376"/>
      <point x="678.292" y="376" type="curve" smooth="yes"/>
      <point x="558.978" y="376"/>
      <point x="498.438" y="499"/>
      <point x="393.293" y="499" type="curve" smooth="yes"/>
      <point x="334.381" y="499"/>
      <point x="352.765" y="471.724"/>
      <point x="307.022" y="440.444" type="curve"/>
    </contour>
  </outline>
</glyph>
<glyph name="quotesingle" format="1">
  <advance width="950"/>
  <unicode hex="0027"/>
  <outline>
    <contour>
      <point x="470.5" y="681" type="line"/>
      <point x="464.5" y="654" type="line"/>
      <point x="473.677" y="649.142"/>
      <point x="470.449" y="645"/>
      <point x="482.5" y="645" type="curve" smooth="yes"/>
      <point x="510.515" y="645"/>
      <point x="522.312" y="675"/>
      <point x="563.5" y="675" type="curve" smooth="yes"/>
      <point x="643.587" y="675"/>
      <point x="902.5" y="576.026"/>
      <point x="902.5" y="471" type="curve" smooth="yes"/>
      <point x="902.5" y="367.765"/>
      <point x="730.694" y="363"/>
      <point x="665.5" y="363" type="curve" smooth="yes"/>
      <point x="618.812" y="363"/>
      <point x="592.234" y="582"/>
      <point x="473.5" y="582" type="curve" smooth="yes"/>
      <point x="438.896" y="582"/>
      <point x="326.5" y="575.327"/>
      <point x="326.5" y="528" type="curve" smooth="yes"/>
      <point x="326.5" y="487.158"/>
      <point x="470.5" y="402.476"/>
      <point x="470.5" y="363" type="curve" smooth="yes"/>
      <point x="470.5" y="282.06"/>
      <point x="332.5" y="276.975"/>
      <point x="332.5" y="207" type="curve" smooth="yes"/>
      <point x="332.5" y="155.646"/>
      <point x="473.5" y="164.221"/>
      <point x="473.5" y="123" type="curve" smooth="yes"/>
      <point x="473.5" y="103.172"/>
      <point x="467.41" y="96"/>
      <point x="449.5" y="96" type="curve" smooth="yes"/>
      <point x="366.594" y="96"/>
      <point x="119.5" y="131.481"/>
      <point x="119.5" y="258" type="curve" smooth="yes"/>
      <point x="119.5" y="326.026"/>
      <point x="317.5" y="304.916"/>
      <point x="317.5" y="399" type="curve" smooth="yes"/>
      <point x="317.5" y="501.418"/>
      <point x="47.5" y="510.101"/>
      <point x="47.5" y="636" type="curve" smooth="yes"/>
      <point x="47.5" y="706.435"/>
      <point x="286.25" y="681"/>
      <point x="323.5" y="681" type="curve" smooth="yes"/>
    </contour>
    <contour>
      <point x="445.567" y="661" type="line"/>
      <point x="323.501" y="661.001" type="line" smooth="yes"/>
      <point x="266.719" y="661.001"/>
      <point x="67.501" y="673.611"/>
      <point x="67.501" y="636.001" type="curve" smooth="yes"/>
      <point x="67.501" y="534.78"/>
      <point x="337.501" y="530.052"/>
      <point x="337.501" y="399.001" type="curve" smooth="yes"/>
      <point x="337.501" y="279.653"/>
      <point x="139.501" y="294.49"/>
      <point x="139.501" y="258.001" type="curve" smooth="yes"/>
      <point x="139.501" y="157.521"/>
      <point x="361.2" y="116.001"/>
      <point x="449.501" y="116.001" type="curve" smooth="yes"/>
      <point x="450.99" y="116.001"/>
      <point x="452.148" y="116.071"/>
      <point x="453.055" y="116.177" type="curve" smooth="yes"/>
      <point x="453.288" y="117.732"/>
      <point x="453.398" y="118.103"/>
      <point x="453.499" y="121.998" type="curve" smooth="yes"/>
      <point x="448.972" y="126.641"/>
      <point x="312.501" y="143.213"/>
      <point x="312.501" y="207.001" type="curve" smooth="yes"/>
      <point x="312.501" y="302.344"/>
      <point x="449.661" y="304.989"/>
      <point x="450.503" y="362.78" type="curve"/>
      <point x="446.166" y="381.701"/>
      <point x="306.501" y="469.335"/>
      <point x="306.501" y="528" type="curve" smooth="yes"/>
      <point x="306.501" y="604.129"/>
      <point x="448.798" y="602"/>
      <point x="473.501" y="602" type="curve" smooth="yes"/>
      <point x="597.886" y="602"/>
      <point x="648.075" y="395.833"/>
      <point x="666.605" y="383" type="curve"/>
      <point x="739.678" y="383.068"/>
      <point x="882.5" y="394.25"/>
      <point x="882.5" y="471" type="curve" smooth="yes"/>
      <point x="882.5" y="551.89"/>
      <point x="642.198" y="655"/>
      <point x="563.5" y="655" type="curve" smooth="yes"/>
      <point x="533.681" y="655"/>
      <point x="527.778" y="625"/>
      <point x="482.499" y="625" type="curve" smooth="yes"/>
      <point x="460.277" y="625"/>
      <point x="455.142" y="636.324"/>
      <point x="455.142" y="636.324" type="curve"/>
      <point x="441.669" y="643.457" type="line"/>
    </contour>
  </outline>
</glyph>
<glyph name="parenleft" format="1">
  <advance width="999"/>
  <unicode hex="0028"/>
  <outline>
    <contour>
      <point x="123.224" y="432" type="line"/>
      <point x="192.224" y="459" type="line"/>
      <point x="300.595" y="459"/>
      <point x="409.265" y="507"/>
      <point x="522.224" y="507" type="curve" smooth="yes"/>
      <point x="638.075" y="507"/>
      <point x="688.479" y="321"/>
      <point x="801.224" y="321" type="curve" smooth="yes"/>
      <point x="852.436" y="321"/>
      <point x="945.224" y="354.941"/>
      <point x="945.224" y="315" type="curve" smooth="yes"/>
      <point x="945.224" y="232.168"/>
      <point x="906.714" y="204"/>
      <point x="834.224" y="204" type="curve"/>
      <point x="732.989" y="181.564"/>
      <point x="693.88" y="310.825"/>
      <point x="597.224" y="300" type="curve" smooth="yes"/>
      <point x="577.538" y="297.795"/>
      <point x="551.983" y="306"/>
      <point x="531.224" y="306" type="curve" smooth="yes"/>
      <point x="472.219" y="307.52"/>
      <point x="415.065" y="286.324"/>
      <point x="357.224" y="291" type="curve" smooth="yes"/>
      <point x="322.484" y="293.809"/>
      <point x="267.224" y="295.373"/>
      <point x="267.224" y="342" type="curve" smooth="yes"/>
      <point x="267.224" y="352.262"/>
      <point x="270.224" y="363.464"/>
      <point x="270.224" y="372" type="curve" smooth="yes"/>
      <point x="270.224" y="377.945"/>
      <point x="255.24" y="375"/>
      <point x="252.224" y="375" type="curve" smooth="yes"/>
      <point x="211.793" y="375"/>
      <point x="195.224" y="345.575"/>
      <point x="195.224" y="312" type="curve" smooth="yes"/>
      <point x="195.224" y="279.162"/>
      <point x="177.782" y="273"/>
      <point x="144.224" y="273" type="curve" smooth="yes"/>
      <point x="64.2734" y="277.424"/>
      <point x="50.9365" y="386.314"/>
      <point x="54.2236" y="453" type="curve" smooth="yes"/>
      <point x="56.2607" y="494.322"/>
      <point x="67.8438" y="555"/>
      <point x="120.224" y="555" type="curve"/>
      <point x="137.521" y="559.304"/>
      <point x="142.803" y="538.414"/>
      <point x="153.224" y="528" type="curve" smooth="yes"/>
      <point x="162.185" y="519.046"/>
      <point x="171.224" y="490.809"/>
      <point x="171.224" y="480" type="curve"/>
    </contour>
    <contour>
      <point x="74.5234" y="411.584" type="curve"/>
      <point x="150.008" y="487.067" type="line"/>
      <point x="147.646" y="496.614"/>
      <point x="140.688" y="511.998"/>
      <point x="139.374" y="513.519" type="curve" smooth="yes"/>
      <point x="129.74" y="523.715"/>
      <point x="125.647" y="531.59"/>
      <point x="122.675" y="535" type="curve" smooth="yes"/>
      <point x="120.224" y="535" type="line" smooth="yes"/>
      <point x="78.3564" y="535"/>
      <point x="71.043" y="466.089"/>
    </contour>
    <contour>
      <point x="76.3867" y="392.195" type="line"/>
      <point x="83.6582" y="336.691"/>
      <point x="104.334" y="295.671"/>
      <point x="144.803" y="293.001" type="curve" smooth="yes"/>
      <point x="175.165" y="293.127"/>
      <point x="175.224" y="293.229"/>
      <point x="175.224" y="312.001" type="curve" smooth="yes"/>
      <point x="175.224" y="351.555"/>
      <point x="197.023" y="394.294"/>
      <point x="251.744" y="395.004" type="curve"/>
      <point x="251.744" y="395.004"/>
      <point x="290.225" y="408.796"/>
      <point x="290.225" y="372.002" type="curve" smooth="yes"/>
      <point x="290.225" y="359.219"/>
      <point x="287.225" y="348.698"/>
      <point x="287.225" y="342.001" type="curve" smooth="yes"/>
      <point x="287.225" y="317.972"/>
      <point x="316.538" y="314.355"/>
      <point x="358.837" y="310.936" type="curve" smooth="yes"/>
      <point x="410.66" y="306.746"/>
      <point x="467.88" y="327.639"/>
      <point x="531.482" y="326.001" type="curve" smooth="yes"/>
      <point x="556.46" y="326.001"/>
      <point x="581.979" y="318.418"/>
      <point x="594.998" y="319.876" type="curve" smooth="yes"/>
      <point x="715.888" y="333.415"/>
      <point x="745.495" y="204.821"/>
      <point x="832.035" y="224" type="curve"/>
      <point x="834.225" y="224" type="line" smooth="yes"/>
      <point x="898.455" y="224"/>
      <point x="924.603" y="241.617"/>
      <point x="925.219" y="313.348" type="curve"/>
      <point x="907.854" y="317.799"/>
      <point x="845.238" y="301"/>
      <point x="801.225" y="301" type="curve" smooth="yes"/>
      <point x="667.336" y="301"/>
      <point x="617.433" y="487"/>
      <point x="522.225" y="487" type="curve" smooth="yes"/>
      <point x="415.963" y="487"/>
      <point x="309.403" y="440.203"/>
      <point x="196.046" y="439.019" type="curve"/>
    </contour>
  </outline>
</glyph>
<glyph name="parenright" format="1">
  <advance width="931"/>
  <unicode hex="0029"/>
  <outline>
    <contour>
      <point x="290.294" y="165" type="curve" smooth="yes"/>
      <point x="272.743" y="160.294"/>
      <point x="251.021" y="157.466"/>
      <point x="230.294" y="159" type="curve" smooth="yes"/>
      <point x="145.262" y="165.292"/>
      <point x="71.2939" y="213.616"/>
      <point x="71.2939" y="306" type="curve" smooth="yes"/>
      <point x="70.0957" y="340.311"/>
      <point x="130.558" y="316.121"/>
      <point x="152.294" y="324" type="curve" smooth="yes"/>
      <point x="170.2" y="330.49"/>
      <point x="182.294" y="307.568"/>
      <point x="182.294" y="330" type="curve" smooth="yes"/>
      <point x="177.316" y="383.147"/>
      <point x="145.765" y="435.456"/>
      <point x="101.294" y="462" type="curve" smooth="yes"/>
      <point x="38.291" y="499.605"/>
      <point x="59.4092" y="595.869"/>
      <point x="53.2939" y="660" type="curve" smooth="yes"/>
      <point x="49.5762" y="698.983"/>
      <point x="57.7451" y="774"/>
      <point x="107.294" y="774" type="curve" smooth="yes"/>
      <point x="252.079" y="774"/>
      <point x="391.18" y="681"/>
      <point x="536.294" y="681" type="curve" smooth="yes"/>
      <point x="577.557" y="681"/>
      <point x="616.105" y="696"/>
      <point x="656.294" y="696" type="curve"/>
      <point x="689.433" y="702.973"/>
      <point x="708.337" y="667.892"/>
      <point x="734.294" y="651" type="curve"/>
      <point x="785.461" y="598.606"/>
      <point x="883.442" y="563.312"/>
      <point x="878.294" y="474" type="curve" smooth="yes"/>
      <point x="873.913" y="398.005"/>
      <point x="853.418" y="411"/>
      <point x="761.294" y="411" type="curve" smooth="yes"/>
      <point x="700.249" y="411"/>
      <point x="646.936" y="438"/>
      <point x="587.294" y="438" type="curve" smooth="yes"/>
      <point x="563.593" y="438"/>
      <point x="542.294" y="429.296"/>
      <point x="542.294" y="405" type="curve" smooth="yes"/>
      <point x="540.956" y="389.665"/>
      <point x="556.207" y="383.615"/>
      <point x="566.294" y="375" type="curve"/>
      <point x="607.172" y="363.472"/>
      <point x="610.405" y="302.13"/>
      <point x="596.294" y="267" type="curve"/>
      <point x="571.465" y="235.03"/>
      <point x="524.685" y="220.783"/>
      <point x="533.294" y="177" type="curve" smooth="yes"/>
      <point x="539.871" y="143.549"/>
      <point x="513.696" y="123"/>
      <point x="485.294" y="123" type="curve" smooth="yes"/>
      <point x="470.948" y="123"/>
      <point x="461.784" y="120.972"/>
      <point x="452.294" y="129" type="curve" smooth="yes"/>
      <point x="416.081" y="159.634"/>
      <point x="381.544" y="189.467"/>
    </contour>
    <contour>
      <point x="285.114" y="184.317" type="curve" smooth="yes"/>
      <point x="383.321" y="210.649"/>
      <point x="428.118" y="175.644"/>
      <point x="465.209" y="144.267" type="curve" smooth="yes"/>
      <point x="467.245" y="142.544"/>
      <point x="467.047" y="142.997"/>
      <point x="485.292" y="142.997" type="curve" smooth="yes"/>
      <point x="505.381" y="142.997"/>
      <point x="517.14" y="155.481"/>
      <point x="513.668" y="173.139" type="curve" smooth="yes"/>
      <point x="502.212" y="231.397"/>
      <point x="561.704" y="256.991"/>
      <point x="578.723" y="277.074" type="curve"/>
      <point x="590.157" y="309.821"/>
      <point x="581.045" y="350.058"/>
      <point x="560.863" y="355.749" type="curve" smooth="yes"/>
      <point x="556.64" y="356.94" type="line" smooth="yes"/>
      <point x="550.877" y="361.862"/>
      <point x="520.937" y="371.085"/>
      <point x="522.312" y="406.574" type="curve" smooth="yes"/>
      <point x="523.263" y="445.69"/>
      <point x="560.31" y="457.998"/>
      <point x="587.292" y="457.998" type="curve" smooth="yes"/>
      <point x="653.157" y="457.998"/>
      <point x="706.326" y="430.998"/>
      <point x="761.293" y="430.998" type="curve" smooth="yes"/>
      <point x="859.302" y="430.998"/>
      <point x="854.792" y="413.846"/>
      <point x="858.326" y="475.149" type="curve" smooth="yes"/>
      <point x="862.538" y="548.217"/>
      <point x="782.078" y="575.209"/>
      <point x="721.482" y="635.505" type="curve"/>
      <point x="686.679" y="659.372"/>
      <point x="678.558" y="680.245"/>
      <point x="658.374" y="675.998" type="curve"/>
      <point x="656.293" y="675.998" type="line" smooth="yes"/>
      <point x="621.13" y="675.998"/>
      <point x="582.45" y="660.998"/>
      <point x="536.294" y="660.998" type="curve" smooth="yes"/>
      <point x="382.816" y="660.998"/>
      <point x="243.697" y="753.998"/>
      <point x="107.295" y="753.998" type="curve" smooth="yes"/>
      <point x="83.4639" y="753.998"/>
      <point x="68.8877" y="707.161"/>
      <point x="73.2041" y="661.896" type="curve" smooth="yes"/>
      <point x="80.2568" y="587.938"/>
      <point x="63.165" y="508.049"/>
      <point x="111.545" y="479.172" type="curve" smooth="yes"/>
      <point x="162.539" y="448.734"/>
      <point x="196.672" y="390.961"/>
      <point x="202.294" y="330.934" type="curve"/>
      <point x="202.294" y="329.999" type="line" smooth="yes"/>
      <point x="202.294" y="324.643"/>
      <point x="200.406" y="299.121"/>
      <point x="177.356" y="299.922" type="curve" smooth="yes"/>
      <point x="160.262" y="300.516"/>
      <point x="160.684" y="305.18"/>
      <point x="159.108" y="305.196" type="curve" smooth="yes"/>
      <point x="134.275" y="296.195"/>
      <point x="103.245" y="306.439"/>
      <point x="91.2988" y="304.622" type="curve"/>
      <point x="92.1982" y="227.443"/>
      <point x="152.486" y="184.812"/>
      <point x="231.77" y="178.945" type="curve" smooth="yes"/>
      <point x="249.701" y="177.618"/>
      <point x="269.566" y="180.148"/>
    </contour>
  </outline>
</glyph>
<glyph name="asterisk" format="1">
  <advance width="988"/>
  <unicode hex="002A"/>
  <outline>
    <contour>
      <point x="102.5" y="309" type="line" smooth="yes"/>
      <point x="107.688" y="309"/>
      <point x="134.4" y="273.802"/>
      <point x="141.5" y="273" type="curve" smooth="yes"/>
      <point x="228.389" y="263.182"/>
      <point x="350.202" y="307.925"/>
      <point x="333.5" y="414" type="curve" smooth="yes"/>
      <point x="304.536" y="597.947"/>
      <point x="669.82" y="762"/>
      <point x="822.5" y="762" type="curve" smooth="yes"/>
      <point x="883.533" y="762"/>
      <point x="939.5" y="729.966"/>
      <point x="939.5" y="666" type="curve" smooth="yes"/>
      <point x="939.5" y="624.192"/>
      <point x="898.276" y="594.478"/>
      <point x="858.5" y="591" type="curve" smooth="yes"/>
      <point x="819.012" y="587.548"/>
      <point x="768.5" y="558.801"/>
      <point x="768.5" y="519" type="curve" smooth="yes"/>
      <point x="768.5" y="490.869"/>
      <point x="783.5" y="468.023"/>
      <point x="783.5" y="441" type="curve" smooth="yes"/>
      <point x="793.099" y="347.504"/>
      <point x="713.812" y="282.465"/>
      <point x="696.5" y="198" type="curve" smooth="yes"/>
      <point x="677.348" y="104.559"/>
      <point x="673.12" y="66"/>
      <point x="573.5" y="66" type="curve" smooth="yes"/>
      <point x="519.924" y="66"/>
      <point x="498.179" y="123"/>
      <point x="444.5" y="123" type="curve" smooth="yes"/>
      <point x="393.069" y="125.034"/>
      <point x="355.438" y="93.0137"/>
      <point x="318.5" y="63" type="curve"/>
      <point x="300.884" y="54.916"/>
      <point x="288.275" y="43.6582"/>
      <point x="267.5" y="45" type="curve"/>
      <point x="222.824" y="35.874"/>
      <point x="192.349" y="59.5879"/>
      <point x="156.5" y="72" type="curve" smooth="yes"/>
      <point x="128.005" y="81.8652"/>
      <point x="117.095" y="103.314"/>
      <point x="123.5" y="132" type="curve" smooth="yes"/>
      <point x="136.989" y="192.409"/>
      <point x="48.5" y="200.773"/>
      <point x="48.5" y="258" type="curve" smooth="yes"/>
      <point x="48.5" y="280.605"/>
      <point x="62.4854" y="288.302"/>
      <point x="69.5" y="303" type="curve"/>
    </contour>
    <contour>
      <point x="97.2539" y="287.719" type="curve"/>
      <point x="82.0996" y="284.964" type="line"/>
      <point x="72.9209" y="271.476"/>
      <point x="68.5" y="268.859"/>
      <point x="68.5" y="258.001" type="curve" smooth="yes"/>
      <point x="68.5" y="229.892"/>
      <point x="160.26" y="204.852"/>
      <point x="143.02" y="127.643" type="curve" smooth="yes"/>
      <point x="138.489" y="107.356"/>
      <point x="143.519" y="97.6602"/>
      <point x="163.042" y="90.9004" type="curve" smooth="yes"/>
      <point x="206.169" y="75.9688"/>
      <point x="227.991" y="57.3438"/>
      <point x="266.118" y="65.1318" type="curve"/>
      <point x="281.52" y="64.1367"/>
      <point x="284.63" y="68.7305"/>
      <point x="307.783" y="80.0635" type="curve"/>
      <point x="342.569" y="108.365"/>
      <point x="384.221" y="144.867"/>
      <point x="444.755" y="143.006" type="curve" smooth="yes"/>
      <point x="514.222" y="142.008"/>
      <point x="536.024" y="86"/>
      <point x="573.499" y="86" type="curve" smooth="yes"/>
      <point x="661.056" y="86"/>
      <point x="657.48" y="107.24"/>
      <point x="676.906" y="202.017" type="curve" smooth="yes"/>
      <point x="696.738" y="298.779"/>
      <point x="772.043" y="356.749"/>
      <point x="763.499" y="439.977" type="curve"/>
      <point x="763.499" y="441.001" type="line" smooth="yes"/>
      <point x="763.499" y="460.228"/>
      <point x="748.499" y="483.48"/>
      <point x="748.499" y="519.001" type="curve" smooth="yes"/>
      <point x="748.499" y="576.387"/>
      <point x="813.479" y="607.142"/>
      <point x="856.758" y="610.925" type="curve" smooth="yes"/>
      <point x="890.011" y="613.832"/>
      <point x="919.5" y="638.602"/>
      <point x="919.5" y="666" type="curve" smooth="yes"/>
      <point x="919.5" y="714.729"/>
      <point x="877.99" y="742"/>
      <point x="822.5" y="742" type="curve" smooth="yes"/>
      <point x="678.6" y="742"/>
      <point x="351.502" y="588.13"/>
      <point x="351.873" y="434.51" type="curve" smooth="yes"/>
      <point x="351.887" y="428.734"/>
      <point x="352.338" y="422.943"/>
      <point x="353.256" y="417.11" type="curve" smooth="yes"/>
      <point x="368.883" y="317.862"/>
      <point x="281.956" y="266.62"/>
      <point x="205.09" y="254.743" type="curve" smooth="yes"/>
      <point x="182.751" y="251.292"/>
      <point x="160.286" y="250.75"/>
      <point x="139.254" y="253.127" type="curve" smooth="yes"/>
      <point x="116.109" y="255.74"/>
      <point x="105.442" y="279.292"/>
    </contour>
  </outline>
</glyph>
<glyph name="plus" format="1">
  <advance width="908"/>
  <unicode hex="002B"/>
  <outline>
    <contour>
      <point x="112" y="213" type="line"/>
      <point x="52" y="291" type="line"/>
      <point x="52" y="318" type="line"/>
      <point x="72.1807" y="329.027"/>
      <point x="55" y="389"/>
      <point x="73" y="429" type="curve" smooth="yes"/>
      <point x="105" y="498"/>
      <point x="103.464" y="582.086"/>
      <point x="178" y="594" type="curve" smooth="yes"/>
      <point x="197.115" y="597.056"/>
      <point x="203.948" y="591.796"/>
      <point x="214" y="576" type="curve" smooth="yes"/>
      <point x="234.067" y="544.466"/>
      <point x="274.058" y="462"/>
      <point x="319" y="462" type="curve" smooth="yes"/>
      <point x="341.722" y="458.598"/>
      <point x="358.97" y="472.51"/>
      <point x="379" y="477" type="curve"/>
      <point x="406.269" y="494.193"/>
      <point x="436.761" y="516.399"/>
      <point x="472" y="528" type="curve" smooth="yes"/>
      <point x="545.72" y="552.27"/>
      <point x="607.106" y="582"/>
      <point x="694" y="582" type="curve" smooth="yes"/>
      <point x="767.681" y="582"/>
      <point x="856" y="543.149"/>
      <point x="856" y="462" type="curve"/>
      <point x="845.818" y="420.409"/>
      <point x="773.425" y="449.057"/>
      <point x="742" y="444" type="curve" smooth="yes"/>
      <point x="675.474" y="433.295"/>
      <point x="603.014" y="459"/>
      <point x="538" y="459" type="curve" smooth="yes"/>
      <point x="518.539" y="459"/>
      <point x="514" y="447.967"/>
      <point x="514" y="429" type="curve" smooth="yes"/>
      <point x="512.717" y="402.586"/>
      <point x="546.958" y="393.354"/>
      <point x="559" y="372" type="curve" smooth="yes"/>
      <point x="593.275" y="306.579"/>
      <point x="695.165" y="321.755"/>
      <point x="724" y="252" type="curve" smooth="yes"/>
      <point x="733.096" y="229.997"/>
      <point x="742" y="222.675"/>
      <point x="742" y="201" type="curve" smooth="yes"/>
      <point x="742" y="173.977"/>
      <point x="718.776" y="156"/>
      <point x="694" y="156" type="curve" smooth="yes"/>
      <point x="641.487" y="156"/>
      <point x="604.612" y="273"/>
      <point x="535" y="273" type="curve" smooth="yes"/>
      <point x="420.872" y="273"/>
      <point x="319.414" y="171"/>
      <point x="193" y="171" type="curve" smooth="yes"/>
      <point x="156.835" y="171"/>
      <point x="151" y="207.481"/>
      <point x="151" y="237" type="curve" smooth="yes"/>
      <point x="151" y="252.357"/>
      <point x="162.152" y="264"/>
      <point x="178" y="264" type="curve" smooth="yes"/>
      <point x="226" y="264" type="line" smooth="yes"/>
      <point x="266.133" y="264"/>
      <point x="298" y="285.794"/>
      <point x="298" y="330" type="curve"/>
      <point x="308.079" y="372.499"/>
      <point x="265.058" y="376.998"/>
      <point x="238" y="387" type="curve" smooth="yes"/>
      <point x="214.815" y="395.57"/>
      <point x="187" y="382.344"/>
      <point x="187" y="414" type="curve" smooth="yes"/>
      <point x="187" y="431.786"/>
      <point x="205" y="437.887"/>
      <point x="205" y="453" type="curve" smooth="yes"/>
      <point x="205" y="471.795"/>
      <point x="184.932" y="486"/>
      <point x="169" y="486" type="curve" smooth="yes"/>
      <point x="153.523" y="486"/>
      <point x="106" y="420.179"/>
      <point x="106" y="402" type="curve"/>
      <point x="114.758" y="391.041"/>
      <point x="134.77" y="390.404"/>
      <point x="151" y="384" type="curve" smooth="yes"/>
      <point x="170.845" y="376.17"/>
      <point x="196" y="374.569"/>
      <point x="196" y="348" type="curve" smooth="yes"/>
      <point x="196" y="322.989"/>
      <point x="165.517" y="315.064"/>
      <point x="154" y="303" type="curve" smooth="yes"/>
      <point x="109" y="255" type="line"/>
    </contour>
    <contour>
      <point x="178" y="244" type="line" smooth="yes"/>
      <point x="172.926" y="244"/>
      <point x="171" y="241.801"/>
      <point x="171" y="236.998" type="curve" smooth="yes"/>
      <point x="171" y="205.406"/>
      <point x="177.12" y="190.998"/>
      <point x="193" y="190.998" type="curve" smooth="yes"/>
      <point x="308.704" y="190.998"/>
      <point x="409.041" y="292.998"/>
      <point x="535" y="292.998" type="curve" smooth="yes"/>
      <point x="623.974" y="292.998"/>
      <point x="665.796" y="175.998"/>
      <point x="694.001" y="175.998" type="curve" smooth="yes"/>
      <point x="709.844" y="175.998"/>
      <point x="722.001" y="186.899"/>
      <point x="722.001" y="200.998" type="curve" smooth="yes"/>
      <point x="722.001" y="215.886"/>
      <point x="716.597" y="217.558"/>
      <point x="705.518" y="244.357" type="curve" smooth="yes"/>
      <point x="683.438" y="297.772"/>
      <point x="584.693" y="279.863"/>
      <point x="541.428" y="362.443" type="curve" smooth="yes"/>
      <point x="538.339" y="367.921"/>
      <point x="493.328" y="384.559"/>
      <point x="494.018" y="431.468" type="curve" smooth="yes"/>
      <point x="494.085" y="438.778"/>
      <point x="495.27" y="457.041"/>
      <point x="507.252" y="468.293" type="curve" smooth="yes"/>
      <point x="515.869" y="476.385"/>
      <point x="527.224" y="478.997"/>
      <point x="538" y="478.997" type="curve" smooth="yes"/>
      <point x="608.252" y="478.997"/>
      <point x="679.067" y="454.128"/>
      <point x="738.822" y="463.743" type="curve" smooth="yes"/>
      <point x="788.542" y="471.743"/>
      <point x="829.277" y="450.563"/>
      <point x="835.956" y="464.857" type="curve"/>
      <point x="833.887" y="525.495"/>
      <point x="763.825" y="561.997"/>
      <point x="694.001" y="561.997" type="curve" smooth="yes"/>
      <point x="611.916" y="561.997"/>
      <point x="553.855" y="533.889"/>
      <point x="478.254" y="509" type="curve" smooth="yes"/>
      <point x="445.842" y="498.33"/>
      <point x="415.687" y="476.485"/>
      <point x="386.745" y="458.237" type="curve"/>
      <point x="371.672" y="454.858"/>
      <point x="350.713" y="437.804"/>
      <point x="317.573" y="442.006" type="curve" smooth="yes"/>
      <point x="254.1" y="444.76"/>
      <point x="213.974" y="538.785"/>
      <point x="197.126" y="565.261" type="curve" smooth="yes"/>
      <point x="188.837" y="578.287"/>
      <point x="192.952" y="576.135"/>
      <point x="181.156" y="574.249" type="curve" smooth="yes"/>
      <point x="127.678" y="565.701"/>
      <point x="127.24" y="509.021"/>
      <point x="96.7725" y="433.596" type="curve"/>
      <point x="110.649" y="458.582"/>
      <point x="137.286" y="505.999"/>
      <point x="168.999" y="505.999" type="curve" smooth="yes"/>
      <point x="193.662" y="505.999"/>
      <point x="224.999" y="486.256"/>
      <point x="224.999" y="452.999" type="curve" smooth="yes"/>
      <point x="224.999" y="419.782"/>
      <point x="206.999" y="416.475"/>
      <point x="206.999" y="413.999" type="curve" smooth="yes"/>
      <point x="206.999" y="412.956"/>
      <point x="206.985" y="413.099"/>
      <point x="207.101" y="411.567" type="curve" smooth="yes"/>
      <point x="212.328" y="410.699"/>
      <point x="227.944" y="412.039"/>
      <point x="244.934" y="405.759" type="curve" smooth="yes"/>
      <point x="261.363" y="399.686"/>
      <point x="330.471" y="390.369"/>
      <point x="317.976" y="327.69" type="curve"/>
      <point x="316.749" y="273.363"/>
      <point x="273.645" y="244"/>
      <point x="226" y="244" type="curve" smooth="yes"/>
    </contour>
    <contour>
      <point x="86" y="402.562" type="line"/>
      <point x="81.5068" y="375.219"/>
      <point x="92.1826" y="335.774"/>
      <point x="72" y="309.329" type="curve"/>
      <point x="72" y="297.801" type="line"/>
      <point x="94.4053" y="268.674" type="line"/>
      <point x="139.471" y="316.743" type="line" smooth="yes"/>
      <point x="161.765" y="340.098"/>
      <point x="176" y="338.198"/>
      <point x="176" y="347.998" type="curve" smooth="yes"/>
      <point x="176" y="359.202"/>
      <point x="157.373" y="359.982"/>
      <point x="143.659" y="365.394" type="curve" smooth="yes"/>
      <point x="133.707" y="369.32"/>
      <point x="107.089" y="368.599"/>
      <point x="90.376" y="389.513" type="curve" smooth="yes"/>
      <point x="86" y="394.988" type="line"/>
    </contour>
  </outline>
</glyph>
<glyph name="hyphen" format="1">
  <advance width="996"/>
  <unicode hex="002D"/>
  <outline>
    <contour>
      <point x="835.495" y="471" type="curve" smooth="yes"/>
      <point x="916.495" y="441" type="line"/>
      <point x="943.274" y="424.053"/>
      <point x="945.736" y="410.03"/>
      <point x="946.495" y="375" type="curve" smooth="yes"/>
      <point x="947.527" y="327.329"/>
      <point x="868.259" y="320.178"/>
      <point x="892.495" y="258" type="curve"/>
      <point x="892.495" y="230.567"/>
      <point x="895.435" y="203.767"/>
      <point x="901.495" y="177" type="curve" smooth="yes"/>
      <point x="912.562" y="128.123"/>
      <point x="878.373" y="81.8711"/>
      <point x="826.495" y="99" type="curve"/>
      <point x="765.619" y="99"/>
      <point x="729.868" y="165"/>
      <point x="652.495" y="165" type="curve" smooth="yes"/>
      <point x="520.566" y="165"/>
      <point x="413.972" y="98.6396"/>
      <point x="280.495" y="111" type="curve" smooth="yes"/>
      <point x="246.631" y="114.136"/>
      <point x="181.557" y="95.1484"/>
      <point x="184.495" y="147" type="curve" smooth="yes"/>
      <point x="184.495" y="242.237"/>
      <point x="370.495" y="175.459"/>
      <point x="370.495" y="282" type="curve" smooth="yes"/>
      <point x="370.495" y="289.497"/>
      <point x="362.94" y="318"/>
      <point x="352.495" y="318" type="curve" smooth="yes"/>
      <point x="316.495" y="318" type="line" smooth="yes"/>
      <point x="274.516" y="318"/>
      <point x="49.4951" y="370.221"/>
      <point x="49.4951" y="420" type="curve" smooth="yes"/>
      <point x="49.4951" y="474.979"/>
      <point x="98.667" y="515.441"/>
      <point x="154.495" y="516" type="curve" smooth="yes"/>
      <point x="235.339" y="516.809"/>
      <point x="247.518" y="660.623"/>
      <point x="355.495" y="621" type="curve"/>
      <point x="431.67" y="621"/>
      <point x="464.663" y="513"/>
      <point x="556.495" y="513" type="curve" smooth="yes"/>
      <point x="605.005" y="513"/>
      <point x="593.836" y="627"/>
      <point x="688.495" y="627" type="curve" smooth="yes"/>
      <point x="755.217" y="627"/>
      <point x="767.616" y="496.141"/>
    </contour>
    <contour>
      <point x="829.712" y="119" type="line"/>
      <point x="865.183" y="107.288"/>
      <point x="891.23" y="131.77"/>
      <point x="881.989" y="172.586" type="curve" smooth="yes"/>
      <point x="875.797" y="199.935"/>
      <point x="872.819" y="225.405"/>
      <point x="872.512" y="254.391" type="curve"/>
      <point x="848.23" y="326.484"/>
      <point x="926.809" y="360.326"/>
      <point x="926.5" y="374.569" type="curve" smooth="yes"/>
      <point x="925.774" y="408.067"/>
      <point x="926.468" y="410.314"/>
      <point x="907.512" y="423.002" type="curve"/>
      <point x="828.549" y="452.247" type="line" smooth="yes"/>
      <point x="735.8" y="486.599"/>
      <point x="737.335" y="607.002"/>
      <point x="688.495" y="607.002" type="curve" smooth="yes"/>
      <point x="611.232" y="607.002"/>
      <point x="637.235" y="493.002"/>
      <point x="556.495" y="493.002" type="curve" smooth="yes"/>
      <point x="447.868" y="493.002"/>
      <point x="411.545" y="601.002"/>
      <point x="355.495" y="601.002" type="curve" smooth="yes"/>
      <point x="351.941" y="601.002" type="line"/>
      <point x="250.051" y="638.392"/>
      <point x="273.814" y="497.194"/>
      <point x="154.695" y="496.003" type="curve" smooth="yes"/>
      <point x="107.868" y="495.534"/>
      <point x="69.9111" y="462.438"/>
      <point x="69.4961" y="420.443" type="curve"/>
      <point x="81.8848" y="392.701"/>
      <point x="277.429" y="338.001"/>
      <point x="316.495" y="338.001" type="curve" smooth="yes"/>
      <point x="352.495" y="338.001" type="line" smooth="yes"/>
      <point x="389.61" y="338.001"/>
      <point x="390.495" y="286.842"/>
      <point x="390.495" y="282.001" type="curve" smooth="yes"/>
      <point x="390.495" y="148.088"/>
      <point x="204.495" y="212.296"/>
      <point x="204.495" y="147" type="curve" smooth="yes"/>
      <point x="204.495" y="146.434" type="line" smooth="yes"/>
      <point x="203.775" y="133.736"/>
      <point x="205.096" y="131.271"/>
      <point x="225.764" y="130.244" type="curve" smooth="yes"/>
      <point x="242.018" y="129.438"/>
      <point x="263.178" y="132.689"/>
      <point x="282.339" y="130.915" type="curve" smooth="yes"/>
      <point x="407.996" y="119.278"/>
      <point x="513.13" y="185"/>
      <point x="652.495" y="185" type="curve" smooth="yes"/>
      <point x="742.379" y="185"/>
      <point x="781.564" y="119"/>
      <point x="826.495" y="119" type="curve" smooth="yes"/>
    </contour>
  </outline>
</glyph>
<glyph name="period" format="1">
  <advance width="962"/>
  <unicode hex="002E"/>
  <outline>
    <contour>
      <point x="56.9863" y="398.908" type="line"/>
      <point x="119.022" y="426.365"/>
      <point x="307.885" y="639"/>
      <point x="481" y="639" type="curve" smooth="yes"/>
      <point x="578.212" y="639"/>
      <point x="916" y="450.885"/>
      <point x="916" y="330" type="curve" smooth="yes"/>
      <point x="916" y="241.375"/>
      <point x="834.586" y="276"/>
      <point x="760" y="276" type="curve" smooth="yes"/>
      <point x="697.136" y="276"/>
      <point x="642.373" y="300"/>
      <point x="583" y="300" type="curve"/>
      <point x="520.674" y="236.023"/>
      <point x="480.609" y="143.351"/>
      <point x="361" y="165" type="curve" smooth="yes"/>
      <point x="252.734" y="184.597"/>
      <point x="106" y="123.106"/>
      <point x="106" y="315" type="curve" smooth="yes"/>
      <point x="106" y="337.378"/>
      <point x="149.22" y="351"/>
      <point x="169" y="351" type="curve" smooth="yes"/>
      <point x="210.136" y="347.014"/>
      <point x="249.431" y="359.708"/>
      <point x="292" y="360" type="curve" smooth="yes"/>
      <point x="313.59" y="360.148"/>
      <point x="337.304" y="363"/>
      <point x="361" y="363" type="curve" smooth="yes"/>
      <point x="379.957" y="363"/>
      <point x="409" y="385.444"/>
      <point x="409" y="405" type="curve" smooth="yes"/>
      <point x="409" y="415.809"/>
      <point x="379.606" y="447"/>
      <point x="367" y="447" type="curve" smooth="yes"/>
      <point x="349" y="447" type="line" smooth="yes"/>
      <point x="329.668" y="447"/>
      <point x="298" y="471.406"/>
      <point x="298" y="486" type="curve" smooth="yes"/>
      <point x="297.457" y="524.859"/>
      <point x="353.322" y="499.812"/>
      <point x="379" y="507" type="curve" smooth="yes"/>
      <point x="444.263" y="525.269"/>
      <point x="468" y="453"/>
      <point x="532" y="450" type="curve" smooth="yes"/>
      <point x="572" y="448"/>
      <point x="645.659" y="489.463"/>
      <point x="625" y="495" type="curve" smooth="yes"/>
      <point x="560.887" y="512.183"/>
      <point x="502.677" y="565.16"/>
      <point x="436" y="564" type="curve" smooth="yes"/>
      <point x="283.364" y="561.344"/>
      <point x="256.936" y="491.828"/>
      <point x="148" y="423" type="curve"/>
    </contour>
    <contour>
      <point x="56.9863" y="398.908" type="curve" smooth="yes"/>
      <point x="52.7041" y="397.013"/>
      <point x="49.0264" y="396"/>
      <point x="46" y="396" type="curve" smooth="yes"/>
      <point x="46" y="396"/>
      <point x="56.9863" y="398.908"/>
    </contour>
    <contour>
      <point x="304.796" y="557.701" type="curve"/>
      <point x="337.788" y="572.822"/>
      <point x="379.849" y="583.023"/>
      <point x="435.657" y="583.995" type="curve" smooth="yes"/>
      <point x="512.312" y="585.329"/>
      <point x="573.721" y="529.448"/>
      <point x="630.182" y="514.316" type="curve" smooth="yes"/>
      <point x="639.041" y="511.942"/>
      <point x="652.019" y="499.483"/>
      <point x="647.55" y="484.686" type="curve" smooth="yes"/>
      <point x="638.286" y="454.014"/>
      <point x="570.324" y="428.059"/>
      <point x="531.006" y="430.024" type="curve" smooth="yes"/>
      <point x="445.151" y="434.049"/>
      <point x="435.696" y="502.1"/>
      <point x="384.396" y="487.739" type="curve" smooth="yes"/>
      <point x="357.994" y="480.35"/>
      <point x="328.081" y="490.04"/>
      <point x="317.936" y="487.726" type="curve"/>
      <point x="322.121" y="480.524"/>
      <point x="343.279" y="466.999"/>
      <point x="349.003" y="466.999" type="curve" smooth="yes"/>
      <point x="367.003" y="466.999" type="line" smooth="yes"/>
      <point x="394.742" y="466.999"/>
      <point x="429.003" y="430.472"/>
      <point x="429.003" y="404.999" type="curve" smooth="yes"/>
      <point x="429.003" y="370.114"/>
      <point x="389.621" y="342.999"/>
      <point x="361.003" y="342.999" type="curve" smooth="yes"/>
      <point x="338.872" y="342.999"/>
      <point x="315.353" y="340.159"/>
      <point x="292.14" y="340" type="curve" smooth="yes"/>
      <point x="253.957" y="339.738"/>
      <point x="214.187" y="326.829"/>
      <point x="168.202" y="330.987" type="curve" smooth="yes"/>
      <point x="155.788" y="330.611"/>
      <point x="129.595" y="320.104"/>
      <point x="126.001" y="314.439" type="curve" smooth="yes"/>
      <point x="126.61" y="143.942"/>
      <point x="239.539" y="207.311"/>
      <point x="364.563" y="184.681" type="curve" smooth="yes"/>
      <point x="471.825" y="165.267"/>
      <point x="505.727" y="249.342"/>
      <point x="574.563" y="320.001" type="curve"/>
      <point x="583.001" y="320.001" type="line" smooth="yes"/>
      <point x="647.925" y="320.001"/>
      <point x="702.375" y="296.001"/>
      <point x="760.001" y="296.001" type="curve" smooth="yes"/>
      <point x="851.392" y="296.001"/>
      <point x="896.001" y="266.563"/>
      <point x="896.001" y="330.001" type="curve" smooth="yes"/>
      <point x="896.001" y="428.931"/>
      <point x="571.91" y="619.001"/>
      <point x="481.001" y="619.001" type="curve" smooth="yes"/>
      <point x="424.467" y="619.001"/>
      <point x="363.326" y="593.524"/>
    </contour>
  </outline>
</glyph>
<glyph name="slash" format="1">
  <advance width="1286"/>
  <unicode hex="002F"/>
  <outline>
    <contour>
      <point x="223.758" y="483" type="line"/>
      <point x="298.758" y="507" type="line"/>
      <point x="409.701" y="577.887"/>
      <point x="508.349" y="654.743"/>
      <point x="655.758" y="621" type="curve"/>
      <point x="921.136" y="683.43"/>
      <point x="1089.99" y="537.44"/>
      <point x="1213.76" y="333" type="curve" smooth="yes"/>
      <point x="1228.56" y="308.544"/>
      <point x="1237.76" y="309.64"/>
      <point x="1237.76" y="279" type="curve" smooth="yes"/>
      <point x="1237.76" y="215.927"/>
      <point x="1130.18" y="159"/>
      <point x="1075.76" y="159" type="curve" smooth="yes"/>
      <point x="972.739" y="159"/>
      <point x="913.166" y="303"/>
      <point x="790.758" y="303" type="curve" smooth="yes"/>
      <point x="647.054" y="303"/>
      <point x="525.992" y="207"/>
      <point x="382.758" y="207" type="curve" smooth="yes"/>
      <point x="336.945" y="207"/>
      <point x="343.758" y="272.895"/>
      <point x="343.758" y="306" type="curve" smooth="yes"/>
      <point x="343.758" y="395.372"/>
      <point x="431.528" y="414"/>
      <point x="505.758" y="414" type="curve" smooth="yes"/>
      <point x="624.42" y="414"/>
      <point x="740.829" y="380.105"/>
      <point x="862.758" y="390" type="curve" smooth="yes"/>
      <point x="878.746" y="391.298"/>
      <point x="964.758" y="379.6"/>
      <point x="964.758" y="399" type="curve" smooth="yes"/>
      <point x="964.758" y="472.237"/>
      <point x="681.238" y="474"/>
      <point x="628.758" y="474" type="curve" smooth="yes"/>
      <point x="595.021" y="474"/>
      <point x="298.758" y="488.65"/>
      <point x="298.758" y="429" type="curve" smooth="yes"/>
      <point x="295.268" y="399.231"/>
      <point x="317.161" y="376.852"/>
      <point x="310.758" y="345" type="curve" smooth="yes"/>
      <point x="307.175" y="327.176"/>
      <point x="317.053" y="291"/>
      <point x="292.758" y="291" type="curve" smooth="yes"/>
      <point x="205.253" y="280.548"/>
      <point x="119.499" y="364.828"/>
      <point x="124.758" y="450" type="curve" smooth="yes"/>
      <point x="128.875" y="516.681"/>
      <point x="25.7549" y="528.303"/>
      <point x="52.7578" y="609" type="curve" smooth="yes"/>
      <point x="59.8262" y="630.124"/>
      <point x="41.0635" y="645"/>
      <point x="73.7578" y="645" type="curve" smooth="yes"/>
      <point x="149.097" y="645"/>
      <point x="161.528" y="604.326"/>
      <point x="202.758" y="585" type="curve"/>
      <point x="211.758" y="510" type="line"/>
    </contour>
    <contour>
      <point x="212.768" y="458.484" type="line"/>
      <point x="192.259" y="504.626" type="line"/>
      <point x="184.146" y="572.23" type="line"/>
      <point x="142.354" y="596.854"/>
      <point x="136.926" y="624.549"/>
      <point x="74.375" y="624.999" type="curve"/>
      <point x="74.6494" y="619.716"/>
      <point x="74.6396" y="611.367"/>
      <point x="71.7236" y="602.652" type="curve" smooth="yes"/>
      <point x="49.2803" y="535.582"/>
      <point x="150.769" y="546.739"/>
      <point x="144.719" y="448.766" type="curve" smooth="yes"/>
      <point x="140.492" y="380.319"/>
      <point x="209.431" y="302.327"/>
      <point x="289.322" y="310.734" type="curve"/>
      <point x="291.019" y="322.409"/>
      <point x="288.533" y="335.926"/>
      <point x="291.149" y="348.939" type="curve" smooth="yes"/>
      <point x="295.33" y="369.733"/>
      <point x="274.629" y="388.138"/>
      <point x="278.762" y="430.121" type="curve" smooth="yes"/>
      <point x="283.889" y="522.748"/>
      <point x="611.409" y="493.999"/>
      <point x="628.757" y="493.999" type="curve" smooth="yes"/>
      <point x="666.288" y="493.999"/>
      <point x="984.757" y="504.691"/>
      <point x="984.757" y="398.999" type="curve" smooth="yes"/>
      <point x="984.757" y="361.455"/>
      <point x="935.113" y="367.637"/>
      <point x="923.441" y="367.677" type="curve" smooth="yes"/>
      <point x="898.265" y="367.763"/>
      <point x="867.915" y="370.353"/>
      <point x="864.375" y="370.065" type="curve" smooth="yes"/>
      <point x="737.76" y="359.791"/>
      <point x="620.506" y="394"/>
      <point x="505.757" y="394" type="curve" smooth="yes"/>
      <point x="430.724" y="394"/>
      <point x="363.757" y="375.885"/>
      <point x="363.757" y="306" type="curve" smooth="yes"/>
      <point x="363.757" y="260.882"/>
      <point x="363.526" y="227"/>
      <point x="382.757" y="227" type="curve" smooth="yes"/>
      <point x="516.852" y="227"/>
      <point x="637.943" y="323"/>
      <point x="790.757" y="323" type="curve" smooth="yes"/>
      <point x="929.245" y="323"/>
      <point x="991.677" y="179"/>
      <point x="1075.76" y="179" type="curve" smooth="yes"/>
      <point x="1124.98" y="179"/>
      <point x="1217.76" y="235.574"/>
      <point x="1217.76" y="279" type="curve" smooth="yes"/>
      <point x="1217.76" y="303.632"/>
      <point x="1215.59" y="291.356"/>
      <point x="1196.65" y="322.643" type="curve" smooth="yes"/>
      <point x="1073.01" y="526.866"/>
      <point x="912.841" y="660.933"/>
      <point x="655.819" y="600.469" type="curve"/>
      <point x="513.897" y="632.956"/>
      <point x="423.188" y="562.771"/>
      <point x="307.333" y="488.745" type="curve"/>
    </contour>
  </outline>
</glyph>
<glyph name="zero" format="1">
  <advance width="725"/>
  <unicode hex="0030"/>
  <outline>
    <contour>
      <point x="457.229" y="244.538" type="curve"/>
      <point x="430.653" y="167.392"/>
      <point x="387.748" y="116.428"/>
      <point x="339.014" y="114.084" type="curve" smooth="yes"/>
      <point x="329.165" y="110.096"/>
      <point x="318.959" y="108"/>
      <point x="308.5" y="108" type="curve" smooth="yes"/>
      <point x="276.97" y="108"/>
      <point x="247.748" y="127.049"/>
      <point x="223.632" y="159.556" type="curve"/>
      <point x="128.626" y="167.783"/>
      <point x="53.5" y="266.439"/>
      <point x="53.5" y="388" type="curve" smooth="yes"/>
      <point x="53.5" y="487.632"/>
      <point x="103.966" y="572.492"/>
      <point x="174.481" y="604.44" type="curve"/>
      <point x="185.296" y="653.774"/>
      <point x="216.998" y="689.853"/>
      <point x="255.396" y="692.805" type="curve"/>
      <point x="278.555" y="723.336"/>
      <point x="306.019" y="741"/>
      <point x="335.5" y="741" type="curve" smooth="yes"/>
      <point x="374.592" y="741"/>
      <point x="410.135" y="709.943"/>
      <point x="436.8" y="659.011" type="curve"/>
      <point x="444.254" y="659.665"/>
      <point x="451.828" y="660"/>
      <point x="459.5" y="660" type="curve" smooth="yes"/>
      <point x="576.5" y="660"/>
      <point x="671.5" y="582"/>
      <point x="671.5" y="486" type="curve" smooth="yes"/>
      <point x="671.5" y="439.414"/>
      <point x="649.129" y="397.066"/>
      <point x="612.729" y="365.814" type="curve" smooth="yes"/>
      <point x="607.71" y="357.397"/>
      <point x="601.928" y="349.286"/>
      <point x="595.446" y="341.533" type="curve"/>
      <point x="587.096" y="292.419"/>
      <point x="530.036" y="252.7"/>
    </contour>
    <contour>
      <point x="438.32" y="251.052" type="curve" smooth="yes"/>
      <point x="442.438" y="263.007" type="line"/>
      <point x="455.002" y="264.415" type="line" smooth="yes"/>
      <point x="527.59" y="272.553"/>
      <point x="569.771" y="309.842"/>
      <point x="576.636" y="350.216" type="curve"/>
      <point x="584.26" y="359.336"/>
      <point x="591.209" y="368.777"/>
      <point x="597.223" y="378.863" type="curve" smooth="yes"/>
      <point x="630.572" y="407.495"/>
      <point x="651.5" y="444.357"/>
      <point x="651.5" y="486.001" type="curve" smooth="yes"/>
      <point x="651.5" y="567.61"/>
      <point x="568.833" y="640.001"/>
      <point x="459.5" y="640.001" type="curve" smooth="yes"/>
      <point x="452.41" y="640.001"/>
      <point x="445.419" y="639.691"/>
      <point x="438.548" y="639.088" type="curve" smooth="yes"/>
      <point x="425.265" y="637.922" type="line"/>
      <point x="419.08" y="649.734" type="line" smooth="yes"/>
      <point x="393.728" y="698.159"/>
      <point x="363.089" y="721"/>
      <point x="335.498" y="721" type="curve" smooth="yes"/>
      <point x="314.573" y="721"/>
      <point x="292.378" y="708.469"/>
      <point x="271.329" y="680.718" type="curve" smooth="yes"/>
      <point x="265.895" y="673.553" type="line"/>
      <point x="231.722" y="670.926"/>
      <point x="205.036" y="650.43"/>
      <point x="194.017" y="600.158" type="curve" smooth="yes"/>
      <point x="191.869" y="590.362" type="line"/>
      <point x="182.734" y="586.224" type="line" smooth="yes"/>
      <point x="121.057" y="558.279"/>
      <point x="73.5" y="481.351"/>
      <point x="73.5" y="388" type="curve" smooth="yes"/>
      <point x="73.5" y="273.516"/>
      <point x="144.005" y="186.526"/>
      <point x="225.357" y="179.481" type="curve" smooth="yes"/>
      <point x="234.329" y="178.704" type="line"/>
      <point x="239.694" y="171.472" type="line" smooth="yes"/>
      <point x="261.681" y="141.836"/>
      <point x="285.595" y="128"/>
      <point x="308.501" y="128" type="curve" smooth="yes"/>
      <point x="317.466" y="128"/>
      <point x="326.584" y="130.628"/>
      <point x="334.658" y="133.897" type="curve" smooth="yes"/>
      <point x="373.057" y="135.744"/>
      <point x="411.541" y="173.316"/>
    </contour>
  </outline>
</glyph>
<glyph name="one" format="1">
  <advance width="1367"/>
  <unicode hex="0031"/>
  <outline>
    <contour>
      <point x="221.5" y="642" type="curve"/>
      <point x="208.833" y="652.667"/>
      <point x="214.833" y="660.667"/>
      <point x="239.5" y="666" type="curve" smooth="yes"/>
      <point x="239.592" y="666.02"/>
      <point x="251.5" y="668.323"/>
      <point x="251.5" y="672" type="curve" smooth="yes"/>
      <point x="251.5" y="683.099"/>
      <point x="232.332" y="678"/>
      <point x="224.5" y="678" type="curve" smooth="yes"/>
      <point x="203.226" y="678"/>
      <point x="110.5" y="664.458"/>
      <point x="110.5" y="693" type="curve" smooth="yes"/>
      <point x="110.5" y="711.821"/>
      <point x="118.873" y="735"/>
      <point x="140.5" y="735" type="curve" smooth="yes"/>
      <point x="226.224" y="735"/>
      <point x="312.233" y="718.051"/>
      <point x="404.5" y="723" type="curve" smooth="yes"/>
      <point x="652.574" y="736.307"/>
      <point x="371.679" y="687.798"/>
      <point x="275.5" y="681" type="curve"/>
      <point x="275.5" y="644.038"/>
      <point x="755.5" y="628.572"/>
      <point x="755.5" y="525" type="curve" smooth="yes"/>
      <point x="755.5" y="459.437"/>
      <point x="521.5" y="492.948"/>
      <point x="521.5" y="462" type="curve" smooth="yes"/>
      <point x="521.5" y="447.462"/>
      <point x="560.5" y="448.765"/>
      <point x="560.5" y="435" type="curve" smooth="yes"/>
      <point x="560.5" y="429.799"/>
      <point x="554.5" y="432.939"/>
      <point x="554.5" y="426" type="curve" smooth="yes"/>
      <point x="554.5" y="373.247"/>
      <point x="1220.27" y="177"/>
      <point x="1292.5" y="177" type="curve" smooth="yes"/>
      <point x="1322.5" y="177" type="line" smooth="yes"/>
      <point x="1322.42" y="177"/>
      <point x="1322.71" y="168"/>
      <point x="956.5" y="168" type="curve" smooth="yes"/>
      <point x="887.499" y="168"/>
      <point x="407.5" y="199.857"/>
      <point x="407.5" y="237" type="curve" smooth="yes"/>
      <point x="407.5" y="381.284"/>
      <point x="44.5" y="348.465"/>
      <point x="44.5" y="519" type="curve" smooth="yes"/>
      <point x="44.5" y="598.332"/>
      <point x="227.5" y="620.424"/>
      <point x="227.5" y="636" type="curve" smooth="yes"/>
      <point x="227.5" y="643.007"/>
      <point x="220.687" y="635.465"/>
    </contour>
    <contour>
      <point x="1140.25" y="189.001" type="curve"/>
      <point x="931.366" y="243.915"/>
      <point x="534.501" y="354.28"/>
      <point x="534.501" y="429.293" type="curve"/>
      <point x="530.464" y="430.63"/>
      <point x="501.501" y="434.934"/>
      <point x="501.501" y="461.999" type="curve" smooth="yes"/>
      <point x="501.501" y="527.3"/>
      <point x="735.501" y="488.325"/>
      <point x="735.501" y="524.999" type="curve" smooth="yes"/>
      <point x="735.501" y="600.237"/>
      <point x="337.877" y="608.121"/>
      <point x="267.542" y="659.184" type="curve"/>
      <point x="257.447" y="647.886"/>
      <point x="248.843" y="647.627"/>
      <point x="245.898" y="646.935" type="curve" smooth="yes"/>
      <point x="246.304" y="644.857"/>
      <point x="247.501" y="637"/>
      <point x="247.501" y="636" type="curve" smooth="yes"/>
      <point x="247.501" y="581.817"/>
      <point x="64.501" y="579.289"/>
      <point x="64.501" y="519" type="curve" smooth="yes"/>
      <point x="64.501" y="372.911"/>
      <point x="412.541" y="415.245"/>
      <point x="427.183" y="245.15" type="curve"/>
      <point x="491.608" y="217.051"/>
      <point x="896.631" y="188"/>
      <point x="956.501" y="188" type="curve" smooth="yes"/>
      <point x="1032.48" y="188"/>
      <point x="1092.64" y="188.388"/>
    </contour>
    <contour>
      <point x="255.5" y="696.382" type="curve"/>
      <point x="255.5" y="699.637" type="line"/>
      <point x="274.09" y="700.95" type="line" smooth="yes"/>
      <point x="283.842" y="701.64"/>
      <point x="294.684" y="702.679"/>
      <point x="308.399" y="704.226" type="curve"/>
      <point x="250.754" y="707.907"/>
      <point x="194.359" y="715"/>
      <point x="140.501" y="715" type="curve" smooth="yes"/>
      <point x="137.646" y="715"/>
      <point x="132.602" y="712.972"/>
      <point x="130.762" y="697.865" type="curve"/>
      <point x="149.596" y="692.139"/>
      <point x="205.131" y="698"/>
      <point x="224.5" y="698" type="curve" smooth="yes"/>
      <point x="225.152" y="698"/>
      <point x="239.604" y="703.109"/>
    </contour>
  </outline>
</glyph>
<glyph name="two" format="1">
  <advance width="918"/>
  <unicode hex="0032"/>
  <outline>
    <contour>
      <point x="154.879" y="690" type="line"/>
      <point x="217.364" y="690"/>
      <point x="255.749" y="642"/>
      <point x="319.879" y="642" type="curve" smooth="yes"/>
      <point x="406.202" y="642"/>
      <point x="769.879" y="548.119"/>
      <point x="769.879" y="450" type="curve" smooth="yes"/>
      <point x="769.879" y="423" type="line" smooth="yes"/>
      <point x="769.879" y="416.468"/>
      <point x="871.879" y="350.567"/>
      <point x="871.879" y="285" type="curve" smooth="yes"/>
      <point x="871.879" y="250.715"/>
      <point x="796.34" y="286.295"/>
      <point x="772.879" y="273" type="curve" smooth="yes"/>
      <point x="717.069" y="241.374"/>
      <point x="622.879" y="315.255"/>
      <point x="622.879" y="198" type="curve" smooth="yes"/>
      <point x="622.879" y="177" type="line" smooth="yes"/>
      <point x="622.879" y="145.296"/>
      <point x="433.361" y="150"/>
      <point x="412.879" y="150" type="curve" smooth="yes"/>
      <point x="374.049" y="150"/>
      <point x="358.879" y="217.377"/>
      <point x="358.879" y="252" type="curve" smooth="yes"/>
      <point x="358.879" y="286.345"/>
      <point x="505.879" y="272.955"/>
      <point x="505.879" y="309" type="curve" smooth="yes"/>
      <point x="505.879" y="324.326"/>
      <point x="325.618" y="354"/>
      <point x="292.879" y="354" type="curve" smooth="yes"/>
      <point x="250.352" y="354"/>
      <point x="262.869" y="294"/>
      <point x="232.879" y="294" type="curve" smooth="yes"/>
      <point x="160.828" y="294"/>
      <point x="109.879" y="357.997"/>
      <point x="109.879" y="426" type="curve" smooth="yes"/>
      <point x="109.879" y="509.608"/>
      <point x="203.321" y="462.083"/>
      <point x="247.879" y="474" type="curve" smooth="yes"/>
      <point x="268.778" y="479.59"/>
      <point x="316.879" y="462.027"/>
      <point x="316.879" y="501" type="curve"/>
      <point x="298.187" y="537.682"/>
      <point x="236.089" y="524.113"/>
      <point x="202.879" y="546" type="curve" smooth="yes"/>
      <point x="188.439" y="555.517"/>
      <point x="171.684" y="564"/>
      <point x="151.879" y="564" type="curve"/>
      <point x="103.305" y="552.693"/>
      <point x="38.376" y="586.951"/>
      <point x="46.8789" y="642" type="curve" smooth="yes"/>
      <point x="50.0742" y="662.69"/>
      <point x="49.1953" y="732"/>
      <point x="82.8789" y="732" type="curve" smooth="yes"/>
      <point x="95.6943" y="732"/>
      <point x="114.214" y="700.866"/>
      <point x="121.879" y="693" type="curve"/>
    </contour>
    <contour>
      <point x="154.879" y="670" type="curve" smooth="yes"/>
      <point x="153.969" y="670.001" type="line"/>
      <point x="112.708" y="673.752" type="line"/>
      <point x="102.519" y="684.208"/>
      <point x="90.7441" y="702.484"/>
      <point x="81.1904" y="711.051" type="curve"/>
      <point x="73.4092" y="702.78"/>
      <point x="69.9824" y="660.578"/>
      <point x="66.6426" y="638.948" type="curve" smooth="yes"/>
      <point x="61.457" y="605.377"/>
      <point x="102.972" y="573.151"/>
      <point x="149.58" y="584" type="curve"/>
      <point x="151.877" y="584" type="line" smooth="yes"/>
      <point x="177.591" y="584"/>
      <point x="198.225" y="573.02"/>
      <point x="213.883" y="562.7" type="curve" smooth="yes"/>
      <point x="231.149" y="551.321"/>
      <point x="308.822" y="560.857"/>
      <point x="334.696" y="510.082" type="curve" smooth="yes"/>
      <point x="336.877" y="505.804" type="line"/>
      <point x="336.877" y="501.002" type="line" smooth="yes"/>
      <point x="336.877" y="460.157"/>
      <point x="299.489" y="454.587"/>
      <point x="281.074" y="454.696" type="curve" smooth="yes"/>
      <point x="267.392" y="454.777"/>
      <point x="255.169" y="455.248"/>
      <point x="253.045" y="454.68" type="curve" smooth="yes"/>
      <point x="181.517" y="435.549"/>
      <point x="129.878" y="486.91"/>
      <point x="129.878" y="426" type="curve" smooth="yes"/>
      <point x="129.878" y="367.609"/>
      <point x="172.556" y="314.921"/>
      <point x="231.966" y="314.002" type="curve" smooth="yes"/>
      <point x="232.51" y="314.774"/>
      <point x="243.913" y="374"/>
      <point x="292.878" y="374" type="curve" smooth="yes"/>
      <point x="313.985" y="374"/>
      <point x="525.878" y="358.611"/>
      <point x="525.878" y="309" type="curve" smooth="yes"/>
      <point x="525.878" y="253.665"/>
      <point x="390.662" y="253.895"/>
      <point x="378.956" y="247.88" type="curve"/>
      <point x="380.523" y="209.529"/>
      <point x="399.026" y="170"/>
      <point x="412.879" y="170" type="curve" smooth="yes"/>
      <point x="430.383" y="170"/>
      <point x="568.915" y="168.762"/>
      <point x="602.88" y="183.197" type="curve"/>
      <point x="602.88" y="198" type="line" smooth="yes"/>
      <point x="602.88" y="265.932"/>
      <point x="638.468" y="287.759"/>
      <point x="678.141" y="287.61" type="curve" smooth="yes"/>
      <point x="713.747" y="287.478"/>
      <point x="744.709" y="280.024"/>
      <point x="763.019" y="290.4" type="curve" smooth="yes"/>
      <point x="792.155" y="306.911"/>
      <point x="834.35" y="289.106"/>
      <point x="851.645" y="289.62" type="curve"/>
      <point x="845.656" y="341.887"/>
      <point x="749.879" y="385.924"/>
      <point x="749.879" y="423" type="curve" smooth="yes"/>
      <point x="749.879" y="450" type="line" smooth="yes"/>
      <point x="749.879" y="519.364"/>
      <point x="410.51" y="622"/>
      <point x="319.879" y="622" type="curve" smooth="yes"/>
      <point x="244.606" y="622"/>
      <point x="205.918" y="670"/>
    </contour>
  </outline>
</glyph>
<glyph name="three" format="1">
  <advance width="727"/>
  <unicode hex="0033"/>
  <outline>
    <contour>
      <point x="438.5" y="561" type="line"/>
      <point x="480.5" y="564" type="line"/>
      <point x="462.998" y="591.934"/>
      <point x="505.672" y="590.385"/>
      <point x="522.5" y="585" type="curve" smooth="yes"/>
      <point x="591.494" y="562.923"/>
      <point x="553.969" y="660"/>
      <point x="624.5" y="660" type="curve" smooth="yes"/>
      <point x="648.643" y="660"/>
      <point x="681.5" y="666.582"/>
      <point x="681.5" y="633" type="curve" smooth="yes"/>
      <point x="681.5" y="590.356"/>
      <point x="618.5" y="591.577"/>
      <point x="618.5" y="564" type="curve" smooth="yes"/>
      <point x="618.5" y="552.246"/>
      <point x="630.5" y="544.908"/>
      <point x="630.5" y="531" type="curve" smooth="yes"/>
      <point x="630.5" y="400.974"/>
      <point x="441.5" y="377.666"/>
      <point x="441.5" y="276" type="curve" smooth="yes"/>
      <point x="441.5" y="238.3"/>
      <point x="534.5" y="227.584"/>
      <point x="534.5" y="171" type="curve" smooth="yes"/>
      <point x="534.5" y="122.479"/>
      <point x="510.642" y="99"/>
      <point x="462.5" y="99" type="curve" smooth="yes"/>
      <point x="455.938" y="99"/>
      <point x="447.5" y="97.375"/>
      <point x="447.5" y="105" type="curve" smooth="yes"/>
      <point x="447.5" y="116.331"/>
      <point x="465.5" y="132.34"/>
      <point x="465.5" y="150" type="curve" smooth="yes"/>
      <point x="465.5" y="171.066"/>
      <point x="435.811" y="177"/>
      <point x="417.5" y="177" type="curve" smooth="yes"/>
      <point x="330.5" y="177" type="line" smooth="yes"/>
      <point x="280.553" y="177"/>
      <point x="120.5" y="173.707"/>
      <point x="120.5" y="258" type="curve" smooth="yes"/>
      <point x="120.5" y="330.672"/>
      <point x="261.5" y="297.946"/>
      <point x="261.5" y="399" type="curve" smooth="yes"/>
      <point x="261.5" y="403.973"/>
      <point x="279.5" y="416.532"/>
      <point x="279.5" y="429" type="curve" smooth="yes"/>
      <point x="279.5" y="560.048"/>
      <point x="45.5" y="511.376"/>
      <point x="45.5" y="591" type="curve" smooth="yes"/>
      <point x="45.5" y="609.25"/>
      <point x="60.3115" y="603"/>
      <point x="78.5" y="603" type="curve" smooth="yes"/>
      <point x="192.793" y="603"/>
      <point x="306.157" y="585"/>
      <point x="420.5" y="585" type="curve"/>
    </contour>
    <contour>
      <point x="429.045" y="540.273" type="line"/>
      <point x="410.468" y="565.041" type="line"/>
      <point x="299.211" y="566.036"/>
      <point x="187.183" y="582.997"/>
      <point x="78.502" y="582.997" type="curve" smooth="yes"/>
      <point x="74.3242" y="582.997"/>
      <point x="71.1963" y="583.21"/>
      <point x="67.4893" y="583.488" type="curve"/>
      <point x="81.0254" y="562.384"/>
      <point x="299.502" y="560.615"/>
      <point x="299.502" y="428.998" type="curve" smooth="yes"/>
      <point x="299.502" y="409.446"/>
      <point x="286.673" y="399.253"/>
      <point x="281.368" y="393.217" type="curve"/>
      <point x="275.712" y="274.926"/>
      <point x="140.501" y="301.245"/>
      <point x="140.501" y="257.998" type="curve" smooth="yes"/>
      <point x="140.501" y="203.404"/>
      <point x="258.895" y="196.998"/>
      <point x="330.501" y="196.998" type="curve" smooth="yes"/>
      <point x="417.501" y="196.998" type="line" smooth="yes"/>
      <point x="432.616" y="196.998"/>
      <point x="485.501" y="193.92"/>
      <point x="485.501" y="149.998" type="curve" smooth="yes"/>
      <point x="485.501" y="137.314"/>
      <point x="481.615" y="129.326"/>
      <point x="476.554" y="119.895" type="curve"/>
      <point x="503.121" y="123.771"/>
      <point x="514.501" y="135.239"/>
      <point x="514.501" y="170.998" type="curve" smooth="yes"/>
      <point x="514.501" y="207.472"/>
      <point x="421.501" y="209.885"/>
      <point x="421.501" y="275.998" type="curve" smooth="yes"/>
      <point x="421.501" y="402.593"/>
      <point x="610.501" y="420.982"/>
      <point x="610.501" y="530.998" type="curve" smooth="yes"/>
      <point x="610.501" y="532.404"/>
      <point x="598.501" y="537.418"/>
      <point x="598.501" y="563.998" type="curve" smooth="yes"/>
      <point x="598.501" y="621.082"/>
      <point x="661.501" y="610.788"/>
      <point x="661.501" y="632.998" type="curve" smooth="yes"/>
      <point x="661.501" y="636.756"/>
      <point x="660.867" y="638.149"/>
      <point x="660.697" y="638.485" type="curve" smooth="yes"/>
      <point x="658.868" y="639.726"/>
      <point x="644.487" y="639.999"/>
      <point x="624.5" y="639.999" type="curve" smooth="yes"/>
      <point x="595.233" y="639.999"/>
      <point x="598.079" y="539.816"/>
      <point x="516.405" y="565.951" type="curve" smooth="yes"/>
      <point x="513.557" y="566.862"/>
      <point x="507.43" y="567.999"/>
      <point x="501.506" y="568.143" type="curve"/>
      <point x="515.115" y="546.421" type="line"/>
    </contour>
  </outline>
</glyph>
<glyph name="four" format="1">
  <advance width="786"/>
  <unicode hex="0034"/>
  <outline>
    <contour>
      <point x="225" y="657" type="curve"/>
      <point x="249" y="660" type="line"/>
      <point x="293.491" y="678.599"/>
      <point x="322.125" y="711"/>
      <point x="372" y="711" type="curve" smooth="yes"/>
      <point x="410.848" y="711"/>
      <point x="417.426" y="664.325"/>
      <point x="435" y="645" type="curve" smooth="yes"/>
      <point x="444.91" y="634.103"/>
      <point x="443.878" y="608.368"/>
      <point x="465" y="606" type="curve" smooth="yes"/>
      <point x="471.639" y="606"/>
      <point x="474.278" y="609"/>
      <point x="483" y="609" type="curve" smooth="yes"/>
      <point x="513.726" y="609"/>
      <point x="540.325" y="591"/>
      <point x="573" y="591" type="curve" smooth="yes"/>
      <point x="593.187" y="591"/>
      <point x="615.818" y="615"/>
      <point x="645" y="615" type="curve" smooth="yes"/>
      <point x="691.759" y="615"/>
      <point x="735" y="618.494"/>
      <point x="735" y="564" type="curve" smooth="yes"/>
      <point x="735" y="460.286"/>
      <point x="633" y="371.134"/>
      <point x="633" y="288" type="curve" smooth="yes"/>
      <point x="633" y="236.575"/>
      <point x="738" y="239.581"/>
      <point x="738" y="198" type="curve" smooth="yes"/>
      <point x="738" y="180.776"/>
      <point x="723.584" y="156"/>
      <point x="708" y="156" type="curve" smooth="yes"/>
      <point x="640.225" y="156"/>
      <point x="588.99" y="204"/>
      <point x="531" y="204" type="curve" smooth="yes"/>
      <point x="450.162" y="204"/>
      <point x="419.618" y="108"/>
      <point x="327" y="108" type="curve" smooth="yes"/>
      <point x="263.937" y="108"/>
      <point x="48" y="65.5732"/>
      <point x="48" y="159" type="curve" smooth="yes"/>
      <point x="48" y="203.666"/>
      <point x="109.013" y="233.453"/>
      <point x="105" y="279" type="curve" smooth="yes"/>
      <point x="93.7852" y="406.279"/>
      <point x="191.615" y="438.456"/>
      <point x="276" y="504" type="curve"/>
      <point x="276" y="583.281"/>
      <point x="69" y="582.662"/>
      <point x="69" y="654" type="curve" smooth="yes"/>
      <point x="69" y="670.47"/>
      <point x="134.526" y="675"/>
      <point x="144" y="675" type="curve" smooth="yes"/>
      <point x="156.208" y="675"/>
      <point x="190" y="689"/>
    </contour>
    <contour>
      <point x="218.319" y="636.009" type="line"/>
      <point x="211.504" y="642.239" type="line" smooth="yes"/>
      <point x="183.707" y="667.654"/>
      <point x="165.603" y="655"/>
      <point x="143.999" y="655" type="curve" smooth="yes"/>
      <point x="139.703" y="655"/>
      <point x="106.854" y="652.533"/>
      <point x="90.6426" y="647.139" type="curve"/>
      <point x="103.675" y="621.879"/>
      <point x="295.999" y="593.038"/>
      <point x="295.999" y="504" type="curve" smooth="yes"/>
      <point x="295.999" y="494.21" type="line"/>
      <point x="205.024" y="423.547"/>
      <point x="114.801" y="395.623"/>
      <point x="124.922" y="280.755" type="curve" smooth="yes"/>
      <point x="130.422" y="218.322"/>
      <point x="67.999" y="184.672"/>
      <point x="67.999" y="159" type="curve" smooth="yes"/>
      <point x="67.999" y="94.3232"/>
      <point x="275.825" y="128"/>
      <point x="326.999" y="128" type="curve" smooth="yes"/>
      <point x="403.781" y="128"/>
      <point x="432.058" y="224"/>
      <point x="531" y="224" type="curve" smooth="yes"/>
      <point x="599.99" y="224"/>
      <point x="647.63" y="176.9"/>
      <point x="707.046" y="176" type="curve" smooth="yes"/>
      <point x="710.76" y="178.502"/>
      <point x="718" y="191.398"/>
      <point x="718" y="197.999" type="curve" smooth="yes"/>
      <point x="718" y="211.375"/>
      <point x="613" y="211.08"/>
      <point x="613" y="287.999" type="curve" smooth="yes"/>
      <point x="613" y="385.877"/>
      <point x="715" y="472.317"/>
      <point x="715" y="563.999" type="curve" smooth="yes"/>
      <point x="715" y="594.578"/>
      <point x="702.79" y="595.07"/>
      <point x="660.205" y="595.045" type="curve" smooth="yes"/>
      <point x="655.321" y="595.042"/>
      <point x="650.232" y="595"/>
      <point x="644.999" y="595" type="curve" smooth="yes"/>
      <point x="625.705" y="595"/>
      <point x="607.902" y="571"/>
      <point x="573" y="571" type="curve" smooth="yes"/>
      <point x="532.71" y="571"/>
      <point x="505.623" y="589"/>
      <point x="483" y="589" type="curve" smooth="yes"/>
      <point x="480.249" y="589"/>
      <point x="479.867" y="586"/>
      <point x="465" y="586" type="curve" smooth="yes"/>
      <point x="463.882" y="586" type="line" smooth="yes"/>
      <point x="425.842" y="589.149"/>
      <point x="419.924" y="631.472"/>
      <point x="420.271" y="631.449" type="curve"/>
      <point x="392.039" y="663.721"/>
      <point x="394.27" y="691"/>
      <point x="371.999" y="691" type="curve" smooth="yes"/>
      <point x="331.171" y="691"/>
      <point x="305.063" y="661.759"/>
      <point x="254.192" y="640.493" type="curve"/>
    </contour>
  </outline>
</glyph>
<glyph name="five" format="1">
  <advance width="914"/>
  <unicode hex="0035"/>
  <outline>
    <contour>
      <point x="382" y="621" type="curve"/>
      <point x="388" y="600" type="line"/>
      <point x="388" y="585" type="line" smooth="yes"/>
      <point x="388" y="574.687"/>
      <point x="371.866" y="535.556"/>
      <point x="350.88" y="490.611" type="curve"/>
      <point x="360.188" y="495.134"/>
      <point x="368.824" y="496.026"/>
      <point x="376" y="492" type="curve"/>
      <point x="376" y="461.531"/>
      <point x="355" y="434.135"/>
      <point x="355" y="402" type="curve" smooth="yes"/>
      <point x="355" y="379.233"/>
      <point x="357.771" y="363"/>
      <point x="385" y="363" type="curve" smooth="yes"/>
      <point x="482.94" y="363"/>
      <point x="499" y="455.44"/>
      <point x="499" y="534" type="curve" smooth="yes"/>
      <point x="499" y="654" type="line" smooth="yes"/>
      <point x="499" y="686.652"/>
      <point x="493.836" y="732"/>
      <point x="529" y="732" type="curve" smooth="yes"/>
      <point x="584.529" y="732"/>
      <point x="736" y="685.713"/>
      <point x="736" y="618" type="curve" smooth="yes"/>
      <point x="736" y="519.632"/>
      <point x="556" y="503.876"/>
      <point x="556" y="417" type="curve" smooth="yes"/>
      <point x="556" y="370.016"/>
      <point x="865" y="343.762"/>
      <point x="865" y="168" type="curve" smooth="yes"/>
      <point x="865" y="156.457"/>
      <point x="863.837" y="39"/>
      <point x="859" y="39" type="curve" smooth="yes"/>
      <point x="829.042" y="39"/>
      <point x="807.833" y="180"/>
      <point x="736" y="180" type="curve" smooth="yes"/>
      <point x="653.564" y="180"/>
      <point x="598.453" y="48"/>
      <point x="478" y="48" type="curve" smooth="yes"/>
      <point x="268.514" y="48"/>
      <point x="49" y="106.604"/>
      <point x="49" y="354" type="curve" smooth="yes"/>
      <point x="49" y="439.816"/>
      <point x="289" y="364.129"/>
      <point x="289" y="468" type="curve" smooth="yes"/>
      <point x="289" y="538.211"/>
      <point x="178" y="561.421"/>
      <point x="178" y="636" type="curve" smooth="yes"/>
      <point x="178" y="666.136"/>
      <point x="191.922" y="660"/>
      <point x="220" y="660" type="curve" smooth="yes"/>
      <point x="270.933" y="660"/>
      <point x="333.779" y="641.828"/>
    </contour>
    <contour>
      <point x="365.404" y="606.285" type="line"/>
      <point x="320.712" y="624.53"/>
      <point x="263.613" y="640"/>
      <point x="219.999" y="640" type="curve" smooth="yes"/>
      <point x="210.376" y="640"/>
      <point x="203.197" y="640.565"/>
      <point x="198.162" y="640.507" type="curve" smooth="yes"/>
      <point x="198.11" y="639.794"/>
      <point x="198" y="637.785"/>
      <point x="198" y="636" type="curve" smooth="yes"/>
      <point x="198" y="581.818"/>
      <point x="309" y="559.761"/>
      <point x="309" y="468" type="curve" smooth="yes"/>
      <point x="309" y="335.501"/>
      <point x="69" y="407.678"/>
      <point x="69" y="354" type="curve" smooth="yes"/>
      <point x="69" y="124.666"/>
      <point x="269.183" y="68"/>
      <point x="478" y="68" type="curve" smooth="yes"/>
      <point x="583.898" y="68"/>
      <point x="632.741" y="200"/>
      <point x="736" y="200" type="curve" smooth="yes"/>
      <point x="797.718" y="200"/>
      <point x="825.058" y="131.514"/>
      <point x="843.61" y="92.8457" type="curve"/>
      <point x="844.634" y="125.032"/>
      <point x="844.999" y="162.187"/>
      <point x="844.999" y="168.001" type="curve" smooth="yes"/>
      <point x="844.999" y="326.688"/>
      <point x="535.999" y="332.24"/>
      <point x="535.999" y="417.001" type="curve" smooth="yes"/>
      <point x="535.999" y="529.543"/>
      <point x="715.999" y="542.822"/>
      <point x="715.999" y="618.002" type="curve" smooth="yes"/>
      <point x="715.999" y="660.939"/>
      <point x="585.635" y="712.002"/>
      <point x="528.999" y="712.002" type="curve" smooth="yes"/>
      <point x="522.922" y="712.002"/>
      <point x="518.655" y="708.619"/>
      <point x="518.734" y="676.634" type="curve" smooth="yes"/>
      <point x="518.753" y="669.287"/>
      <point x="519" y="661.577"/>
      <point x="519" y="654.001" type="curve" smooth="yes"/>
      <point x="519" y="534.001" type="line" smooth="yes"/>
      <point x="519" y="456.799"/>
      <point x="502.424" y="343.001"/>
      <point x="385" y="343.001" type="curve" smooth="yes"/>
      <point x="371.691" y="343.001"/>
      <point x="358.823" y="346.169"/>
      <point x="349.343" y="355.234" type="curve" smooth="yes"/>
      <point x="334.491" y="369.435"/>
      <point x="335" y="388.362"/>
      <point x="335" y="402.001" type="curve" smooth="yes"/>
      <point x="335" y="429.432"/>
      <point x="345.79" y="450.424"/>
      <point x="351.627" y="468.74" type="curve"/>
      <point x="308.9" y="447.982" type="line"/>
      <point x="332.758" y="499.074" type="line" smooth="yes"/>
      <point x="351.878" y="540.021"/>
      <point x="366.948" y="578.573"/>
      <point x="368" y="585.465" type="curve" smooth="yes"/>
      <point x="368" y="597.199" type="line"/>
    </contour>
  </outline>
</glyph>
<glyph name="six" format="1">
  <advance width="501"/>
  <unicode hex="0036"/>
  <outline>
    <contour>
      <point x="131.809" y="627" type="line"/>
      <point x="138.363" y="623.333"/>
      <point x="126.662" y="630"/>
      <point x="140.809" y="630" type="curve" smooth="yes"/>
      <point x="186.292" y="630"/>
      <point x="395.809" y="619.116"/>
      <point x="395.809" y="561" type="curve" smooth="yes"/>
      <point x="395.809" y="519.991"/>
      <point x="383.809" y="481.926"/>
      <point x="383.809" y="441" type="curve" smooth="yes"/>
      <point x="383.809" y="403.812"/>
      <point x="452.809" y="399.356"/>
      <point x="452.809" y="387" type="curve" smooth="yes"/>
      <point x="452.809" y="380.34"/>
      <point x="407.809" y="384.707"/>
      <point x="407.809" y="378" type="curve" smooth="yes"/>
      <point x="407.809" y="357" type="line" smooth="yes"/>
      <point x="407.809" y="334.851"/>
      <point x="362.809" y="352.649"/>
      <point x="362.809" y="333" type="curve" smooth="yes"/>
      <point x="362.809" y="284.489"/>
      <point x="452.809" y="244.061"/>
      <point x="452.809" y="207" type="curve" smooth="yes"/>
      <point x="452.809" y="164.274"/>
      <point x="370.87" y="153"/>
      <point x="338.809" y="153" type="curve"/>
      <point x="281.715" y="164.784"/>
      <point x="239.687" y="233.655"/>
      <point x="251.809" y="291" type="curve" smooth="yes"/>
      <point x="265.786" y="357.13"/>
      <point x="215.809" y="396.979"/>
      <point x="215.809" y="453" type="curve" smooth="yes"/>
      <point x="215.809" y="480.355"/>
      <point x="287.809" y="493.763"/>
      <point x="287.809" y="510" type="curve"/>
      <point x="247.338" y="524.312"/>
      <point x="199.867" y="550.279"/>
      <point x="161.809" y="558" type="curve" smooth="yes"/>
      <point x="144.086" y="561.596"/>
      <point x="130.731" y="567"/>
      <point x="113.809" y="567" type="curve" smooth="yes"/>
      <point x="96.9434" y="567"/>
      <point x="93.1807" y="582"/>
      <point x="80.8086" y="582" type="curve" smooth="yes"/>
      <point x="68.9766" y="582"/>
      <point x="74.4131" y="567"/>
      <point x="62.8086" y="567" type="curve" smooth="yes"/>
      <point x="43.8926" y="562.818"/>
      <point x="52.1934" y="590.119"/>
      <point x="50.8086" y="600" type="curve" smooth="yes"/>
      <point x="44.3936" y="645.759"/>
      <point x="46.4541" y="660"/>
      <point x="95.8086" y="660" type="curve" smooth="yes"/>
      <point x="116.809" y="660" type="line"/>
    </contour>
    <contour>
      <point x="122.044" y="609.546" type="curve"/>
      <point x="116.316" y="612.748" type="line"/>
      <point x="103.93" y="639.998" type="line"/>
      <point x="95.8076" y="639.998" type="line" smooth="yes"/>
      <point x="76.8516" y="639.998"/>
      <point x="69.6973" y="636.762"/>
      <point x="69.2695" y="636.42" type="curve" smooth="yes"/>
      <point x="69.0205" y="635.966"/>
      <point x="68.7783" y="621.939"/>
      <point x="70.8789" y="600.373" type="curve"/>
      <point x="70.8789" y="600.373"/>
      <point x="76.7588" y="601.998"/>
      <point x="80.8086" y="601.998" type="curve" smooth="yes"/>
      <point x="112.698" y="601.998"/>
      <point x="111.013" y="586.998"/>
      <point x="113.809" y="586.998" type="curve" smooth="yes"/>
      <point x="135.239" y="586.998"/>
      <point x="150.37" y="580.727"/>
      <point x="165.785" y="577.599" type="curve" smooth="yes"/>
      <point x="208.631" y="568.907"/>
      <point x="256.226" y="542.381"/>
      <point x="294.477" y="528.854" type="curve" smooth="yes"/>
      <point x="307.809" y="524.14" type="line"/>
      <point x="307.809" y="509.998" type="line" smooth="yes"/>
      <point x="307.809" y="473.932"/>
      <point x="238.17" y="454.994"/>
      <point x="235.814" y="451.944" type="curve" smooth="yes"/>
      <point x="236.643" y="411.771"/>
      <point x="287.495" y="363.121"/>
      <point x="271.377" y="286.863" type="curve" smooth="yes"/>
      <point x="261.684" y="241.008"/>
      <point x="296.836" y="183.495"/>
      <point x="340.913" y="173.017" type="curve"/>
      <point x="379.35" y="173.691"/>
      <point x="432.81" y="190.743"/>
      <point x="432.81" y="206.999" type="curve" smooth="yes"/>
      <point x="432.81" y="220.795"/>
      <point x="342.81" y="265.466"/>
      <point x="342.81" y="332.999" type="curve" smooth="yes"/>
      <point x="342.81" y="369.151"/>
      <point x="386.236" y="364.173"/>
      <point x="387.81" y="364.313" type="curve" smooth="yes"/>
      <point x="387.81" y="377.999" type="line" smooth="yes"/>
      <point x="387.81" y="384.646"/>
      <point x="389.852" y="388.744"/>
      <point x="394.83" y="393.975" type="curve"/>
      <point x="382.765" y="401.002"/>
      <point x="363.809" y="416.247"/>
      <point x="363.809" y="441" type="curve" smooth="yes"/>
      <point x="363.809" y="485.934"/>
      <point x="375.809" y="523.973"/>
      <point x="375.809" y="561" type="curve" smooth="yes"/>
      <point x="375.809" y="585.825"/>
      <point x="213.882" y="608.936"/>
      <point x="146.185" y="609.956" type="curve"/>
      <point x="133.626" y="602.062"/>
      <point x="122.044" y="609.546"/>
    </contour>
  </outline>
</glyph>
<glyph name="seven" format="1">
  <advance width="1011"/>
  <unicode hex="0037"/>
  <outline>
    <contour>
      <point x="634.5" y="624" type="curve"/>
      <point x="643.5" y="615" type="line"/>
      <point x="658.536" y="612.121"/>
      <point x="672.992" y="606"/>
      <point x="691.5" y="606" type="curve" smooth="yes"/>
      <point x="721.903" y="606"/>
      <point x="727.5" y="626.122"/>
      <point x="727.5" y="654" type="curve" smooth="yes"/>
      <point x="727.5" y="694.903"/>
      <point x="703.909" y="698.43"/>
      <point x="664.5" y="693" type="curve" smooth="yes"/>
      <point x="645.157" y="690.335"/>
      <point x="561.764" y="693.899"/>
      <point x="513.525" y="694.312" type="curve"/>
      <point x="568.779" y="710.262"/>
      <point x="616.493" y="765"/>
      <point x="676.5" y="765" type="curve"/>
      <point x="676.5" y="765"/>
      <point x="775.5" y="776.646"/>
      <point x="775.5" y="756" type="curve" smooth="yes"/>
      <point x="775.5" y="748.19"/>
      <point x="769.5" y="737.047"/>
      <point x="769.5" y="726" type="curve" smooth="yes"/>
      <point x="769.5" y="650.966"/>
      <point x="934.5" y="639.559"/>
      <point x="934.5" y="540" type="curve" smooth="yes"/>
      <point x="934.5" y="515.033"/>
      <point x="919.5" y="494.521"/>
      <point x="919.5" y="471" type="curve" smooth="yes"/>
      <point x="919.5" y="454.36"/>
      <point x="958.5" y="445.635"/>
      <point x="958.5" y="414" type="curve" smooth="yes"/>
      <point x="958.5" y="398.714"/>
      <point x="940.5" y="393.104"/>
      <point x="940.5" y="387" type="curve" smooth="yes"/>
      <point x="940.5" y="373.458"/>
      <point x="951.629" y="297"/>
      <point x="937.5" y="297" type="curve" smooth="yes"/>
      <point x="924.483" y="297"/>
      <point x="923.41" y="324"/>
      <point x="919.5" y="324" type="curve" smooth="yes"/>
      <point x="883.66" y="324"/>
      <point x="676.5" y="247.144"/>
      <point x="676.5" y="243" type="curve" smooth="yes"/>
      <point x="676.5" y="182.725"/>
      <point x="841.5" y="158.84"/>
      <point x="841.5" y="84" type="curve" smooth="yes"/>
      <point x="841.5" y="56.873"/>
      <point x="798.798" y="51"/>
      <point x="778.5" y="51" type="curve" smooth="yes"/>
      <point x="744.723" y="51"/>
      <point x="740.603" y="90"/>
      <point x="718.5" y="90" type="curve" smooth="yes"/>
      <point x="692.571" y="90"/>
      <point x="667.043" y="87"/>
      <point x="643.5" y="87" type="curve" smooth="yes"/>
      <point x="605.701" y="87"/>
      <point x="490.294" y="24"/>
      <point x="421.5" y="24" type="curve" smooth="yes"/>
      <point x="402.815" y="24"/>
      <point x="214.5" y="90.5176"/>
      <point x="214.5" y="120" type="curve" smooth="yes"/>
      <point x="214.5" y="148.862"/>
      <point x="265.5" y="135.473"/>
      <point x="265.5" y="165" type="curve" smooth="yes"/>
      <point x="265.5" y="271.177"/>
      <point x="55.5" y="258.075"/>
      <point x="55.5" y="408" type="curve"/>
      <point x="55.5" y="408"/>
      <point x="49.2393" y="474"/>
      <point x="61.5" y="474" type="curve" smooth="yes"/>
      <point x="117.08" y="474"/>
      <point x="169.378" y="441"/>
      <point x="223.5" y="441" type="curve" smooth="yes"/>
      <point x="232.67" y="441"/>
      <point x="256.5" y="448.613"/>
      <point x="256.5" y="462" type="curve"/>
      <point x="256.5" y="430.516"/>
      <point x="232.5" y="404.628"/>
      <point x="232.5" y="372" type="curve" smooth="yes"/>
      <point x="232.5" y="326.651"/>
      <point x="250.5" y="282.728"/>
      <point x="250.5" y="240" type="curve" smooth="yes"/>
      <point x="250.5" y="215.775"/>
      <point x="416.179" y="206"/>
      <point x="392.5" y="206" type="curve"/>
      <point x="417.852" y="206"/>
      <point x="631.5" y="213.329"/>
      <point x="631.5" y="318" type="curve" smooth="yes"/>
      <point x="631.5" y="346.928"/>
      <point x="508.5" y="345.073"/>
      <point x="508.5" y="366" type="curve"/>
      <point x="508.5" y="366"/>
      <point x="526.5" y="371.351"/>
      <point x="526.5" y="384" type="curve" smooth="yes"/>
      <point x="526.5" y="396.414"/>
      <point x="511.5" y="398.586"/>
      <point x="511.5" y="411" type="curve" smooth="yes"/>
      <point x="511.5" y="433.125"/>
      <point x="748.5" y="396.764"/>
      <point x="748.5" y="423" type="curve" smooth="yes"/>
      <point x="748.5" y="529.112"/>
      <point x="52.5" y="461.25"/>
      <point x="52.5" y="642" type="curve" smooth="yes"/>
      <point x="52.5" y="661.781"/>
      <point x="364.5" y="651"/>
      <point x="364.5" y="651" type="curve" smooth="yes"/>
      <point x="526.5" y="658"/>
      <point x="559.046" y="639.031"/>
    </contour>
    <contour>
      <point x="513.525" y="694.312" type="curve"/>
      <point x="504.103" y="691.592"/>
      <point x="494.46" y="690"/>
      <point x="484.5" y="690" type="curve" smooth="yes"/>
      <point x="469.338" y="693.728"/>
      <point x="485.498" y="694.552"/>
    </contour>
    <contour>
      <point x="753.067" y="747.013" type="curve"/>
      <point x="727.781" y="750.465"/>
      <point x="678.713" y="745.122"/>
      <point x="677.661" y="744.999" type="curve" smooth="yes"/>
      <point x="676.498" y="744.999" type="line" smooth="yes"/>
      <point x="649.693" y="744.999"/>
      <point x="623.909" y="730.973"/>
      <point x="593.829" y="712.635" type="curve"/>
      <point x="623.003" y="711.988"/>
      <point x="655.798" y="711.989"/>
      <point x="661.77" y="712.812" type="curve" smooth="yes"/>
      <point x="701.803" y="718.327"/>
      <point x="747.499" y="712.372"/>
      <point x="747.499" y="653.999" type="curve" smooth="yes"/>
      <point x="747.499" y="624.805"/>
      <point x="737.735" y="585.999"/>
      <point x="691.499" y="585.999" type="curve" smooth="yes"/>
      <point x="665.027" y="585.999"/>
      <point x="649.78" y="593.433"/>
      <point x="633.702" y="596.511" type="curve"/>
      <point x="624.613" y="605.6" type="line"/>
      <point x="551.231" y="620.895"/>
      <point x="521.093" y="637.746"/>
      <point x="364.586" y="630.983" type="curve" smooth="yes"/>
      <point x="364.003" y="631.004"/>
      <point x="139.642" y="638.531"/>
      <point x="74.293" y="629.18" type="curve"/>
      <point x="109.334" y="512.07"/>
      <point x="768.498" y="544.915"/>
      <point x="768.498" y="422.998" type="curve" smooth="yes"/>
      <point x="768.498" y="386.268"/>
      <point x="715.623" y="392.988"/>
      <point x="698.815" y="393.014" type="curve" smooth="yes"/>
      <point x="650.291" y="393.087"/>
      <point x="582.816" y="399.185"/>
      <point x="543.344" y="398.453" type="curve"/>
      <point x="545.002" y="394.249"/>
      <point x="546.499" y="389.303"/>
      <point x="546.499" y="384" type="curve" smooth="yes"/>
      <point x="546.499" y="379.151"/>
      <point x="546.067" y="376.566"/>
      <point x="543.613" y="370.448" type="curve"/>
      <point x="564.766" y="365.875"/>
      <point x="651.499" y="365.323"/>
      <point x="651.499" y="318.001" type="curve" smooth="yes"/>
      <point x="651.499" y="185.228"/>
      <point x="413.583" y="186.001"/>
      <point x="396.85" y="186.001" type="curve" smooth="yes"/>
      <point x="375.938" y="188.279"/>
      <point x="313.925" y="194.28"/>
      <point x="277.078" y="203.479" type="curve"/>
      <point x="282.367" y="191.945"/>
      <point x="285.5" y="178.67"/>
      <point x="285.5" y="165.001" type="curve" smooth="yes"/>
      <point x="285.5" y="127.872"/>
      <point x="244.674" y="123.012"/>
      <point x="238.047" y="120.56" type="curve"/>
      <point x="269.517" y="95.3711"/>
      <point x="403.354" y="46.7402"/>
      <point x="422.016" y="44.0029" type="curve" smooth="yes"/>
      <point x="481.81" y="44.4678"/>
      <point x="593.706" y="107.001"/>
      <point x="643.5" y="107.001" type="curve" smooth="yes"/>
      <point x="665.379" y="107.001"/>
      <point x="691.05" y="110.001"/>
      <point x="718.5" y="110.001" type="curve" smooth="yes"/>
      <point x="765.303" y="110.001"/>
      <point x="762.14" y="71.001"/>
      <point x="778.5" y="71.001" type="curve" smooth="yes"/>
      <point x="803.566" y="71.001"/>
      <point x="821.5" y="81.3037"/>
      <point x="821.5" y="84.001" type="curve" smooth="yes"/>
      <point x="821.5" y="135.199"/>
      <point x="656.5" y="155.156"/>
      <point x="656.5" y="243.001" type="curve" smooth="yes"/>
      <point x="656.5" y="279.974"/>
      <point x="891.507" y="344.001"/>
      <point x="923.851" y="344.001" type="curve"/>
      <point x="922.646" y="361.92"/>
      <point x="920.5" y="378.091"/>
      <point x="920.5" y="387.001" type="curve" smooth="yes"/>
      <point x="920.5" y="411.25"/>
      <point x="938.496" y="414.42"/>
      <point x="938.496" y="414.42" type="curve"/>
      <point x="938.01" y="429.139"/>
      <point x="899.501" y="427.556"/>
      <point x="899.501" y="471" type="curve" smooth="yes"/>
      <point x="899.501" y="503.269"/>
      <point x="914.501" y="523.258"/>
      <point x="914.501" y="540" type="curve" smooth="yes"/>
      <point x="914.501" y="618.055"/>
      <point x="749.501" y="623.655"/>
      <point x="749.501" y="726" type="curve" smooth="yes"/>
      <point x="749.501" y="734.694"/>
      <point x="751.358" y="741.066"/>
    </contour>
    <contour>
      <point x="74.2715" y="453.361" type="curve"/>
      <point x="73.1094" y="436.634"/>
      <point x="75.4082" y="409.902"/>
      <point x="75.499" y="408.934" type="curve" smooth="yes"/>
      <point x="75.499" y="408" type="line" smooth="yes"/>
      <point x="75.499" y="319.462"/>
      <point x="160.171" y="300.09"/>
      <point x="229.874" y="253.535" type="curve"/>
      <point x="226.842" y="287.771"/>
      <point x="212.499" y="327.555"/>
      <point x="212.499" y="372" type="curve" smooth="yes"/>
      <point x="212.499" y="390.52"/>
      <point x="218.646" y="409.17"/>
      <point x="223.499" y="421" type="curve"/>
      <point x="166.966" y="421"/>
      <point x="118.92" y="448.96"/>
    </contour>
  </outline>
</glyph>
<glyph name="eight" format="1">
  <advance width="770"/>
  <unicode hex="0038"/>
  <outline>
    <contour>
      <point x="170.5" y="639" type="curve"/>
      <point x="212.541" y="649.581"/>
      <point x="233.078" y="672.198"/>
      <point x="251.5" y="696" type="curve"/>
      <point x="251.5" y="702" type="line" smooth="yes"/>
      <point x="251.5" y="709.919"/>
      <point x="236.5" y="712.988"/>
      <point x="236.5" y="723" type="curve" smooth="yes"/>
      <point x="236.5" y="759.357"/>
      <point x="249.56" y="759.195"/>
      <point x="281.5" y="762" type="curve" smooth="yes"/>
      <point x="312.159" y="764.692"/>
      <point x="341.464" y="750.672"/>
      <point x="368.5" y="735" type="curve"/>
      <point x="368.5" y="691.569"/>
      <point x="302.5" y="662.038"/>
      <point x="302.5" y="630" type="curve" smooth="yes"/>
      <point x="302.5" y="551.047"/>
      <point x="584.5" y="550.368"/>
      <point x="584.5" y="474" type="curve"/>
      <point x="584.5" y="533.673"/>
      <point x="530.5" y="588.233"/>
      <point x="530.5" y="648" type="curve" smooth="yes"/>
      <point x="530.5" y="655.861"/>
      <point x="646.979" y="714"/>
      <point x="671.5" y="714" type="curve" smooth="yes"/>
      <point x="707.445" y="714"/>
      <point x="719.5" y="564"/>
      <point x="719.5" y="564" type="curve"/>
      <point x="719.5" y="492.303"/>
      <point x="670.486" y="162"/>
      <point x="518.5" y="162" type="curve" smooth="yes"/>
      <point x="497.465" y="162"/>
      <point x="484.323" y="180"/>
      <point x="470.5" y="180" type="curve" smooth="yes"/>
      <point x="418.458" y="180"/>
      <point x="364.428" y="150"/>
      <point x="320.5" y="150" type="curve" smooth="yes"/>
      <point x="277.224" y="150"/>
      <point x="89.5" y="262.563"/>
      <point x="89.5" y="306" type="curve" smooth="yes"/>
      <point x="89.5" y="316.689"/>
      <point x="107.5" y="306.355"/>
      <point x="107.5" y="321" type="curve" smooth="yes"/>
      <point x="107.5" y="334.342"/>
      <point x="83.5" y="334.001"/>
      <point x="83.5" y="351" type="curve" smooth="yes"/>
      <point x="83.5" y="424.775"/>
      <point x="317.5" y="409.835"/>
      <point x="317.5" y="456" type="curve" smooth="yes"/>
      <point x="317.5" y="533.23"/>
      <point x="50.5" y="534.446"/>
      <point x="50.5" y="612" type="curve" smooth="yes"/>
      <point x="50.5" y="674.655"/>
      <point x="118.108" y="612.852"/>
    </contour>
    <contour>
      <point x="271.5" y="689.164" type="line"/>
      <point x="250.379" y="661.874"/>
      <point x="228.263" y="633.749"/>
      <point x="177.392" y="620.124" type="curve"/>
      <point x="133.89" y="600.248"/>
      <point x="82.6914" y="622.188"/>
      <point x="71.4639" y="621.089" type="curve" smooth="yes"/>
      <point x="71.1689" y="620.087"/>
      <point x="70.499" y="616.805"/>
      <point x="70.499" y="612.002" type="curve" smooth="yes"/>
      <point x="70.499" y="563.687"/>
      <point x="337.499" y="562.648"/>
      <point x="337.499" y="456.001" type="curve" smooth="yes"/>
      <point x="337.499" y="386.374"/>
      <point x="109.615" y="386.181"/>
      <point x="103.669" y="353.148" type="curve"/>
      <point x="103.669" y="353.148"/>
      <point x="127.5" y="345.237"/>
      <point x="127.5" y="321" type="curve" smooth="yes"/>
      <point x="127.5" y="312.727"/>
      <point x="124.642" y="303.521"/>
      <point x="115.11" y="296.861" type="curve"/>
      <point x="149.027" y="252.836"/>
      <point x="295.719" y="169.999"/>
      <point x="320.5" y="169.999" type="curve" smooth="yes"/>
      <point x="356.184" y="169.999"/>
      <point x="411.378" y="199.999"/>
      <point x="470.5" y="199.999" type="curve" smooth="yes"/>
      <point x="500.907" y="199.999"/>
      <point x="508.521" y="181.999"/>
      <point x="518.5" y="181.999" type="curve" smooth="yes"/>
      <point x="643.11" y="181.999"/>
      <point x="698.903" y="483.259"/>
      <point x="699.497" y="563.186" type="curve" smooth="yes"/>
      <point x="698.701" y="572.424"/>
      <point x="686.107" y="673.486"/>
      <point x="669.472" y="693.669" type="curve"/>
      <point x="649.343" y="689.49"/>
      <point x="574.593" y="654.566"/>
      <point x="550.947" y="639.373" type="curve"/>
      <point x="555.966" y="593.84"/>
      <point x="604.498" y="539.253"/>
      <point x="604.498" y="474" type="curve"/>
      <point x="603.498" y="474"/>
      <point x="564.498" y="473"/>
      <point x="564.498" y="474" type="curve" smooth="yes"/>
      <point x="564.498" y="477.035"/>
      <point x="563.513" y="480.431"/>
      <point x="557.579" y="485.86" type="curve" smooth="yes"/>
      <point x="521.501" y="518.875"/>
      <point x="282.499" y="539.932"/>
      <point x="282.499" y="629.999" type="curve" smooth="yes"/>
      <point x="282.499" y="673.962"/>
      <point x="336.826" y="702.709"/>
      <point x="346.241" y="724.525" type="curve"/>
      <point x="324.639" y="736.022"/>
      <point x="303.137" y="743.822"/>
      <point x="283.249" y="742.076" type="curve" smooth="yes"/>
      <point x="268.776" y="740.806"/>
      <point x="260.23" y="739.453"/>
      <point x="258.355" y="738.576" type="curve" smooth="yes"/>
      <point x="257.911" y="737.611"/>
      <point x="256.963" y="735.505"/>
      <point x="256.575" y="727.267" type="curve" smooth="yes"/>
      <point x="257.927" y="726.188"/>
      <point x="271.5" y="719.274"/>
      <point x="271.5" y="702" type="curve" smooth="yes"/>
    </contour>
  </outline>
</glyph>
<glyph name="nine" format="1">
  <advance width="947"/>
  <unicode hex="0039"/>
  <outline>
    <contour>
      <point x="887.5" y="636" type="curve"/>
      <point x="875.5" y="588" type="line"/>
      <point x="875.5" y="564" type="line" smooth="yes"/>
      <point x="875.5" y="537.443"/>
      <point x="896.5" y="535.524"/>
      <point x="896.5" y="507" type="curve" smooth="yes"/>
      <point x="896.5" y="459.998"/>
      <point x="806.5" y="456.092"/>
      <point x="806.5" y="414" type="curve" smooth="yes"/>
      <point x="806.5" y="359.475"/>
      <point x="872.5" y="338.77"/>
      <point x="872.5" y="285" type="curve" smooth="yes"/>
      <point x="872.5" y="209.303"/>
      <point x="721.121" y="195"/>
      <point x="677.5" y="195" type="curve" smooth="yes"/>
      <point x="623.011" y="195"/>
      <point x="587.304" y="294"/>
      <point x="557.5" y="294" type="curve" smooth="yes"/>
      <point x="462.907" y="294"/>
      <point x="363.134" y="174"/>
      <point x="245.5" y="174" type="curve" smooth="yes"/>
      <point x="150.154" y="174"/>
      <point x="50.5" y="255.89"/>
      <point x="50.5" y="363" type="curve" smooth="yes"/>
      <point x="50.5" y="419.314"/>
      <point x="333.086" y="709.073"/>
      <point x="395.5" y="696" type="curve" smooth="yes"/>
      <point x="540.239" y="665.683"/>
      <point x="689.896" y="630"/>
      <point x="839.5" y="630" type="curve" smooth="yes"/>
      <point x="843.277" y="630"/>
      <point x="882.389" y="636"/>
    </contour>
    <contour>
      <point x="861.019" y="612.538" type="line"/>
      <point x="852.415" y="611.354"/>
      <point x="845.053" y="609.999"/>
      <point x="839.501" y="609.999" type="curve" smooth="yes"/>
      <point x="686.508" y="609.999"/>
      <point x="537.579" y="645.786"/>
      <point x="391.455" y="676.413" type="curve"/>
      <point x="346.007" y="680.437"/>
      <point x="74.8271" y="410.595"/>
      <point x="70.498" y="362.905" type="curve"/>
      <point x="71.0117" y="268.695"/>
      <point x="159.791" y="194"/>
      <point x="245.5" y="194" type="curve" smooth="yes"/>
      <point x="350.671" y="194"/>
      <point x="447.691" y="314"/>
      <point x="557.5" y="314" type="curve" smooth="yes"/>
      <point x="615.115" y="314"/>
      <point x="641.093" y="215"/>
      <point x="677.5" y="215" type="curve" smooth="yes"/>
      <point x="728.207" y="215"/>
      <point x="852.5" y="236.159"/>
      <point x="852.5" y="285" type="curve" smooth="yes"/>
      <point x="852.5" y="320.736"/>
      <point x="786.5" y="341.733"/>
      <point x="786.5" y="414" type="curve" smooth="yes"/>
      <point x="786.5" y="482.438"/>
      <point x="876.5" y="484.163"/>
      <point x="876.5" y="507.001" type="curve" smooth="yes"/>
      <point x="876.5" y="521.322"/>
      <point x="855.5" y="522.049"/>
      <point x="855.5" y="564.001" type="curve" smooth="yes"/>
      <point x="855.5" y="590.463" type="line"/>
    </contour>
  </outline>
</glyph>
<glyph name="colon" format="1">
  <advance width="1026"/>
  <unicode hex="003A"/>
  <outline>
    <contour>
      <point x="259.463" y="693" type="curve"/>
      <point x="277.463" y="699" type="line" smooth="yes"/>
      <point x="283.767" y="699.945"/>
      <point x="290.188" y="702"/>
      <point x="298.463" y="702" type="curve" smooth="yes"/>
      <point x="357.25" y="702"/>
      <point x="377.37" y="636"/>
      <point x="457.463" y="636" type="curve" smooth="yes"/>
      <point x="509.452" y="636"/>
      <point x="543.283" y="744"/>
      <point x="625.463" y="744" type="curve" smooth="yes"/>
      <point x="673.833" y="744"/>
      <point x="817.463" y="735.451"/>
      <point x="817.463" y="669" type="curve" smooth="yes"/>
      <point x="817.463" y="628.973"/>
      <point x="736.611" y="624.529"/>
      <point x="709.463" y="612" type="curve" smooth="yes"/>
      <point x="678.497" y="597.709"/>
      <point x="610.716" y="601.725"/>
      <point x="622.463" y="549" type="curve"/>
      <point x="622.463" y="435.071"/>
      <point x="715.83" y="418.866"/>
      <point x="796.463" y="381" type="curve" smooth="yes"/>
      <point x="856.916" y="352.61"/>
      <point x="976.938" y="357.189"/>
      <point x="973.463" y="264" type="curve" smooth="yes"/>
      <point x="973.463" y="203.714"/>
      <point x="922.822" y="218.388"/>
      <point x="889.463" y="189" type="curve"/>
      <point x="778.463" y="189" type="line"/>
      <point x="733.463" y="117" type="line"/>
      <point x="695.153" y="106.112"/>
      <point x="679.505" y="90"/>
      <point x="637.463" y="90" type="curve" smooth="yes"/>
      <point x="505.955" y="90"/>
      <point x="439.832" y="162"/>
      <point x="319.463" y="162" type="curve" smooth="yes"/>
      <point x="291.089" y="162"/>
      <point x="266.237" y="135"/>
      <point x="232.463" y="135" type="curve" smooth="yes"/>
      <point x="114.842" y="135"/>
      <point x="52.4629" y="274.799"/>
      <point x="52.4629" y="384" type="curve" smooth="yes"/>
      <point x="52.4629" y="461.056"/>
      <point x="142.463" y="497.356"/>
      <point x="142.463" y="549" type="curve" smooth="yes"/>
      <point x="142.463" y="591.738"/>
      <point x="52.4629" y="575.085"/>
      <point x="52.4629" y="636" type="curve" smooth="yes"/>
      <point x="52.4629" y="670.253"/>
      <point x="148.348" y="696"/>
      <point x="172.463" y="696" type="curve" smooth="yes"/>
      <point x="172.606" y="696"/>
      <point x="259.463" y="693"/>
    </contour>
    <contour>
      <point x="262.371" y="672.888" type="line" smooth="yes"/>
      <point x="259.845" y="672.975"/>
      <point x="183.053" y="675.631"/>
      <point x="172.181" y="676" type="curve" smooth="yes"/>
      <point x="151.043" y="675.447"/>
      <point x="77.168" y="648.83"/>
      <point x="72.457" y="635.817" type="curve"/>
      <point x="73.1953" y="598.981"/>
      <point x="162.462" y="621.202"/>
      <point x="162.462" y="549" type="curve" smooth="yes"/>
      <point x="162.462" y="475.72"/>
      <point x="72.4619" y="445.885"/>
      <point x="72.4619" y="384" type="curve" smooth="yes"/>
      <point x="72.4619" y="278.048"/>
      <point x="133.357" y="155"/>
      <point x="232.462" y="155" type="curve" smooth="yes"/>
      <point x="255.517" y="155"/>
      <point x="278.374" y="182"/>
      <point x="319.462" y="182" type="curve" smooth="yes"/>
      <point x="449.409" y="182"/>
      <point x="514.654" y="110"/>
      <point x="637.462" y="110" type="curve" smooth="yes"/>
      <point x="671.64" y="110"/>
      <point x="681.195" y="121.195"/>
      <point x="720.481" y="133.967" type="curve"/>
      <point x="767.377" y="209" type="line"/>
      <point x="882.451" y="209" type="line"/>
      <point x="930.523" y="243.608"/>
      <point x="953.462" y="221.644"/>
      <point x="953.462" y="264.373" type="curve" smooth="yes"/>
      <point x="956.186" y="337.413"/>
      <point x="863.899" y="327.234"/>
      <point x="787.96" y="362.896" type="curve" smooth="yes"/>
      <point x="714.232" y="397.521"/>
      <point x="603.927" y="418.675"/>
      <point x="602.471" y="546.886" type="curve"/>
      <point x="588.733" y="620.5"/>
      <point x="687.527" y="623.904"/>
      <point x="701.08" y="630.159" type="curve" smooth="yes"/>
      <point x="744.496" y="650.196"/>
      <point x="797.461" y="652.11"/>
      <point x="797.461" y="669" type="curve" smooth="yes"/>
      <point x="797.461" y="707.357"/>
      <point x="683.139" y="724"/>
      <point x="625.461" y="724" type="curve" smooth="yes"/>
      <point x="559.683" y="724"/>
      <point x="533.982" y="616"/>
      <point x="457.461" y="616" type="curve" smooth="yes"/>
      <point x="364.265" y="616"/>
      <point x="339" y="682"/>
      <point x="298.462" y="682" type="curve" smooth="yes"/>
      <point x="293.668" y="682"/>
      <point x="290.634" y="681.005"/>
      <point x="282.25" y="679.514" type="curve" smooth="yes"/>
    </contour>
  </outline>
</glyph>
<glyph name="semicolon" format="1">
  <advance width="910"/>
  <unicode hex="003B"/>
  <outline>
    <contour>
      <point x="479" y="591" type="curve"/>
      <point x="485" y="582" type="line"/>
      <point x="497" y="582" type="line" smooth="yes"/>
      <point x="514.546" y="582"/>
      <point x="524" y="588.224"/>
      <point x="524" y="606" type="curve" smooth="yes"/>
      <point x="524" y="648.801"/>
      <point x="467" y="645.746"/>
      <point x="467" y="672" type="curve" smooth="yes"/>
      <point x="467" y="698.098"/>
      <point x="473.422" y="691.044"/>
      <point x="491" y="708" type="curve" smooth="yes"/>
      <point x="507.96" y="724.36"/>
      <point x="528.538" y="734.879"/>
      <point x="554" y="735" type="curve" smooth="yes"/>
      <point x="654.216" y="735"/>
      <point x="857" y="645.56"/>
      <point x="857" y="525" type="curve" smooth="yes"/>
      <point x="857" y="485.773"/>
      <point x="847.921" y="357"/>
      <point x="797" y="357" type="curve" smooth="yes"/>
      <point x="707.13" y="357"/>
      <point x="640.51" y="426"/>
      <point x="548" y="426" type="curve" smooth="yes"/>
      <point x="489.827" y="426"/>
      <point x="242" y="417.597"/>
      <point x="242" y="309" type="curve" smooth="yes"/>
      <point x="242" y="285.632"/>
      <point x="240.964" y="210"/>
      <point x="275" y="210" type="curve" smooth="yes"/>
      <point x="319.566" y="210"/>
      <point x="369.047" y="266.771"/>
      <point x="431" y="264" type="curve" smooth="yes"/>
      <point x="478.916" y="261.856"/>
      <point x="522.363" y="276"/>
      <point x="569" y="276" type="curve" smooth="yes"/>
      <point x="613.556" y="276"/>
      <point x="767" y="263.361"/>
      <point x="767" y="204" type="curve" smooth="yes"/>
      <point x="767" y="191.342"/>
      <point x="764.051" y="141"/>
      <point x="752" y="141" type="curve" smooth="yes"/>
      <point x="693.88" y="141"/>
      <point x="643.758" y="204"/>
      <point x="581" y="204" type="curve" smooth="yes"/>
      <point x="506.656" y="204"/>
      <point x="412.825" y="57"/>
      <point x="281" y="57" type="curve" smooth="yes"/>
      <point x="193.267" y="57"/>
      <point x="53" y="152.061"/>
      <point x="53" y="249" type="curve" smooth="yes"/>
      <point x="53" y="316.241"/>
      <point x="203" y="320.758"/>
      <point x="203" y="372" type="curve" smooth="yes"/>
      <point x="203" y="422.25"/>
      <point x="116" y="455.515"/>
      <point x="116" y="519" type="curve" smooth="yes"/>
      <point x="116" y="546.999"/>
      <point x="128.531" y="568.428"/>
      <point x="131" y="594" type="curve" smooth="yes"/>
      <point x="134.298" y="628.158"/>
      <point x="154.99" y="673.649"/>
      <point x="197" y="675" type="curve" smooth="yes"/>
      <point x="286.101" y="677.864"/>
      <point x="396.852" y="614.723"/>
    </contour>
    <contour>
      <point x="466.361" y="573.902" type="line"/>
      <point x="381.657" y="600.181"/>
      <point x="275.826" y="657.526"/>
      <point x="197.645" y="655.013" type="curve" smooth="yes"/>
      <point x="172.311" y="654.198"/>
      <point x="153.936" y="623.425"/>
      <point x="150.909" y="592.08" type="curve" smooth="yes"/>
      <point x="147.859" y="560.485"/>
      <point x="136.002" y="540.921"/>
      <point x="136.002" y="519.002" type="curve" smooth="yes"/>
      <point x="136.002" y="472.836"/>
      <point x="223.002" y="443.568"/>
      <point x="223.002" y="372.002" type="curve" smooth="yes"/>
      <point x="223.002" y="291.05"/>
      <point x="73.002" y="291.588"/>
      <point x="73.002" y="249.002" type="curve" smooth="yes"/>
      <point x="73.002" y="168.787"/>
      <point x="201.47" y="77.002"/>
      <point x="281.002" y="77.002" type="curve" smooth="yes"/>
      <point x="400.181" y="77.002"/>
      <point x="485.771" y="224.002"/>
      <point x="581.002" y="224.002" type="curve" smooth="yes"/>
      <point x="650.561" y="224.002"/>
      <point x="700.513" y="168.141"/>
      <point x="742.464" y="161.722" type="curve"/>
      <point x="745.121" y="172.446"/>
      <point x="747.003" y="197.845"/>
      <point x="747.003" y="204.001" type="curve" smooth="yes"/>
      <point x="747.003" y="234.253"/>
      <point x="623.079" y="256.001"/>
      <point x="569.003" y="256.001" type="curve" smooth="yes"/>
      <point x="526.568" y="256.001"/>
      <point x="482.575" y="241.674"/>
      <point x="430.108" y="244.021" type="curve" smooth="yes"/>
      <point x="379.582" y="246.281"/>
      <point x="335.229" y="190.001"/>
      <point x="275.001" y="190.001" type="curve" smooth="yes"/>
      <point x="211.746" y="190.001"/>
      <point x="222.001" y="297.912"/>
      <point x="222.001" y="309.001" type="curve" smooth="yes"/>
      <point x="222.001" y="446.314"/>
      <point x="500.09" y="446.001"/>
      <point x="548.001" y="446.001" type="curve" smooth="yes"/>
      <point x="651.038" y="446.001"/>
      <point x="717.97" y="377.001"/>
      <point x="797.001" y="377.001" type="curve" smooth="yes"/>
      <point x="818.793" y="377.001"/>
      <point x="837.001" y="475.865"/>
      <point x="837.001" y="525.001" type="curve" smooth="yes"/>
      <point x="837.001" y="624.806"/>
      <point x="650.893" y="715.001"/>
      <point x="554.001" y="715.001" type="curve" smooth="yes"/>
      <point x="534.563" y="714.908"/>
      <point x="519.068" y="707.286"/>
      <point x="504.887" y="693.605" type="curve" smooth="yes"/>
      <point x="497.211" y="686.201"/>
      <point x="491.218" y="682.475"/>
      <point x="487.368" y="679.809" type="curve" smooth="yes"/>
      <point x="487.234" y="678.734"/>
      <point x="487.109" y="678.336"/>
      <point x="487.002" y="673.381" type="curve" smooth="yes"/>
      <point x="489.542" y="671.174"/>
      <point x="544.001" y="654.343"/>
      <point x="544.001" y="606" type="curve" smooth="yes"/>
      <point x="544.001" y="594.799"/>
      <point x="541.084" y="582.81"/>
      <point x="532.16" y="574.028" type="curve" smooth="yes"/>
      <point x="521.821" y="563.854"/>
      <point x="508.484" y="562"/>
      <point x="497" y="562" type="curve" smooth="yes"/>
      <point x="474.296" y="562" type="line"/>
    </contour>
  </outline>
</glyph>
<glyph name="less" format="1">
  <advance width="866"/>
  <unicode hex="003C"/>
  <outline>
    <contour>
      <point x="84" y="561" type="line"/>
      <point x="115" y="570" type="line"/>
      <point x="149.826" y="570"/>
      <point x="184.142" y="594"/>
      <point x="223" y="594" type="curve" smooth="yes"/>
      <point x="318.222" y="594"/>
      <point x="470.543" y="516"/>
      <point x="595" y="516" type="curve" smooth="yes"/>
      <point x="626.604" y="515.221"/>
      <point x="659.279" y="521.729"/>
      <point x="688" y="504" type="curve" smooth="yes"/>
      <point x="755.431" y="462.375"/>
      <point x="814" y="467.529"/>
      <point x="814" y="369" type="curve" smooth="yes"/>
      <point x="814" y="329.418"/>
      <point x="760.535" y="358.743"/>
      <point x="742" y="342" type="curve" smooth="yes"/>
      <point x="731.651" y="332.651"/>
      <point x="668.738" y="342"/>
      <point x="652" y="342" type="curve" smooth="yes"/>
      <point x="590.213" y="342"/>
      <point x="567.361" y="300"/>
      <point x="502" y="300" type="curve" smooth="yes"/>
      <point x="457.136" y="300"/>
      <point x="429.194" y="328.896"/>
      <point x="394" y="345" type="curve" smooth="yes"/>
      <point x="354.477" y="363.086"/>
      <point x="323.146" y="399"/>
      <point x="280" y="399" type="curve" smooth="yes"/>
      <point x="248.973" y="397.565"/>
      <point x="227.786" y="410.387"/>
      <point x="199" y="417" type="curve" smooth="yes"/>
      <point x="126.332" y="433.695"/>
      <point x="52" y="437.173"/>
      <point x="52" y="531" type="curve" smooth="yes"/>
      <point x="52" y="541.906"/>
      <point x="53.083" y="533.985"/>
      <point x="58" y="543" type="curve"/>
    </contour>
    <contour>
      <point x="92.7051" y="542.701" type="line"/>
      <point x="72.0176" y="528.383" type="line"/>
      <point x="73.4814" y="455.451"/>
      <point x="124.94" y="454.536"/>
      <point x="203.475" y="436.493" type="curve" smooth="yes"/>
      <point x="236.795" y="428.838"/>
      <point x="254.35" y="417.836"/>
      <point x="279.535" y="419" type="curve" smooth="yes"/>
      <point x="279.997" y="419" type="line" smooth="yes"/>
      <point x="333.796" y="419"/>
      <point x="369.589" y="378.164"/>
      <point x="402.319" y="363.187" type="curve" smooth="yes"/>
      <point x="443.406" y="344.386"/>
      <point x="465.782" y="320"/>
      <point x="501.998" y="320" type="curve" smooth="yes"/>
      <point x="556.249" y="320"/>
      <point x="578.691" y="362"/>
      <point x="651.999" y="362" type="curve" smooth="yes"/>
      <point x="669.045" y="362"/>
      <point x="716.13" y="356.056"/>
      <point x="730.796" y="358.682" type="curve"/>
      <point x="753.877" y="376.052"/>
      <point x="787.193" y="366.117"/>
      <point x="793.942" y="367.39" type="curve" smooth="yes"/>
      <point x="793.967" y="367.818"/>
      <point x="793.999" y="368.361"/>
      <point x="793.999" y="369.001" type="curve" smooth="yes"/>
      <point x="793.999" y="454.285"/>
      <point x="753.776" y="439.893"/>
      <point x="677.494" y="486.981" type="curve" smooth="yes"/>
      <point x="656.636" y="499.856"/>
      <point x="629.938" y="495.133"/>
      <point x="594.753" y="496" type="curve" smooth="yes"/>
      <point x="463.926" y="496"/>
      <point x="309.247" y="574"/>
      <point x="223" y="574" type="curve" smooth="yes"/>
      <point x="192.621" y="574"/>
      <point x="161.553" y="551.625"/>
      <point x="117.999" y="550.045" type="curve"/>
    </contour>
  </outline>
</glyph>
<glyph name="equal" format="1">
  <advance width="795"/>
  <unicode hex="003D"/>
  <outline>
    <contour>
      <point x="622.5" y="438" type="curve" smooth="yes"/>
      <point x="574.114" y="438"/>
      <point x="546.012" y="495.783"/>
      <point x="499.5" y="495" type="curve"/>
      <point x="478.488" y="499.215"/>
      <point x="460.845" y="504"/>
      <point x="439.5" y="504" type="curve" smooth="yes"/>
      <point x="389.26" y="504"/>
      <point x="341.401" y="489"/>
      <point x="292.5" y="489" type="curve" smooth="yes"/>
      <point x="253.5" y="489" type="line" smooth="yes"/>
      <point x="238.51" y="489"/>
      <point x="220.5" y="479.564"/>
      <point x="220.5" y="465" type="curve" smooth="yes"/>
      <point x="220.5" y="182.1"/>
      <point x="745.5" y="388.866"/>
      <point x="745.5" y="255" type="curve" smooth="yes"/>
      <point x="745.5" y="178.442"/>
      <point x="644.938" y="183"/>
      <point x="595.5" y="183" type="curve" smooth="yes"/>
      <point x="410.387" y="183"/>
      <point x="49.5" y="158.082"/>
      <point x="49.5" y="432" type="curve" smooth="yes"/>
      <point x="49.5" y="639.681"/>
      <point x="313.584" y="645"/>
      <point x="469.5" y="645" type="curve" smooth="yes"/>
      <point x="483.831" y="645"/>
      <point x="528.394" y="645.089"/>
      <point x="541.5" y="636" type="curve"/>
      <point x="547.5" y="618" type="line"/>
      <point x="567.306" y="596.727"/>
      <point x="655.5" y="538.905"/>
      <point x="655.5" y="501" type="curve" smooth="yes"/>
      <point x="655.5" y="472.64"/>
      <point x="653.351" y="438"/>
    </contour>
    <contour>
      <point x="622.5" y="458" type="curve" smooth="yes"/>
      <point x="630.721" y="458"/>
      <point x="635.502" y="467.06"/>
      <point x="635.502" y="501.002" type="curve" smooth="yes"/>
      <point x="635.502" y="520.744"/>
      <point x="555.745" y="579.796"/>
      <point x="529.902" y="607.554" type="curve"/>
      <point x="525.403" y="621.05" type="line"/>
      <point x="512.602" y="624.205"/>
      <point x="480.596" y="625.001"/>
      <point x="469.501" y="625.001" type="curve" smooth="yes"/>
      <point x="306.576" y="625.001"/>
      <point x="69.501" y="615.688"/>
      <point x="69.501" y="432.001" type="curve" smooth="yes"/>
      <point x="69.501" y="222.477"/>
      <point x="303.012" y="202.398"/>
      <point x="499.668" y="202.41" type="curve" smooth="yes"/>
      <point x="534.244" y="202.412"/>
      <point x="566.788" y="203"/>
      <point x="595.501" y="203" type="curve" smooth="yes"/>
      <point x="653.975" y="203"/>
      <point x="725.501" y="203.383"/>
      <point x="725.501" y="255" type="curve" smooth="yes"/>
      <point x="725.501" y="274.438"/>
      <point x="696.652" y="286.088"/>
      <point x="614.374" y="286.084" type="curve" smooth="yes"/>
      <point x="470.6" y="286.078"/>
      <point x="200.5" y="248.712"/>
      <point x="200.5" y="464.999" type="curve" smooth="yes"/>
      <point x="200.5" y="497.701"/>
      <point x="234.306" y="508.999"/>
      <point x="253.5" y="508.999" type="curve" smooth="yes"/>
      <point x="292.5" y="508.999" type="line" smooth="yes"/>
      <point x="337.287" y="508.999"/>
      <point x="385.256" y="523.999"/>
      <point x="439.5" y="523.999" type="curve" smooth="yes"/>
      <point x="463.192" y="523.999"/>
      <point x="481.953" y="518.992"/>
      <point x="501.498" y="515.001" type="curve" smooth="yes"/>
      <point x="562.196" y="513.888"/>
      <point x="591.003" y="458"/>
    </contour>
  </outline>
</glyph>
<glyph name="greater" format="1">
  <advance width="581"/>
  <unicode hex="003E"/>
  <outline>
    <contour>
      <point x="263.5" y="716" type="line"/>
      <point x="242.813" y="754.498"/>
      <point x="234.479" y="768.111"/>
      <point x="260.5" y="756" type="curve" smooth="yes"/>
      <point x="268.566" y="752.245"/>
      <point x="292.514" y="738.456"/>
      <point x="302.5" y="738" type="curve" smooth="yes"/>
      <point x="316.222" y="737.374"/>
      <point x="324.997" y="732.525"/>
      <point x="338.5" y="726" type="curve"/>
      <point x="347.9" y="726"/>
      <point x="371.5" y="731.929"/>
      <point x="371.5" y="717" type="curve" smooth="yes"/>
      <point x="371.5" y="692.56"/>
      <point x="307.538" y="684.083"/>
      <point x="290.5" y="678" type="curve" smooth="yes"/>
      <point x="269.861" y="670.632"/>
      <point x="236.544" y="657.839"/>
      <point x="242.5" y="630" type="curve" smooth="yes"/>
      <point x="242.5" y="612.548"/>
      <point x="234.503" y="591"/>
      <point x="257.5" y="591" type="curve" smooth="yes"/>
      <point x="325.666" y="591"/>
      <point x="396.83" y="669"/>
      <point x="485.5" y="669" type="curve" smooth="yes"/>
      <point x="524.187" y="669"/>
      <point x="533.5" y="629.301"/>
      <point x="533.5" y="597" type="curve" smooth="yes"/>
      <point x="533.5" y="475.192"/>
      <point x="341.5" y="391.401"/>
      <point x="341.5" y="276" type="curve" smooth="yes"/>
      <point x="341.5" y="174.666"/>
      <point x="464.5" y="143.662"/>
      <point x="464.5" y="69" type="curve" smooth="yes"/>
      <point x="464.5" y="3.70117"/>
      <point x="437.772" y="-12"/>
      <point x="374.5" y="-12" type="curve" smooth="yes"/>
      <point x="274.429" y="-12"/>
      <point x="110.5" y="117.095"/>
      <point x="110.5" y="228" type="curve" smooth="yes"/>
      <point x="110.5" y="304.176"/>
      <point x="182.5" y="368.237"/>
      <point x="182.5" y="432" type="curve" smooth="yes"/>
      <point x="182.5" y="505.269"/>
      <point x="47.5" y="535.51"/>
      <point x="47.5" y="621" type="curve" smooth="yes"/>
      <point x="47.5" y="688.792"/>
      <point x="170.901" y="708"/>
      <point x="224.5" y="708" type="curve"/>
    </contour>
    <contour>
      <point x="282.385" y="723.109" type="curve"/>
      <point x="293.832" y="701.805" type="line"/>
      <point x="226.53" y="687.999" type="line"/>
      <point x="224.5" y="687.999" type="line" smooth="yes"/>
      <point x="165.638" y="687.999"/>
      <point x="67.5" y="663.331"/>
      <point x="67.5" y="620.999" type="curve" smooth="yes"/>
      <point x="67.5" y="555.824"/>
      <point x="202.5" y="528.488"/>
      <point x="202.5" y="431.999" type="curve" smooth="yes"/>
      <point x="202.5" y="354.24"/>
      <point x="130.5" y="292.322"/>
      <point x="130.5" y="228" type="curve" smooth="yes"/>
      <point x="130.5" y="132.513"/>
      <point x="284.767" y="8"/>
      <point x="374.5" y="8" type="curve" smooth="yes"/>
      <point x="432.419" y="8"/>
      <point x="444.5" y="14.584"/>
      <point x="444.5" y="69" type="curve" smooth="yes"/>
      <point x="444.5" y="121.096"/>
      <point x="321.5" y="157.75"/>
      <point x="321.5" y="276" type="curve" smooth="yes"/>
      <point x="321.5" y="411.088"/>
      <point x="513.5" y="494.032"/>
      <point x="513.5" y="597.001" type="curve" smooth="yes"/>
      <point x="513.5" y="629.944"/>
      <point x="504.562" y="649.001"/>
      <point x="485.5" y="649.001" type="curve" smooth="yes"/>
      <point x="407.893" y="649.001"/>
      <point x="339.838" y="571.001"/>
      <point x="257.5" y="571.001" type="curve" smooth="yes"/>
      <point x="247.695" y="571.001"/>
      <point x="236.624" y="573.961"/>
      <point x="229.243" y="582.711" type="curve" smooth="yes"/>
      <point x="216.912" y="597.329"/>
      <point x="221.801" y="611.417"/>
      <point x="222.467" y="628.306" type="curve" smooth="yes"/>
      <point x="215.421" y="674.753"/>
      <point x="267.182" y="690.913"/>
      <point x="283.775" y="696.837" type="curve" smooth="yes"/>
      <point x="295.166" y="700.903"/>
      <point x="311.96" y="703.66"/>
      <point x="328.31" y="708.715" type="curve"/>
      <point x="315.53" y="714.934"/>
      <point x="310.049" y="717.636"/>
      <point x="301.589" y="718.021" type="curve" smooth="yes"/>
      <point x="293.585" y="718.387"/>
      <point x="288.938" y="720.438"/>
    </contour>
  </outline>
</glyph>
<glyph name="question" format="1">
  <advance width="949"/>
  <unicode hex="003F"/>
  <outline>
    <contour>
      <point x="552.5" y="591" type="curve"/>
      <point x="534.5" y="588" type="line"/>
      <point x="530.899" y="577.797"/>
      <point x="528.5" y="580.802"/>
      <point x="528.5" y="570" type="curve" smooth="yes"/>
      <point x="528.5" y="531.527"/>
      <point x="571.228" y="529.912"/>
      <point x="606.5" y="528" type="curve" smooth="yes"/>
      <point x="656.923" y="525.267"/>
      <point x="670.722" y="580.356"/>
      <point x="696.5" y="612" type="curve"/>
      <point x="707.635" y="633.312"/>
      <point x="718.4" y="657.088"/>
      <point x="747.5" y="654" type="curve" smooth="yes"/>
      <point x="784.637" y="654"/>
      <point x="864.5" y="655.29"/>
      <point x="864.5" y="606" type="curve" smooth="yes"/>
      <point x="864.5" y="452.428"/>
      <point x="660.5" y="451.871"/>
      <point x="660.5" y="357" type="curve" smooth="yes"/>
      <point x="660.5" y="224.376"/>
      <point x="900.5" y="334.608"/>
      <point x="900.5" y="156" type="curve" smooth="yes"/>
      <point x="900.5" y="133.101"/>
      <point x="897.889" y="102"/>
      <point x="870.5" y="102" type="curve" smooth="yes"/>
      <point x="763.544" y="102"/>
      <point x="702.332" y="204"/>
      <point x="594.5" y="204" type="curve" smooth="yes"/>
      <point x="495.773" y="204"/>
      <point x="433.921" y="105"/>
      <point x="318.5" y="105" type="curve" smooth="yes"/>
      <point x="203.803" y="105"/>
      <point x="48.5" y="99.2002"/>
      <point x="48.5" y="252" type="curve" smooth="yes"/>
      <point x="48.5" y="289.511"/>
      <point x="74.8652" y="336"/>
      <point x="120.5" y="336" type="curve" smooth="yes"/>
      <point x="141.5" y="336" type="line" smooth="yes"/>
      <point x="180.755" y="336"/>
      <point x="357.5" y="365.208"/>
      <point x="357.5" y="408" type="curve" smooth="yes"/>
      <point x="357.5" y="449.905"/>
      <point x="318.5" y="479.658"/>
      <point x="318.5" y="525" type="curve" smooth="yes"/>
      <point x="318.5" y="605.748"/>
      <point x="326.36" y="628.392"/>
      <point x="408.5" y="630" type="curve" smooth="yes"/>
      <point x="454.032" y="630.892"/>
      <point x="534.5" y="663"/>
    </contour>
    <contour>
      <point x="523.151" y="606.385" type="line"/>
      <point x="503.312" y="627.004"/>
      <point x="456.765" y="610.941"/>
      <point x="408.892" y="610.004" type="curve" smooth="yes"/>
      <point x="336.774" y="608.592"/>
      <point x="338.5" y="602.45"/>
      <point x="338.5" y="525" type="curve" smooth="yes"/>
      <point x="338.5" y="491.74"/>
      <point x="377.5" y="462.975"/>
      <point x="377.5" y="408.001" type="curve" smooth="yes"/>
      <point x="377.5" y="334.433"/>
      <point x="172.299" y="316.001"/>
      <point x="141.5" y="316.001" type="curve" smooth="yes"/>
      <point x="120.5" y="316.001" type="line" smooth="yes"/>
      <point x="90.5352" y="316.001"/>
      <point x="68.5" y="283.013"/>
      <point x="68.5" y="252.001" type="curve" smooth="yes"/>
      <point x="68.5" y="122.181"/>
      <point x="193.99" y="125.001"/>
      <point x="318.5" y="125.001" type="curve" smooth="yes"/>
      <point x="421.483" y="125.001"/>
      <point x="481.202" y="224.001"/>
      <point x="594.501" y="224.001" type="curve" smooth="yes"/>
      <point x="716.107" y="224.001"/>
      <point x="777.433" y="122.001"/>
      <point x="870.501" y="122.001" type="curve" smooth="yes"/>
      <point x="875.577" y="122.001"/>
      <point x="880.501" y="128.357"/>
      <point x="880.501" y="156.001" type="curve" smooth="yes"/>
      <point x="880.501" y="310.308"/>
      <point x="640.501" y="192.649"/>
      <point x="640.501" y="357" type="curve" smooth="yes"/>
      <point x="640.501" y="480.894"/>
      <point x="844.501" y="471.243"/>
      <point x="844.501" y="606" type="curve" smooth="yes"/>
      <point x="844.501" y="628.568"/>
      <point x="794.7" y="634"/>
      <point x="747.501" y="634" type="curve" smooth="yes"/>
      <point x="746.442" y="634" type="line" smooth="yes"/>
      <point x="731.488" y="635.587"/>
      <point x="726.302" y="625.851"/>
      <point x="713.288" y="600.941" type="curve"/>
      <point x="694.771" y="578.212"/>
      <point x="672.801" y="504.377"/>
      <point x="605.418" y="508.029" type="curve" smooth="yes"/>
      <point x="577.359" y="509.551"/>
      <point x="508.5" y="509.165"/>
      <point x="508.5" y="570" type="curve" smooth="yes"/>
      <point x="508.5" y="585.822"/>
      <point x="515.465" y="594.159"/>
      <point x="515.64" y="594.655" type="curve" smooth="yes"/>
      <point x="519.568" y="605.787" type="line"/>
    </contour>
  </outline>
</glyph>
<glyph name="at" format="1">
  <advance width="1232"/>
  <unicode hex="0040"/>
  <outline>
    <contour>
      <point x="719.5" y="564" type="curve"/>
      <point x="731.5" y="600" type="line"/>
      <point x="740.5" y="600" type="line" smooth="yes"/>
      <point x="759.125" y="600"/>
      <point x="770.908" y="555"/>
      <point x="812.5" y="555" type="curve" smooth="yes"/>
      <point x="926.355" y="555"/>
      <point x="876.706" y="720"/>
      <point x="974.5" y="720" type="curve" smooth="yes"/>
      <point x="1076.5" y="720"/>
      <point x="1175.5" y="633.514"/>
      <point x="1175.5" y="528" type="curve" smooth="yes"/>
      <point x="1175.5" y="463.587"/>
      <point x="1161.75" y="414"/>
      <point x="1085.5" y="414" type="curve" smooth="yes"/>
      <point x="1040.5" y="414" type="line" smooth="yes"/>
      <point x="981.63" y="414"/>
      <point x="920.5" y="352.089"/>
      <point x="920.5" y="297" type="curve" smooth="yes"/>
      <point x="920.5" y="178.056"/>
      <point x="1169.5" y="241.248"/>
      <point x="1169.5" y="84" type="curve" smooth="yes"/>
      <point x="1169.5" y="59.834"/>
      <point x="1162.61" y="-15"/>
      <point x="1130.5" y="-15" type="curve" smooth="yes"/>
      <point x="1026.8" y="-15"/>
      <point x="941.07" y="81"/>
      <point x="866.5" y="81" type="curve" smooth="yes"/>
      <point x="721.729" y="81"/>
      <point x="579.766" y="60"/>
      <point x="437.5" y="60" type="curve" smooth="yes"/>
      <point x="276.871" y="60"/>
      <point x="56.5" y="129.923"/>
      <point x="56.5" y="324" type="curve" smooth="yes"/>
      <point x="56.5" y="501.971"/>
      <point x="131.844" y="750"/>
      <point x="329.5" y="750" type="curve" smooth="yes"/>
      <point x="379.044" y="750"/>
      <point x="509.5" y="767.463"/>
      <point x="509.5" y="690" type="curve" smooth="yes"/>
      <point x="509.5" y="528.747"/>
      <point x="293.5" y="513.965"/>
      <point x="293.5" y="309" type="curve" smooth="yes"/>
      <point x="293.5" y="268.18"/>
      <point x="303.972" y="195"/>
      <point x="356.5" y="195" type="curve" smooth="yes"/>
      <point x="434.81" y="195"/>
      <point x="686.5" y="193.892"/>
      <point x="686.5" y="327" type="curve" smooth="yes"/>
      <point x="686.5" y="406.311"/>
      <point x="566.5" y="404.084"/>
      <point x="566.5" y="501" type="curve" smooth="yes"/>
      <point x="566.5" y="544.288"/>
      <point x="584.75" y="558"/>
      <point x="629.5" y="558" type="curve" smooth="yes"/>
      <point x="657.179" y="558"/>
      <point x="755.342" y="444.84"/>
      <point x="782.5" y="444" type="curve" smooth="yes"/>
      <point x="820.5" y="443"/>
      <point x="890.5" y="449"/>
      <point x="872.5" y="483" type="curve" smooth="yes"/>
      <point x="841.5" y="543"/>
      <point x="719.5" y="564"/>
    </contour>
    <contour>
      <point x="844.074" y="539.255" type="curve"/>
      <point x="861.255" y="528.235"/>
      <point x="879.859" y="512.324"/>
      <point x="890.223" y="492.268" type="curve" smooth="yes"/>
      <point x="903.171" y="467.811"/>
      <point x="887.709" y="446.221"/>
      <point x="871.194" y="437.716" type="curve" smooth="yes"/>
      <point x="845.063" y="424.259"/>
      <point x="807.2" y="423.342"/>
      <point x="781.975" y="424.006" type="curve" smooth="yes"/>
      <point x="737.578" y="425.379"/>
      <point x="650.231" y="530.055"/>
      <point x="628.466" y="537.999" type="curve"/>
      <point x="591.439" y="537.613"/>
      <point x="586.501" y="533.83"/>
      <point x="586.501" y="501" type="curve" smooth="yes"/>
      <point x="586.501" y="424.095"/>
      <point x="706.501" y="430.599"/>
      <point x="706.501" y="327" type="curve" smooth="yes"/>
      <point x="706.501" y="166.153"/>
      <point x="424.295" y="175"/>
      <point x="356.501" y="175" type="curve" smooth="yes"/>
      <point x="280.641" y="175"/>
      <point x="273.501" y="272.216"/>
      <point x="273.501" y="309" type="curve" smooth="yes"/>
      <point x="273.501" y="531.277"/>
      <point x="489.501" y="550.912"/>
      <point x="489.501" y="689.999" type="curve" smooth="yes"/>
      <point x="489.501" y="721.177"/>
      <point x="451.598" y="731.74"/>
      <point x="392.302" y="731.686" type="curve" smooth="yes"/>
      <point x="368.593" y="731.664"/>
      <point x="346.095" y="730"/>
      <point x="329.5" y="730" type="curve" smooth="yes"/>
      <point x="152.47" y="730"/>
      <point x="76.5" y="501.892"/>
      <point x="76.5" y="324" type="curve" smooth="yes"/>
      <point x="76.5" y="149.386"/>
      <point x="277.983" y="80"/>
      <point x="437.5" y="80" type="curve" smooth="yes"/>
      <point x="577.792" y="80"/>
      <point x="719.79" y="101"/>
      <point x="866.5" y="101" type="curve" smooth="yes"/>
      <point x="956.527" y="101"/>
      <point x="1036.34" y="5.60059"/>
      <point x="1130.43" y="4.99707" type="curve"/>
      <point x="1138.21" y="9.42285"/>
      <point x="1149.5" y="60.3066"/>
      <point x="1149.5" y="84" type="curve" smooth="yes"/>
      <point x="1149.5" y="216.938"/>
      <point x="900.5" y="147.36"/>
      <point x="900.5" y="297" type="curve" smooth="yes"/>
      <point x="900.5" y="364.408"/>
      <point x="969.828" y="434"/>
      <point x="1040.5" y="434" type="curve" smooth="yes"/>
      <point x="1085.5" y="434" type="line" smooth="yes"/>
      <point x="1146.37" y="434"/>
      <point x="1155.5" y="465.462"/>
      <point x="1155.5" y="528" type="curve" smooth="yes"/>
      <point x="1155.5" y="620.906"/>
      <point x="1066.36" y="700"/>
      <point x="974.5" y="700" type="curve" smooth="yes"/>
      <point x="901.094" y="700"/>
      <point x="957.988" y="574.041"/>
    </contour>
  </outline>
</glyph>
<glyph name="A" format="1">
  <advance width="981"/>
  <unicode hex="0041"/>
  <outline>
    <contour>
      <point x="560.666" y="555" type="curve"/>
      <point x="629.666" y="507" type="line"/>
      <point x="677.666" y="465" type="line"/>
      <point x="693.979" y="463.471"/>
      <point x="696.504" y="462"/>
      <point x="710.666" y="462" type="curve" smooth="yes"/>
      <point x="732.99" y="462"/>
      <point x="758.666" y="473.256"/>
      <point x="758.666" y="498" type="curve" smooth="yes"/>
      <point x="758.666" y="614.968"/>
      <point x="523.238" y="654"/>
      <point x="443.666" y="654" type="curve" smooth="yes"/>
      <point x="408.052" y="654"/>
      <point x="375.938" y="645"/>
      <point x="341.666" y="645" type="curve" smooth="yes"/>
      <point x="317.086" y="645"/>
      <point x="275.666" y="634.611"/>
      <point x="275.666" y="669" type="curve" smooth="yes"/>
      <point x="275.666" y="789.782"/>
      <point x="483.556" y="789"/>
      <point x="560.666" y="789" type="curve" smooth="yes"/>
      <point x="761.443" y="789"/>
      <point x="926.666" y="743.027"/>
      <point x="926.666" y="513" type="curve" smooth="yes"/>
      <point x="926.666" y="488.311"/>
      <point x="941.446" y="354"/>
      <point x="911.666" y="354" type="curve" smooth="yes"/>
      <point x="834.43" y="354"/>
      <point x="766.446" y="405.304"/>
      <point x="683.666" y="387" type="curve" smooth="yes"/>
      <point x="607.473" y="370.152"/>
      <point x="452.05" y="429.934"/>
      <point x="428.666" y="333" type="curve"/>
      <point x="428.666" y="288.399"/>
      <point x="481.345" y="315.158"/>
      <point x="515.666" y="309" type="curve" smooth="yes"/>
      <point x="627.179" y="288.992"/>
      <point x="868.162" y="365.892"/>
      <point x="902.666" y="213" type="curve"/>
      <point x="902.666" y="182.394"/>
      <point x="891.12" y="120"/>
      <point x="854.666" y="120" type="curve" smooth="yes"/>
      <point x="756.392" y="120"/>
      <point x="700.463" y="216"/>
      <point x="599.666" y="216" type="curve" smooth="yes"/>
      <point x="481.656" y="216"/>
      <point x="392.737" y="90"/>
      <point x="245.666" y="90" type="curve" smooth="yes"/>
      <point x="204.282" y="90"/>
      <point x="50.666" y="72.9482"/>
      <point x="50.666" y="129" type="curve" smooth="yes"/>
      <point x="50.666" y="195.346"/>
      <point x="242.666" y="221.583"/>
      <point x="242.666" y="312" type="curve" smooth="yes"/>
      <point x="242.666" y="392.988"/>
      <point x="101.666" y="373.601"/>
      <point x="101.666" y="435" type="curve" smooth="yes"/>
      <point x="101.666" y="477.618"/>
      <point x="100.156" y="582"/>
      <point x="161.666" y="582" type="curve" smooth="yes"/>
      <point x="293.411" y="582"/>
      <point x="431.734" y="585.152"/>
    </contour>
    <contour>
      <point x="552.407" y="536.382" type="line"/>
      <point x="429.478" y="564.462"/>
      <point x="292.325" y="561.999"/>
      <point x="161.667" y="561.999" type="curve" smooth="yes"/>
      <point x="127.194" y="561.999"/>
      <point x="121.667" y="487.865"/>
      <point x="121.667" y="434.999" type="curve" smooth="yes"/>
      <point x="121.667" y="403.691"/>
      <point x="262.667" y="417.121"/>
      <point x="262.667" y="312" type="curve" smooth="yes"/>
      <point x="262.667" y="198.657"/>
      <point x="70.667" y="166.806"/>
      <point x="70.667" y="129" type="curve" smooth="yes"/>
      <point x="70.667" y="120.524"/>
      <point x="101.832" y="107.546"/>
      <point x="165.066" y="107.561" type="curve" smooth="yes"/>
      <point x="197.613" y="107.568"/>
      <point x="228.425" y="110.001"/>
      <point x="245.666" y="110.001" type="curve" smooth="yes"/>
      <point x="380.879" y="110.001"/>
      <point x="466.905" y="236.001"/>
      <point x="599.665" y="236.001" type="curve" smooth="yes"/>
      <point x="714.33" y="236.001"/>
      <point x="770.617" y="140.001"/>
      <point x="854.665" y="140.001" type="curve" smooth="yes"/>
      <point x="865.935" y="140.001"/>
      <point x="881.829" y="174.814"/>
      <point x="882.643" y="210.782" type="curve"/>
      <point x="851.13" y="338.314"/>
      <point x="643.295" y="265.782"/>
      <point x="512.133" y="289.315" type="curve" smooth="yes"/>
      <point x="498.89" y="291.691"/>
      <point x="448.382" y="271.694"/>
      <point x="420.915" y="299.154" type="curve" smooth="yes"/>
      <point x="412.002" y="308.065"/>
      <point x="408.665" y="320.447"/>
      <point x="408.665" y="333.001" type="curve" smooth="yes"/>
      <point x="408.665" y="335.379" type="line"/>
      <point x="437.962" y="456.823"/>
      <point x="622.869" y="394.041"/>
      <point x="679.347" y="406.529" type="curve" smooth="yes"/>
      <point x="769.088" y="426.372"/>
      <point x="840.506" y="376.62"/>
      <point x="905.565" y="374.119" type="curve"/>
      <point x="913.992" y="399.976"/>
      <point x="906.665" y="490.667"/>
      <point x="906.665" y="513.001" type="curve" smooth="yes"/>
      <point x="906.665" y="726.713"/>
      <point x="760.054" y="769.001"/>
      <point x="560.665" y="769.001" type="curve" smooth="yes"/>
      <point x="473.693" y="769.001"/>
      <point x="295.665" y="762.825"/>
      <point x="295.665" y="669.001" type="curve" smooth="yes"/>
      <point x="295.665" y="666.886"/>
      <point x="295.957" y="665.836"/>
      <point x="296.081" y="665.482" type="curve" smooth="yes"/>
      <point x="299.592" y="663.434"/>
      <point x="319.868" y="665.001"/>
      <point x="341.665" y="665.001" type="curve" smooth="yes"/>
      <point x="372.335" y="665.001"/>
      <point x="404.586" y="674.001"/>
      <point x="443.665" y="674.001" type="curve" smooth="yes"/>
      <point x="518.37" y="674.001"/>
      <point x="778.665" y="640.953"/>
      <point x="778.665" y="498.001" type="curve" smooth="yes"/>
      <point x="778.665" y="455.366"/>
      <point x="736.414" y="442.001"/>
      <point x="710.665" y="442.001" type="curve" smooth="yes"/>
      <point x="693.003" y="442.001"/>
      <point x="685.924" y="444.139"/>
      <point x="669.361" y="445.691" type="curve"/>
      <point x="617.332" y="491.217" type="line"/>
    </contour>
  </outline>
</glyph>
<glyph name="B" format="1">
  <advance width="886"/>
  <unicode hex="0042"/>
  <outline>
    <contour>
      <point x="125" y="690" type="line"/>
      <point x="146" y="693" type="line"/>
      <point x="140.394" y="701.176"/>
      <point x="199.615" y="708.974"/>
      <point x="209" y="708" type="curve" smooth="yes"/>
      <point x="287.904" y="699.814"/>
      <point x="328.267" y="814.124"/>
      <point x="416" y="777" type="curve" smooth="yes"/>
      <point x="428.977" y="770.359"/>
      <point x="445.126" y="775.585"/>
      <point x="461" y="774" type="curve" smooth="yes"/>
      <point x="514.17" y="774"/>
      <point x="587.931" y="846.375"/>
      <point x="659" y="852" type="curve" smooth="yes"/>
      <point x="754.743" y="859.578"/>
      <point x="847.013" y="758.823"/>
      <point x="809" y="663" type="curve"/>
      <point x="809" y="599.448"/>
      <point x="839" y="549.308"/>
      <point x="839" y="495" type="curve" smooth="yes"/>
      <point x="839" y="449.259"/>
      <point x="820.536" y="396"/>
      <point x="767" y="396" type="curve" smooth="yes"/>
      <point x="735.368" y="396"/>
      <point x="680" y="393.465"/>
      <point x="680" y="438" type="curve" smooth="yes"/>
      <point x="680" y="496.647"/>
      <point x="779" y="502.493"/>
      <point x="779" y="564" type="curve" smooth="yes"/>
      <point x="779" y="586.132"/>
      <point x="764.998" y="741"/>
      <point x="746" y="741" type="curve" smooth="yes"/>
      <point x="695.237" y="741"/>
      <point x="425" y="721.587"/>
      <point x="425" y="645" type="curve" smooth="yes"/>
      <point x="425" y="546.198"/>
      <point x="530" y="530.249"/>
      <point x="530" y="435" type="curve" smooth="yes"/>
      <point x="530" y="384.609"/>
      <point x="487.792" y="349.353"/>
      <point x="485" y="294" type="curve" smooth="yes"/>
      <point x="481.906" y="232.668"/>
      <point x="468.451" y="119.606"/>
      <point x="383" y="156" type="curve"/>
      <point x="347.574" y="156"/>
      <point x="95" y="128.725"/>
      <point x="95" y="228" type="curve" smooth="yes"/>
      <point x="95" y="292.946"/>
      <point x="374" y="329.904"/>
      <point x="374" y="396" type="curve" smooth="yes"/>
      <point x="374" y="531.308"/>
      <point x="47" y="640.073"/>
      <point x="47" y="648" type="curve" smooth="yes"/>
      <point x="47" y="661.463"/>
      <point x="53.1895" y="690"/>
      <point x="71" y="690" type="curve" smooth="yes"/>
    </contour>
    <contour>
      <point x="796.482" y="602.259" type="curve"/>
      <point x="798.095" y="584.455"/>
      <point x="799" y="571.037"/>
      <point x="799" y="564" type="curve" smooth="yes"/>
      <point x="799" y="479.753"/>
      <point x="700" y="472.92"/>
      <point x="700" y="438" type="curve" smooth="yes"/>
      <point x="700" y="417.801"/>
      <point x="728.523" y="416"/>
      <point x="767" y="416" type="curve" smooth="yes"/>
      <point x="802.242" y="416"/>
      <point x="819" y="451.196"/>
      <point x="819" y="495" type="curve" smooth="yes"/>
      <point x="819" y="527.97"/>
      <point x="806.394" y="558.65"/>
    </contour>
    <contour>
      <point x="387.082" y="176.001" type="line"/>
      <point x="421.312" y="161.423"/>
      <point x="435.296" y="169.36"/>
      <point x="448.198" y="200.097" type="curve" smooth="yes"/>
      <point x="459.425" y="226.842"/>
      <point x="463.581" y="266.432"/>
      <point x="465.022" y="295.011" type="curve" smooth="yes"/>
      <point x="468.354" y="361.063"/>
      <point x="509.997" y="396.325"/>
      <point x="509.997" y="435.003" type="curve" smooth="yes"/>
      <point x="509.997" y="511.852"/>
      <point x="404.997" y="528.494"/>
      <point x="404.997" y="645.002" type="curve" smooth="yes"/>
      <point x="404.997" y="752.752"/>
      <point x="706.671" y="761.002"/>
      <point x="745.997" y="761.002" type="curve" smooth="yes"/>
      <point x="784.639" y="761.002"/>
      <point x="784.792" y="695.53"/>
      <point x="788.972" y="666.76" type="curve"/>
      <point x="814.196" y="730.346"/>
      <point x="776.97" y="798.65"/>
      <point x="713.164" y="823.808" type="curve" smooth="yes"/>
      <point x="616.893" y="861.766"/>
      <point x="550.989" y="754.002"/>
      <point x="460.998" y="754.002" type="curve" smooth="yes"/>
      <point x="460.002" y="754.002" type="line" smooth="yes"/>
      <point x="449.485" y="755.052"/>
      <point x="431.817" y="747.504"/>
      <point x="407.515" y="758.872" type="curve" smooth="yes"/>
      <point x="334.241" y="788.978"/>
      <point x="315.185" y="678.203"/>
      <point x="207.131" y="688.083" type="curve" smooth="yes"/>
      <point x="204.923" y="688.124"/>
      <point x="191.318" y="687.095"/>
      <point x="176.156" y="684.388" type="curve"/>
      <point x="180.704" y="677.756" type="line"/>
      <point x="126.421" y="670.001" type="line"/>
      <point x="72.7793" y="670.001" type="line" smooth="yes"/>
      <point x="71.4805" y="668.122"/>
      <point x="69.8105" y="664.722"/>
      <point x="68.4287" y="659.057" type="curve"/>
      <point x="123.008" y="634.604"/>
      <point x="394" y="536.332"/>
      <point x="394" y="396.001" type="curve" smooth="yes"/>
      <point x="394" y="301.298"/>
      <point x="115" y="263.614"/>
      <point x="115" y="228.001" type="curve" smooth="yes"/>
      <point x="115" y="189.627"/>
      <point x="193.357" y="172.47"/>
      <point x="285.355" y="172.572" type="curve" smooth="yes"/>
      <point x="330.542" y="172.622"/>
      <point x="368.34" y="176.001"/>
      <point x="383" y="176.001" type="curve" smooth="yes"/>
    </contour>
  </outline>
</glyph>
<glyph name="C" format="1">
  <advance width="696"/>
  <unicode hex="0043"/>
  <outline>
    <contour>
      <point x="280.5" y="624" type="curve"/>
      <point x="313.5" y="621" type="line"/>
      <point x="317.782" y="616.004"/>
      <point x="325.5" y="615.485"/>
      <point x="325.5" y="606" type="curve" smooth="yes"/>
      <point x="325.5" y="584.276"/>
      <point x="294.593" y="581.076"/>
      <point x="277.5" y="576" type="curve" smooth="yes"/>
      <point x="243.884" y="566.017"/>
      <point x="192.736" y="569.742"/>
      <point x="175.5" y="540" type="curve"/>
      <point x="175.5" y="520.938"/>
      <point x="225.979" y="525"/>
      <point x="238.5" y="525" type="curve" smooth="yes"/>
      <point x="268.674" y="525"/>
      <point x="306.193" y="558"/>
      <point x="322.5" y="558" type="curve" smooth="yes"/>
      <point x="358.908" y="558"/>
      <point x="392.142" y="499.592"/>
      <point x="376.5" y="462" type="curve" smooth="yes"/>
      <point x="333.138" y="357.785"/>
      <point x="488.555" y="419.947"/>
      <point x="469.5" y="495" type="curve"/>
      <point x="469.5" y="561.312"/>
      <point x="421.5" y="633.745"/>
      <point x="421.5" y="708" type="curve" smooth="yes"/>
      <point x="421.5" y="726.341"/>
      <point x="422.115" y="750"/>
      <point x="445.5" y="750" type="curve" smooth="yes"/>
      <point x="518.8" y="750"/>
      <point x="649.5" y="683.787"/>
      <point x="649.5" y="600" type="curve" smooth="yes"/>
      <point x="649.5" y="537.194"/>
      <point x="517.5" y="507.022"/>
      <point x="517.5" y="432" type="curve" smooth="yes"/>
      <point x="517.5" y="400.264"/>
      <point x="637.5" y="395.938"/>
      <point x="637.5" y="330" type="curve" smooth="yes"/>
      <point x="637.5" y="264.344"/>
      <point x="574.5" y="121.294"/>
      <point x="574.5" y="102" type="curve"/>
      <point x="574.5" y="140.107"/>
      <point x="586.5" y="175.448"/>
      <point x="586.5" y="213" type="curve" smooth="yes"/>
      <point x="586.5" y="239.439"/>
      <point x="494.24" y="291"/>
      <point x="472.5" y="291" type="curve" smooth="yes"/>
      <point x="406.504" y="291"/>
      <point x="365.826" y="192"/>
      <point x="295.5" y="192" type="curve" smooth="yes"/>
      <point x="223.51" y="192"/>
      <point x="187.5" y="177.709"/>
      <point x="187.5" y="249" type="curve" smooth="yes"/>
      <point x="187.5" y="300.193"/>
      <point x="262.5" y="342.49"/>
      <point x="262.5" y="396" type="curve" smooth="yes"/>
      <point x="262.5" y="463.458"/>
      <point x="46.5" y="459.624"/>
      <point x="46.5" y="531" type="curve" smooth="yes"/>
      <point x="46.5" y="607.65"/>
      <point x="211.405" y="608.399"/>
    </contour>
    <contour>
      <point x="445.5" y="730" type="curve" smooth="yes"/>
      <point x="442.03" y="730"/>
      <point x="441.501" y="719.142"/>
      <point x="441.501" y="708.001" type="curve" smooth="yes"/>
      <point x="441.501" y="642.28"/>
      <point x="488.009" y="573.379"/>
      <point x="489.485" y="497.376" type="curve"/>
      <point x="501.742" y="440.555"/>
      <point x="446.716" y="396.898"/>
      <point x="407.276" y="388.475" type="curve" smooth="yes"/>
      <point x="392.897" y="385.403"/>
      <point x="374.625" y="385.457"/>
      <point x="361.174" y="398.588" type="curve" smooth="yes"/>
      <point x="343.524" y="415.817"/>
      <point x="346.604" y="442.211"/>
      <point x="358.035" y="469.685" type="curve" smooth="yes"/>
      <point x="366.416" y="489.826"/>
      <point x="348.089" y="536.897"/>
      <point x="323.017" y="537.992" type="curve" smooth="yes"/>
      <point x="322.137" y="537.759"/>
      <point x="318.156" y="536.252"/>
      <point x="313.385" y="533.798" type="curve" smooth="yes"/>
      <point x="296.829" y="525.282"/>
      <point x="269.331" y="505"/>
      <point x="238.5" y="505" type="curve"/>
      <point x="238.5" y="505"/>
      <point x="155.5" y="489.691"/>
      <point x="155.5" y="540" type="curve" smooth="yes"/>
      <point x="155.5" y="545.376" type="line"/>
      <point x="158.196" y="550.027" type="line" smooth="yes"/>
      <point x="183.265" y="593.284"/>
      <point x="247.697" y="588.012"/>
      <point x="271.807" y="595.172" type="curve" smooth="yes"/>
      <point x="280.402" y="597.725"/>
      <point x="290.207" y="599.5"/>
      <point x="297.956" y="602.33" type="curve" smooth="yes"/>
      <point x="281.765" y="603.802" type="line"/>
      <point x="196.259" y="585.917"/>
      <point x="66.5" y="579.949"/>
      <point x="66.5" y="530.999" type="curve" smooth="yes"/>
      <point x="66.5" y="488.155"/>
      <point x="282.5" y="492.931"/>
      <point x="282.5" y="395.999" type="curve" smooth="yes"/>
      <point x="282.5" y="325.583"/>
      <point x="207.5" y="282.614"/>
      <point x="207.5" y="248.999" type="curve" smooth="yes"/>
      <point x="207.5" y="207.674"/>
      <point x="211.772" y="210.808"/>
      <point x="242.711" y="210.829" type="curve" smooth="yes"/>
      <point x="256.362" y="210.839"/>
      <point x="274.251" y="212"/>
      <point x="295.5" y="212" type="curve" smooth="yes"/>
      <point x="347.752" y="212"/>
      <point x="387.363" y="311"/>
      <point x="472.5" y="311" type="curve" smooth="yes"/>
      <point x="503.16" y="311"/>
      <point x="571.637" y="272.547"/>
      <point x="597.609" y="237.269" type="curve"/>
      <point x="608.543" y="272.335"/>
      <point x="617.5" y="309.387"/>
      <point x="617.5" y="330" type="curve" smooth="yes"/>
      <point x="617.5" y="375.604"/>
      <point x="497.5" y="366.6"/>
      <point x="497.5" y="432" type="curve" smooth="yes"/>
      <point x="497.5" y="528.064"/>
      <point x="629.5" y="561.621"/>
      <point x="629.5" y="600" type="curve" smooth="yes"/>
      <point x="629.5" y="664.362"/>
      <point x="514.061" y="730"/>
    </contour>
  </outline>
</glyph>
<glyph name="D" format="1">
  <advance width="747"/>
  <unicode hex="0044"/>
  <outline>
    <contour>
      <point x="388.5" y="687" type="curve"/>
      <point x="409.5" y="705" type="line"/>
      <point x="415.5" y="705" type="line" smooth="yes"/>
      <point x="442.654" y="705"/>
      <point x="452.226" y="683.619"/>
      <point x="448.5" y="657" type="curve" smooth="yes"/>
      <point x="445.384" y="634.735"/>
      <point x="450.027" y="605.307"/>
      <point x="475.5" y="609" type="curve" smooth="yes"/>
      <point x="558.292" y="609"/>
      <point x="516.168" y="753"/>
      <point x="628.5" y="753" type="curve" smooth="yes"/>
      <point x="639.594" y="753"/>
      <point x="703.5" y="758.074"/>
      <point x="703.5" y="741" type="curve" smooth="yes"/>
      <point x="703.5" y="590.075"/>
      <point x="403.5" y="539.428"/>
      <point x="403.5" y="501" type="curve"/>
      <point x="403.5" y="501"/>
      <point x="685.5" y="435.107"/>
      <point x="685.5" y="240" type="curve" smooth="yes"/>
      <point x="685.5" y="55.6016"/>
      <point x="588.258" y="222"/>
      <point x="441.5" y="222" type="curve" smooth="yes"/>
      <point x="368.861" y="222"/>
      <point x="43.5" y="39.4199"/>
      <point x="43.5" y="168" type="curve" smooth="yes"/>
      <point x="43.5" y="271.077"/>
      <point x="394.5" y="269.8"/>
      <point x="394.5" y="381" type="curve" smooth="yes"/>
      <point x="394.5" y="459.743"/>
      <point x="133.5" y="468.115"/>
      <point x="133.5" y="615" type="curve" smooth="yes"/>
      <point x="133.5" y="648.424"/>
      <point x="143.011" y="681"/>
      <point x="181.5" y="681" type="curve" smooth="yes"/>
      <point x="249.632" y="681"/>
      <point x="322.504" y="704"/>
    </contour>
    <contour>
      <point x="393.604" y="665.032" type="line"/>
      <point x="383.511" y="667.631" type="line" smooth="yes"/>
      <point x="324.797" y="682.755"/>
      <point x="254.39" y="660.999"/>
      <point x="181.499" y="660.999" type="curve" smooth="yes"/>
      <point x="160.584" y="660.999"/>
      <point x="153.499" y="647.246"/>
      <point x="153.499" y="614.999" type="curve" smooth="yes"/>
      <point x="153.499" y="488.807"/>
      <point x="414.499" y="492.221"/>
      <point x="414.499" y="380.999" type="curve" smooth="yes"/>
      <point x="414.499" y="241.282"/>
      <point x="63.499" y="241.304"/>
      <point x="63.499" y="167.998" type="curve" smooth="yes"/>
      <point x="63.499" y="148.354"/>
      <point x="70.4102" y="142.123"/>
      <point x="99.5195" y="142.131" type="curve" smooth="yes"/>
      <point x="187.723" y="142.155"/>
      <point x="375.529" y="241.998"/>
      <point x="441.499" y="241.998" type="curve" smooth="yes"/>
      <point x="623.737" y="241.998"/>
      <point x="665.499" y="79.5049"/>
      <point x="665.499" y="239.998" type="curve" smooth="yes"/>
      <point x="665.499" y="413.953"/>
      <point x="404.716" y="480.167"/>
      <point x="398.935" y="481.526" type="curve" smooth="yes"/>
      <point x="383.499" y="485.145" type="line"/>
      <point x="383.499" y="500.998" type="line" smooth="yes"/>
      <point x="383.499" y="571.595"/>
      <point x="670.615" y="609.499"/>
      <point x="683.061" y="732.002" type="curve"/>
      <point x="667.644" y="734.637"/>
      <point x="637.579" y="732.998"/>
      <point x="628.5" y="732.998" type="curve" smooth="yes"/>
      <point x="536.971" y="732.998"/>
      <point x="590.682" y="592.169"/>
      <point x="476.776" y="588.999" type="curve" smooth="yes"/>
      <point x="470.623" y="588.293"/>
      <point x="459.114" y="589.398"/>
      <point x="451.422" y="593.696" type="curve" smooth="yes"/>
      <point x="428.35" y="606.589"/>
      <point x="424.833" y="632.194"/>
      <point x="428.692" y="659.771" type="curve" smooth="yes"/>
      <point x="431.624" y="680.715"/>
      <point x="426.526" y="684.395"/>
      <point x="416.865" y="684.971" type="curve"/>
    </contour>
  </outline>
</glyph>
<glyph name="E" format="1">
  <advance width="894"/>
  <unicode hex="0045"/>
  <outline>
    <contour>
      <point x="213" y="-135" type="line"/>
      <point x="249" y="-120" type="line"/>
      <point x="249" y="27.7295"/>
      <point x="513" y="77.6592"/>
      <point x="513" y="249" type="curve" smooth="yes"/>
      <point x="513" y="413.017"/>
      <point x="123" y="421.548"/>
      <point x="123" y="528" type="curve" smooth="yes"/>
      <point x="123" y="605.349"/>
      <point x="246.761" y="623.609"/>
      <point x="297" y="681" type="curve" smooth="yes"/>
      <point x="336.802" y="726.467"/>
      <point x="555" y="809.494"/>
      <point x="555" y="873" type="curve" smooth="yes"/>
      <point x="555" y="888.819"/>
      <point x="440.688" y="893.896"/>
      <point x="450" y="897" type="curve" smooth="yes"/>
      <point x="579" y="940"/>
      <point x="855" y="801.884"/>
      <point x="855" y="753" type="curve" smooth="yes"/>
      <point x="855" y="635.31"/>
      <point x="560.185" y="579"/>
      <point x="480" y="579" type="curve" smooth="yes"/>
      <point x="408" y="579" type="line" smooth="yes"/>
      <point x="390.788" y="579"/>
      <point x="186" y="570.014"/>
      <point x="186" y="555" type="curve"/>
      <point x="431.725" y="587.75"/>
      <point x="729.178" y="469.025"/>
      <point x="750" y="195" type="curve" smooth="yes"/>
      <point x="753.895" y="143.751"/>
      <point x="750" y="91.875"/>
      <point x="750" y="42" type="curve" smooth="yes"/>
      <point x="750" y="-18.6904"/>
      <point x="507" y="-18.4961"/>
      <point x="507" y="-45" type="curve" smooth="yes"/>
      <point x="507" y="-93.252"/>
      <point x="549.595" y="-77.5859"/>
      <point x="444.948" y="-75.2646" type="curve"/>
      <point x="482.012" y="-79.4346"/>
      <point x="651" y="-131.963"/>
      <point x="651" y="-171" type="curve"/>
      <point x="615.466" y="-200.521"/>
      <point x="539.099" y="-175.3"/>
      <point x="492" y="-186" type="curve" smooth="yes"/>
      <point x="434.673" y="-199.024"/>
      <point x="401.53" y="-140.651"/>
      <point x="351" y="-144" type="curve" smooth="yes"/>
      <point x="296.023" y="-147.644"/>
      <point x="273.875" y="-186"/>
      <point x="216" y="-186" type="curve" smooth="yes"/>
      <point x="118.085" y="-186"/>
      <point x="39" y="-171.732"/>
      <point x="39" y="-75" type="curve" smooth="yes"/>
      <point x="39" y="-64.9062"/>
      <point x="45.7061" y="-69"/>
      <point x="57" y="-69" type="curve" smooth="yes"/>
      <point x="73.6787" y="-69"/>
      <point x="81.7168" y="-74.2061"/>
      <point x="99" y="-78" type="curve"/>
      <point x="168" y="-129" type="line"/>
    </contour>
    <contour>
      <point x="215.709" y="-155.538" type="line"/>
      <point x="160.254" y="-148.146" type="line"/>
      <point x="90.4326" y="-96.5381" type="line"/>
      <point x="74.8916" y="-92.584"/>
      <point x="69.373" y="-89.6416"/>
      <point x="59.6924" y="-89.0625" type="curve"/>
      <point x="66.4209" y="-152.646"/>
      <point x="121.271" y="-166.002"/>
      <point x="216.002" y="-166.002" type="curve" smooth="yes"/>
      <point x="263.3" y="-166.002"/>
      <point x="283.21" y="-128.451"/>
      <point x="349.679" y="-124.046" type="curve" smooth="yes"/>
      <point x="419.492" y="-119.419"/>
      <point x="444.032" y="-176.391"/>
      <point x="487.57" y="-166.499" type="curve" smooth="yes"/>
      <point x="533.482" y="-156.068"/>
      <point x="589.605" y="-170.952"/>
      <point x="621.987" y="-163.111" type="curve"/>
      <point x="585.693" y="-134.98"/>
      <point x="467.783" y="-97.9609"/>
      <point x="442.714" y="-95.1406" type="curve"/>
      <point x="445.394" y="-55.2705" type="line"/>
      <point x="463.423" y="-55.6709"/>
      <point x="476.832" y="-56.4326"/>
      <point x="487.786" y="-57.2686" type="curve"/>
      <point x="487.36" y="-53.8291"/>
      <point x="487.001" y="-49.377"/>
      <point x="487.001" y="-45.002" type="curve" smooth="yes"/>
      <point x="487.001" y="16.8223"/>
      <point x="730.001" y="8.5332"/>
      <point x="730.001" y="41.998" type="curve" smooth="yes"/>
      <point x="730.001" y="92.9072"/>
      <point x="733.801" y="144.236"/>
      <point x="730.059" y="193.483" type="curve" smooth="yes"/>
      <point x="710.751" y="447.576"/>
      <point x="435.741" y="568.107"/>
      <point x="188.644" y="535.175" type="curve" smooth="yes"/>
      <point x="166.001" y="532.157" type="line"/>
      <point x="166.001" y="555" type="line" smooth="yes"/>
      <point x="166.001" y="605.459"/>
      <point x="408.001" y="599.001"/>
      <point x="408.001" y="599.001" type="curve"/>
      <point x="480.001" y="599.001" type="line" smooth="yes"/>
      <point x="564.513" y="599.001"/>
      <point x="833.099" y="661.83"/>
      <point x="834.994" y="752.201" type="curve"/>
      <point x="825.42" y="775.243"/>
      <point x="695.435" y="853.888"/>
      <point x="574.569" y="877.894" type="curve"/>
      <point x="574.572" y="877.873"/>
      <point x="575" y="874.44"/>
      <point x="575" y="873" type="curve" smooth="yes"/>
      <point x="575" y="788.591"/>
      <point x="339.368" y="699.035"/>
      <point x="312.049" y="667.827" type="curve" smooth="yes"/>
      <point x="248.987" y="595.789"/>
      <point x="143" y="587.797"/>
      <point x="143" y="528.001" type="curve" smooth="yes"/>
      <point x="143" y="453.433"/>
      <point x="533" y="437.444"/>
      <point x="533" y="249.001" type="curve" smooth="yes"/>
      <point x="533" y="57.2012"/>
      <point x="269" y="4.41406"/>
      <point x="269" y="-120" type="curve" smooth="yes"/>
      <point x="269" y="-133.333" type="line"/>
    </contour>
  </outline>
</glyph>
<glyph name="F" format="1">
  <advance width="1410"/>
  <unicode hex="0046"/>
  <outline>
    <contour>
      <point x="1029" y="618" type="curve"/>
      <point x="1032" y="627" type="line"/>
      <point x="1060.93" y="649.529"/>
      <point x="1088.84" y="656.782"/>
      <point x="1128" y="651" type="curve" smooth="yes"/>
      <point x="1182.8" y="642.908"/>
      <point x="1278.53" y="673.063"/>
      <point x="1308" y="621" type="curve"/>
      <point x="1308" y="601.162"/>
      <point x="1267.32" y="567"/>
      <point x="1248" y="567" type="curve" smooth="yes"/>
      <point x="1224" y="567" type="line" smooth="yes"/>
      <point x="1121.37" y="567"/>
      <point x="561" y="509.508"/>
      <point x="561" y="444" type="curve"/>
      <point x="561" y="455.307"/>
      <point x="693.357" y="486"/>
      <point x="720" y="486" type="curve" smooth="yes"/>
      <point x="868.339" y="486"/>
      <point x="1365" y="499.037"/>
      <point x="1365" y="246" type="curve" smooth="yes"/>
      <point x="1365" y="157.203"/>
      <point x="1260.83" y="78"/>
      <point x="1176" y="78" type="curve" smooth="yes"/>
      <point x="1145.84" y="78"/>
      <point x="1068" y="67.8701"/>
      <point x="1068" y="111" type="curve" smooth="yes"/>
      <point x="1068" y="167.77"/>
      <point x="1164" y="194.012"/>
      <point x="1164" y="237" type="curve" smooth="yes"/>
      <point x="1164" y="292.824"/>
      <point x="957.78" y="254.445"/>
      <point x="918" y="255" type="curve" smooth="yes"/>
      <point x="618.517" y="259.177"/>
      <point x="185.967" y="214.652"/>
      <point x="45" y="483" type="curve"/>
      <point x="45" y="634.133"/>
      <point x="747.144" y="618"/>
      <point x="834" y="618" type="curve" smooth="yes"/>
      <point x="884.078" y="618"/>
      <point x="984.608" y="640.407"/>
    </contour>
    <contour>
      <point x="576.675" y="431.669" type="curve"/>
      <point x="576.675" y="431.669"/>
      <point x="541.898" y="444.44"/>
      <point x="541.002" y="443.998" type="curve"/>
      <point x="541.002" y="479.885"/>
      <point x="586.72" y="492.849"/>
      <point x="625.061" y="504.481" type="curve" smooth="yes"/>
      <point x="783.022" y="552.407"/>
      <point x="1140.54" y="586.998"/>
      <point x="1224" y="586.998" type="curve" smooth="yes"/>
      <point x="1247.89" y="586.998" type="line" smooth="yes"/>
      <point x="1253.02" y="587.706"/>
      <point x="1277.23" y="603.257"/>
      <point x="1286.04" y="617.341" type="curve"/>
      <point x="1261.52" y="643.002"/>
      <point x="1188.09" y="621.906"/>
      <point x="1125.08" y="631.212" type="curve" smooth="yes"/>
      <point x="1092.18" y="636.069"/>
      <point x="1072.51" y="631.48"/>
      <point x="1049" y="614.737" type="curve"/>
      <point x="1040.65" y="589.712" type="line"/>
      <point x="1019.99" y="600.144" type="line" smooth="yes"/>
      <point x="986.554" y="617.02"/>
      <point x="889.274" y="597.998"/>
      <point x="833.999" y="597.998" type="curve" smooth="yes"/>
      <point x="735.059" y="597.998"/>
      <point x="83.79" y="600.637"/>
      <point x="65.3457" y="487.376" type="curve"/>
      <point x="200.676" y="240.893"/>
      <point x="613.873" y="279.241"/>
      <point x="918.278" y="274.996" type="curve"/>
      <point x="918.278" y="274.996"/>
      <point x="1184" y="326.533"/>
      <point x="1184" y="236.998" type="curve" smooth="yes"/>
      <point x="1184" y="169.193"/>
      <point x="1088" y="147.955"/>
      <point x="1088" y="110.998" type="curve" smooth="yes"/>
      <point x="1088" y="104.618"/>
      <point x="1099.16" y="96.9209"/>
      <point x="1136.93" y="96.9639" type="curve" smooth="yes"/>
      <point x="1151.28" y="96.9805"/>
      <point x="1165.18" y="97.999"/>
      <point x="1176" y="97.999" type="curve" smooth="yes"/>
      <point x="1251.82" y="97.999"/>
      <point x="1345" y="172"/>
      <point x="1345" y="245.999" type="curve" smooth="yes"/>
      <point x="1345" y="448.454"/>
      <point x="965.907" y="466.122"/>
      <point x="769.776" y="466.113" type="curve" smooth="yes"/>
      <point x="750.697" y="466.112"/>
      <point x="733.909" y="465.999"/>
      <point x="720" y="465.999" type="curve" smooth="yes"/>
      <point x="703.6" y="465.999"/>
      <point x="600.14" y="442.935"/>
    </contour>
  </outline>
</glyph>
<glyph name="G" format="1">
  <advance width="637"/>
  <unicode hex="0047"/>
  <outline>
    <contour>
      <point x="215" y="522" type="curve"/>
      <point x="257" y="462" type="line"/>
      <point x="272" y="462" type="line" smooth="yes"/>
      <point x="281.45" y="462"/>
      <point x="290" y="465.447"/>
      <point x="290" y="477" type="curve" smooth="yes"/>
      <point x="290" y="498" type="line" smooth="yes"/>
      <point x="290" y="527.375"/>
      <point x="323.915" y="558"/>
      <point x="353" y="558" type="curve" smooth="yes"/>
      <point x="379.339" y="558"/>
      <point x="360.363" y="519"/>
      <point x="386" y="519" type="curve" smooth="yes"/>
      <point x="431.976" y="519"/>
      <point x="448.421" y="585"/>
      <point x="476" y="585" type="curve" smooth="yes"/>
      <point x="488.097" y="585"/>
      <point x="521" y="577.86"/>
      <point x="521" y="564" type="curve" smooth="yes"/>
      <point x="521" y="517.457"/>
      <point x="437" y="497.136"/>
      <point x="437" y="468" type="curve" smooth="yes"/>
      <point x="437" y="450.886"/>
      <point x="460.245" y="449.01"/>
      <point x="479" y="453" type="curve" smooth="yes"/>
      <point x="553.806" y="468.916"/>
      <point x="566.954" y="404.222"/>
      <point x="590" y="354" type="curve"/>
      <point x="590" y="340.133"/>
      <point x="558.113" y="300.751"/>
      <point x="548" y="291" type="curve" smooth="yes"/>
      <point x="520.772" y="264.748"/>
      <point x="521.484" y="210.933"/>
      <point x="485" y="195" type="curve"/>
      <point x="429.764" y="195"/>
      <point x="351.671" y="304.596"/>
      <point x="311" y="288" type="curve" smooth="yes"/>
      <point x="183.287" y="235.888"/>
      <point x="130.59" y="340.871"/>
      <point x="47" y="390" type="curve"/>
      <point x="47" y="434.51"/>
      <point x="158" y="426.153"/>
      <point x="158" y="471" type="curve" smooth="yes"/>
      <point x="158" y="502.674"/>
      <point x="83" y="489.253"/>
      <point x="83" y="537" type="curve" smooth="yes"/>
      <point x="83" y="550.397"/>
      <point x="95.292" y="546"/>
      <point x="107" y="546" type="curve" smooth="yes"/>
      <point x="142.897" y="546"/>
      <point x="177.387" y="526.801"/>
    </contour>
    <contour>
      <point x="203.508" y="503.542" type="line"/>
      <point x="167.065" y="510.109"/>
      <point x="135.41" y="525.474"/>
      <point x="107.963" y="525.995" type="curve"/>
      <point x="111.102" y="523.457"/>
      <point x="178" y="514.446"/>
      <point x="178" y="470.998" type="curve" smooth="yes"/>
      <point x="178" y="415.097"/>
      <point x="88.6787" y="406.866"/>
      <point x="73.1182" y="397.043" type="curve"/>
      <point x="155.332" y="340.566"/>
      <point x="196.735" y="262.975"/>
      <point x="303.443" y="306.516" type="curve" smooth="yes"/>
      <point x="360.033" y="329.607"/>
      <point x="447.905" y="221.038"/>
      <point x="480.788" y="215.353" type="curve"/>
      <point x="499.022" y="227.213"/>
      <point x="498.511" y="271.063"/>
      <point x="534.118" y="305.396" type="curve" smooth="yes"/>
      <point x="540.026" y="311.093"/>
      <point x="562.309" y="338.615"/>
      <point x="568.854" y="352.299" type="curve"/>
      <point x="545.038" y="407.194"/>
      <point x="537.062" y="444.904"/>
      <point x="483.161" y="433.437" type="curve" smooth="yes"/>
      <point x="468.595" y="430.338"/>
      <point x="416.999" y="424.767"/>
      <point x="416.999" y="467.999" type="curve" smooth="yes"/>
      <point x="416.999" y="516.188"/>
      <point x="494.919" y="540.28"/>
      <point x="500.349" y="559.179" type="curve"/>
      <point x="494.311" y="562.016"/>
      <point x="481.504" y="564.805"/>
      <point x="476.401" y="564.994" type="curve" smooth="yes"/>
      <point x="473.046" y="563.339"/>
      <point x="440.147" y="499"/>
      <point x="386" y="499" type="curve" smooth="yes"/>
      <point x="353.841" y="499"/>
      <point x="350.638" y="532.165"/>
      <point x="349.562" y="537.749" type="curve"/>
      <point x="331.369" y="535.019"/>
      <point x="310" y="512.777"/>
      <point x="310" y="498.001" type="curve" smooth="yes"/>
      <point x="310" y="477.001" type="line" smooth="yes"/>
      <point x="310" y="467.197"/>
      <point x="306.029" y="457.033"/>
      <point x="298.345" y="450.571" type="curve" smooth="yes"/>
      <point x="289.441" y="443.084"/>
      <point x="279.468" y="442"/>
      <point x="272" y="442" type="curve" smooth="yes"/>
      <point x="246.587" y="442" type="line"/>
    </contour>
  </outline>
</glyph>
